G04 EasyPC Gerber Version 21.0.3 Build 4286 *
%FSLAX35Y35*%
%MOIN*%
%ADD10C,0.00500*%
%ADD85C,0.00787*%
X0Y0D02*
D02*
D10*
X125225Y480946D02*
Y483446D01*
X123975Y482196D02*
X126475D01*
X130197Y487800D02*
X129947Y487550D01*
X129697Y487050*
Y486300*
X129947Y485800*
X130197Y485550*
X130697Y485300*
X131697*
X132197Y485550*
X132447Y485800*
X132697Y486300*
Y487050*
X132447Y487550*
X132197Y487800*
X129697Y489800D02*
Y490800D01*
Y490300D02*
X132697D01*
X132197Y489800*
X130447Y493300D02*
X130947Y493550D01*
X131197Y494050*
Y494550*
X130947Y495050*
X130447Y495300*
X129947Y495050*
X129697Y494550*
Y494050*
X129947Y493550*
X130447Y493300*
X131197*
X131947Y493550*
X132447Y494050*
X132697Y494550*
X185303Y125200D02*
X185553Y125450D01*
X185803Y125950*
Y126700*
X185553Y127200*
X185303Y127450*
X184803Y127700*
X183803*
X183303Y127450*
X183053Y127200*
X182803Y126700*
Y125950*
X183053Y125450*
X183303Y125200*
X185053Y123700D02*
X184553Y123450D01*
X184303Y122950*
Y122450*
X184553Y121950*
X185053Y121700*
X185553Y121950*
X185803Y122450*
Y122950*
X185553Y123450*
X185053Y123700*
X184303*
X183553Y123450*
X183053Y122950*
X182803Y122450*
X190275Y132054D02*
Y129554D01*
X191525Y130804D02*
X189025D01*
X601000Y554000D02*
X602500D01*
X604000Y552750*
X602500Y554000D02*
X604000Y555250D01*
X601000Y557250D02*
Y558250D01*
Y557750D02*
X604000D01*
X603500Y557250*
X611000Y554000D02*
X612500D01*
X614000Y552750*
X612500Y554000D02*
X614000Y555250D01*
X611000Y558750D02*
Y556750D01*
X612750Y558500*
X613250Y558750*
X613750Y558500*
X614000Y558000*
Y557250*
X613750Y556750*
X621000Y554000D02*
X622500D01*
X624000Y552750*
X622500Y554000D02*
X624000Y555250D01*
X621250Y557000D02*
X621000Y557500D01*
Y558000*
X621250Y558500*
X621750Y558750*
X622250Y558500*
X622500Y558000*
Y557500*
Y558000D02*
X622750Y558500D01*
X623250Y558750*
X623750Y558500*
X624000Y558000*
Y557500*
X623750Y557000*
X631000Y554000D02*
X632500D01*
X634000Y552750*
X632500Y554000D02*
X634000Y555250D01*
X631000Y558000D02*
X634000D01*
X632000Y556750*
Y558750*
X641000Y554000D02*
X642500D01*
X644000Y552750*
X642500Y554000D02*
X644000Y555250D01*
X641250Y556750D02*
X641000Y557250D01*
Y558000*
X641250Y558500*
X641750Y558750*
X642000*
X642500Y558500*
X642750Y558000*
Y556750*
X644000*
Y558750*
X651000Y554000D02*
X652500D01*
X654000Y552750*
X652500Y554000D02*
X654000Y555250D01*
X651750Y556750D02*
X652250Y557000D01*
X652500Y557500*
Y558000*
X652250Y558500*
X651750Y558750*
X651250Y558500*
X651000Y558000*
Y557500*
X651250Y557000*
X651750Y556750*
X652500*
X653250Y557000*
X653750Y557500*
X654000Y558000*
X661000Y554000D02*
X662500D01*
X664000Y552750*
X662500Y554000D02*
X664000Y555250D01*
X661000Y556750D02*
X664000Y558750D01*
Y556750*
X671000Y554000D02*
X672500D01*
X674000Y552750*
X672500Y554000D02*
X674000Y555250D01*
X672500Y557500D02*
Y558000D01*
X672750Y558500*
X673250Y558750*
X673750Y558500*
X674000Y558000*
Y557500*
X673750Y557000*
X673250Y556750*
X672750Y557000*
X672500Y557500*
X672250Y557000*
X671750Y556750*
X671250Y557000*
X671000Y557500*
Y558000*
X671250Y558500*
X671750Y558750*
X672250Y558500*
X672500Y558000*
X681000Y552750D02*
X684000Y555250D01*
Y552750D02*
X681000Y555250D01*
Y557500D02*
X681250Y558000D01*
X681750Y558500*
X682500Y558750*
X683250*
X683750Y558500*
X684000Y558000*
Y557500*
X683750Y557000*
X683250Y556750*
X682750Y557000*
X682500Y557500*
Y558000*
X682750Y558500*
X683250Y558750*
X691000Y552750D02*
X694000Y555250D01*
Y552750D02*
X691000Y555250D01*
Y557250D02*
Y558250D01*
Y557750D02*
X694000D01*
X693500Y557250*
X691250Y561000D02*
X691000Y561500D01*
Y562000*
X691250Y562500*
X691750Y562750*
X693250*
X693750Y562500*
X694000Y562000*
Y561500*
X693750Y561000*
X693250Y560750*
X691750*
X691250Y561000*
X693750Y562500*
X701000Y552750D02*
X704000Y555250D01*
Y552750D02*
X701000Y555250D01*
Y557250D02*
Y558250D01*
Y557750D02*
X704000D01*
X703500Y557250*
X701000Y561250D02*
Y562250D01*
Y561750D02*
X704000D01*
X703500Y561250*
X711000Y552750D02*
X714000Y555250D01*
Y552750D02*
X711000Y555250D01*
Y557250D02*
Y558250D01*
Y557750D02*
X714000D01*
X713500Y557250*
X711000Y562750D02*
Y560750D01*
X712750Y562500*
X713250Y562750*
X713750Y562500*
X714000Y562000*
Y561250*
X713750Y560750*
X721000Y552750D02*
X724000D01*
Y554500*
X723750Y555000*
X723250Y555250*
X722750Y555000*
X722500Y554500*
Y552750*
Y554500D02*
X721000Y555250D01*
X721750Y556750D02*
X721250Y557000D01*
X721000Y557500*
Y558500*
X721250Y559000*
X721750Y559250*
X722250Y559000*
X722500Y558500*
Y557500*
X722750Y557000*
X723250Y556750*
X723750Y557000*
X724000Y557500*
Y558500*
X723750Y559000*
X723250Y559250*
X721000Y562000D02*
X724000D01*
Y560750D02*
Y563250D01*
X741250Y553000D02*
X741000Y553500D01*
Y554000*
X741250Y554500*
X741750Y554750*
X742250Y554500*
X742500Y554000*
Y553500*
Y554000D02*
X742750Y554500D01*
X743250Y554750*
X743750Y554500*
X744000Y554000*
Y553500*
X743750Y553000*
X744000Y556750D02*
X741000Y558000D01*
X744000Y559250*
X741250Y561000D02*
X741000Y561500D01*
Y562000*
X741250Y562500*
X741750Y562750*
X742250Y562500*
X742500Y562000*
Y561500*
Y562000D02*
X742750Y562500D01*
X743250Y562750*
X743750Y562500*
X744000Y562000*
Y561500*
X743750Y561000*
X740303Y125200D02*
X740553Y125450D01*
X740803Y125950*
Y126700*
X740553Y127200*
X740303Y127450*
X739803Y127700*
X738803*
X738303Y127450*
X738053Y127200*
X737803Y126700*
Y125950*
X738053Y125450*
X738303Y125200*
X740803Y123200D02*
Y122200D01*
Y122700D02*
X737803D01*
X738303Y123200*
X740803Y119200D02*
Y118200D01*
Y118700D02*
X737803D01*
X738303Y119200*
X745275Y132054D02*
Y129554D01*
X746525Y130804D02*
X744025D01*
X754000Y552750D02*
X751000Y554000D01*
X754000Y555250*
X751000Y557500D02*
Y558500D01*
Y558000D02*
X754000D01*
Y557500D02*
Y558500D01*
X751000Y560750D02*
X754000D01*
X751000Y563250*
X754000*
X844500Y365500D02*
X845000Y365750D01*
X845250Y366250*
X845000Y366750*
X844500Y367000*
X842750*
Y364000*
X844500*
X845000Y364250*
X845250Y364750*
X845000Y365250*
X844500Y365500*
X842750*
X846750Y366000D02*
Y365000D01*
X847000Y364500*
X847250Y364250*
X847750Y364000*
X848250*
X848750Y364250*
X849000Y364500*
X849250Y365000*
Y366000*
X849000Y366500*
X848750Y366750*
X848250Y367000*
X847750*
X847250Y366750*
X847000Y366500*
X846750Y366000*
X850750D02*
Y365000D01*
X851000Y364500*
X851250Y364250*
X851750Y364000*
X852250*
X852750Y364250*
X853000Y364500*
X853250Y365000*
Y366000*
X853000Y366500*
X852750Y366750*
X852250Y367000*
X851750*
X851250Y366750*
X851000Y366500*
X850750Y366000*
X856000Y367000D02*
Y364000D01*
X854750D02*
X857250D01*
X859000Y366750D02*
X859500Y367000D01*
X860000*
X860500Y366750*
X860750Y366250*
Y364750*
X860500Y364250*
X860000Y364000*
X859500*
X859000Y364250*
X858750Y364750*
Y366250*
X859000Y366750*
X860500Y364250*
X842750Y377000D02*
Y374000D01*
X844500*
X845000Y374250*
X845250Y374750*
X845000Y375250*
X844500Y375500*
X842750*
X848750Y377000D02*
X846750D01*
X848500Y375250*
X848750Y374750*
X848500Y374250*
X848000Y374000*
X847250*
X846750Y374250*
X842750Y387000D02*
Y384000D01*
X844500*
X845000Y384250*
X845250Y384750*
X845000Y385250*
X844500Y385500*
X842750*
X847000Y386750D02*
X847500Y387000D01*
X848000*
X848500Y386750*
X848750Y386250*
X848500Y385750*
X848000Y385500*
X847500*
X848000D02*
X848500Y385250D01*
X848750Y384750*
X848500Y384250*
X848000Y384000*
X847500*
X847000Y384250*
X842750Y397000D02*
Y394000D01*
X844500*
X845000Y394250*
X845250Y394750*
X845000Y395250*
X844500Y395500*
X842750*
X848000Y397000D02*
Y394000D01*
X846750Y396000*
X848750*
X842750Y407000D02*
Y404000D01*
X844500*
X845000Y404250*
X845250Y404750*
X845000Y405250*
X844500Y405500*
X842750*
X846750Y406750D02*
X847250Y407000D01*
X848000*
X848500Y406750*
X848750Y406250*
Y406000*
X848500Y405500*
X848000Y405250*
X846750*
Y404000*
X848750*
X842750Y414000D02*
X844000Y417000D01*
X845250Y414000*
X848500Y415500D02*
X849000Y415750D01*
X849250Y416250*
X849000Y416750*
X848500Y417000*
X846750*
Y414000*
X848500*
X849000Y414250*
X849250Y414750*
X849000Y415250*
X848500Y415500*
X846750*
X850750Y417000D02*
X852000Y414000D01*
X853250Y417000*
X851250Y415750D02*
X852750D01*
X857250Y416500D02*
X857000Y416750D01*
X856500Y417000*
X855750*
X855250Y416750*
X855000Y416500*
X854750Y416000*
Y415000*
X855000Y414500*
X855250Y414250*
X855750Y414000*
X856500*
X857000Y414250*
X857250Y414500*
X858750Y417000D02*
Y414000D01*
Y415500D02*
X859500D01*
X861250Y414000*
X859500Y415500D02*
X861250Y417000D01*
X842750Y424000D02*
X844000Y427000D01*
X845250Y424000*
X847500Y427000D02*
X848500D01*
X848000D02*
Y424000D01*
X847500D02*
X848500D01*
X850750Y427000D02*
Y424000D01*
X853250Y427000*
Y424000*
D02*
D85*
X121980Y485300D02*
Y500230D01*
X128511*
Y485300*
X121980*
X193520Y127700D02*
Y112770D01*
X186989*
Y127700*
X193520*
X605506Y542750D02*
X599994D01*
X607000Y551500D02*
X598500D01*
Y534000*
X607000*
Y551500*
X615506Y542750D02*
X609994D01*
X617000Y551500D02*
X608500D01*
Y534000*
X617000*
Y551500*
X625506Y542750D02*
X619994D01*
X627000Y551500D02*
X618500D01*
Y534000*
X627000*
Y551500*
X635506Y542750D02*
X629994D01*
X637000Y551500D02*
X628500D01*
Y534000*
X637000*
Y551500*
X645506Y542750D02*
X639994D01*
X647000Y551500D02*
X638500D01*
Y534000*
X647000*
Y551500*
X655506Y542750D02*
X649994D01*
X657000Y551500D02*
X648500D01*
Y534000*
X657000*
Y551500*
X665506Y542750D02*
X659994D01*
X667000Y551500D02*
X658500D01*
Y534000*
X667000*
Y551500*
X675506Y542750D02*
X669994D01*
X677000Y551500D02*
X668500D01*
Y534000*
X677000*
Y551500*
X685506Y542750D02*
X679994D01*
X687000Y551500D02*
X678500D01*
Y534000*
X687000*
Y551500*
X695506Y542750D02*
X689994D01*
X697000Y551500D02*
X688500D01*
Y534000*
X697000*
Y551500*
X705506Y542750D02*
X699994D01*
X707000Y551500D02*
X698500D01*
Y534000*
X707000*
Y551500*
X715506Y542750D02*
X709994D01*
X717000Y551500D02*
X708500D01*
Y534000*
X717000*
Y551500*
X725506Y542750D02*
X719994D01*
X727000Y551500D02*
X718500D01*
Y534000*
X727000*
Y551500*
X745506Y542750D02*
X739994D01*
X747000Y551500D02*
X738500D01*
Y534000*
X747000*
Y551500*
X748520Y127700D02*
Y112770D01*
X741989*
Y127700*
X748520*
X755506Y542750D02*
X749994D01*
X757000Y551500D02*
X748500D01*
Y534000*
X757000*
Y551500*
X832750Y362494D02*
Y368006D01*
Y372494D02*
Y378006D01*
Y382494D02*
Y388006D01*
Y392494D02*
Y398006D01*
Y402494D02*
Y408006D01*
Y412494D02*
Y418006D01*
Y422494D02*
Y428006D01*
X841500Y361000D02*
Y369500D01*
X824000*
Y361000*
X841500*
Y371000D02*
Y379500D01*
X824000*
Y371000*
X841500*
Y381000D02*
Y389500D01*
X824000*
Y381000*
X841500*
Y391000D02*
Y399500D01*
X824000*
Y391000*
X841500*
Y401000D02*
Y409500D01*
X824000*
Y401000*
X841500*
Y411000D02*
Y419500D01*
X824000*
Y411000*
X841500*
Y421000D02*
Y429500D01*
X824000*
Y421000*
X841500*
X0Y0D02*
M02*
