G04 EasyPC Gerber Version 21.0.3 Build 4286 *
%FSLAX35Y35*%
%MOIN*%
%ADD106R,0.04734X0.06506*%
%ADD114R,0.04734X0.07687*%
%ADD101R,0.04813X0.04813*%
%ADD107R,0.05128X0.05128*%
%ADD104R,0.05167X0.05167*%
%ADD111R,0.05620X0.05620*%
%ADD109R,0.06506X0.06506*%
%ADD92R,0.07096X0.07096*%
%ADD95R,0.08277X0.08277*%
%ADD97R,0.09458X0.09458*%
%ADD102C,0.04813*%
%ADD116C,0.04931*%
%ADD108C,0.05128*%
%ADD105C,0.05167*%
%ADD112C,0.05620*%
%ADD100C,0.05639*%
%ADD103C,0.05915*%
%ADD115C,0.06269*%
%ADD110C,0.06506*%
%ADD91C,0.06600*%
%ADD99C,0.06860*%
%ADD93C,0.07096*%
%ADD96C,0.08277*%
%ADD98C,0.09458*%
%ADD94C,0.09655*%
%ADD89C,0.14600*%
%ADD88C,0.20400*%
%ADD113R,0.07687X0.04734*%
X0Y0D02*
D02*
D88*
X45250Y45250D03*
Y280250D03*
Y360250D03*
Y595250D03*
X360250Y45250D03*
Y280250D03*
Y360250D03*
Y595250D03*
X555250Y45250D03*
Y595250D03*
X870250Y45250D03*
Y595250D03*
D02*
D89*
X232750D03*
X312750D03*
D02*
D91*
X602750Y350250D03*
Y460250D03*
X612750Y350250D03*
Y460250D03*
X622750Y350250D03*
Y460250D03*
X632750Y350250D03*
Y460250D03*
X642750Y350250D03*
Y460250D03*
X652750Y350250D03*
Y460250D03*
X662750Y350250D03*
Y460250D03*
X672750Y350250D03*
Y460250D03*
X682750Y350250D03*
Y460250D03*
X692750Y350250D03*
Y460250D03*
X702750Y350250D03*
Y460250D03*
X712750Y350250D03*
Y460250D03*
X722750Y350250D03*
Y440250D03*
Y450250D03*
Y460250D03*
X732750Y350250D03*
Y440250D03*
Y450250D03*
Y460250D03*
X742750Y350250D03*
Y360250D03*
Y370250D03*
Y380250D03*
Y390250D03*
Y400250D03*
Y410250D03*
Y420250D03*
Y430250D03*
Y440250D03*
Y450250D03*
Y460250D03*
X752750Y350250D03*
Y360250D03*
Y370250D03*
Y380250D03*
Y390250D03*
Y400250D03*
Y410250D03*
Y420250D03*
Y430250D03*
Y440250D03*
Y450250D03*
Y460250D03*
D02*
D92*
X147777Y80250D03*
X167723Y532750D03*
X172750Y40250D03*
X177750Y605250D03*
X262750Y40250D03*
X297750Y530250D03*
Y610250D03*
X602750Y290250D03*
Y520250D03*
X672750Y45250D03*
X682750Y290250D03*
Y520250D03*
X702777Y81500D03*
X782750Y45250D03*
X794000Y360250D03*
X870750Y272750D03*
Y325250D03*
Y515250D03*
Y567750D03*
D02*
D93*
X137750Y595250D03*
Y605250D03*
X142750Y30250D03*
Y40250D03*
X147723Y532750D03*
X147750Y595250D03*
Y605250D03*
X152750Y30250D03*
Y40250D03*
X157723Y532750D03*
X157750Y595250D03*
Y605250D03*
X157777Y80250D03*
X162750Y30250D03*
Y40250D03*
X167750Y595250D03*
Y605250D03*
X167777Y80250D03*
X172750Y30250D03*
X177750Y595250D03*
X232750Y30250D03*
Y40250D03*
X242750Y30250D03*
Y40250D03*
X247750Y530250D03*
Y610250D03*
X252750Y30250D03*
Y40250D03*
X257750Y530250D03*
Y610250D03*
X262750Y30250D03*
X267750Y530250D03*
Y610250D03*
X277750Y530250D03*
Y610250D03*
X287750Y530250D03*
Y610250D03*
X612750Y290250D03*
Y520250D03*
X622750Y290250D03*
Y520250D03*
X632750Y290250D03*
Y520250D03*
X642750Y35250D03*
Y45250D03*
Y290250D03*
Y520250D03*
X652750Y35250D03*
Y45250D03*
Y290250D03*
Y520250D03*
X662750Y35250D03*
Y45250D03*
Y290250D03*
Y520250D03*
X672750Y35250D03*
Y290250D03*
Y520250D03*
X692750Y290250D03*
Y520250D03*
X702750Y290250D03*
Y520250D03*
X712750Y290250D03*
Y520250D03*
X712777Y81500D03*
X722750Y290250D03*
Y520250D03*
X722777Y81500D03*
X732750Y290250D03*
Y520250D03*
X742750Y290250D03*
Y520250D03*
X752750Y35250D03*
Y45250D03*
Y290250D03*
Y520250D03*
X762750Y35250D03*
Y45250D03*
X772750Y35250D03*
Y45250D03*
X782750Y35250D03*
X794000Y370250D03*
Y380250D03*
Y390250D03*
Y400250D03*
Y410250D03*
Y420250D03*
Y430250D03*
Y440250D03*
Y450250D03*
X804000Y360250D03*
Y370250D03*
Y380250D03*
Y390250D03*
Y400250D03*
Y410250D03*
Y420250D03*
Y430250D03*
Y440250D03*
Y450250D03*
X870750Y242750D03*
Y252750D03*
Y262750D03*
Y295250D03*
Y305250D03*
Y315250D03*
Y485250D03*
Y495250D03*
Y505250D03*
Y537750D03*
Y547750D03*
Y557750D03*
X880750Y242750D03*
Y252750D03*
Y262750D03*
Y272750D03*
Y295250D03*
Y305250D03*
Y315250D03*
Y325250D03*
Y485250D03*
Y495250D03*
Y505250D03*
Y515250D03*
Y537750D03*
Y547750D03*
Y557750D03*
Y567750D03*
D02*
D94*
X642238Y405250D03*
X722750D03*
D02*
D95*
X27750Y220250D03*
X102750Y392750D03*
X142750Y220250D03*
Y392750D03*
Y560250D03*
X152750Y220250D03*
Y392750D03*
Y560250D03*
X162750Y220250D03*
Y392750D03*
Y560250D03*
X172750Y220250D03*
Y392750D03*
Y560250D03*
X227750Y220250D03*
X290250Y477750D03*
X312750D03*
X317750Y220250D03*
X322750Y477750D03*
X415250Y430240D03*
X447750Y172750D03*
X452750Y455250D03*
X467750Y182750D03*
X500250Y420240D03*
X582750Y220250D03*
X697750D03*
X707750D03*
X717750D03*
X727750D03*
X775250Y440250D03*
X782750Y220250D03*
X847750Y242750D03*
Y295250D03*
Y485250D03*
Y537750D03*
D02*
D96*
X27750Y210250D03*
X102750Y402750D03*
X142750Y210250D03*
Y402750D03*
Y570250D03*
X152750Y210250D03*
Y402750D03*
Y570250D03*
X162750Y210250D03*
Y402750D03*
Y570250D03*
X172750Y210250D03*
Y402750D03*
Y570250D03*
X227750Y210250D03*
X290250Y487750D03*
X312750D03*
X317750Y210250D03*
X322750Y487750D03*
X415250Y420240D03*
X447750Y182750D03*
X462750Y455250D03*
X467750Y172750D03*
X500250Y430240D03*
X582750Y210250D03*
X697750D03*
X707750D03*
X717750D03*
X727750D03*
X775250Y430250D03*
X782750Y210250D03*
X837750Y242750D03*
Y295250D03*
Y485250D03*
Y537750D03*
D02*
D97*
X80183Y600182D03*
X467817Y40318D03*
D02*
D98*
X100183Y600182D03*
X447817Y40318D03*
D02*
D99*
X426156Y312737D03*
Y372750D03*
D02*
D100*
X447764Y432740D03*
X457764D03*
X467764D03*
D02*
D101*
X65250Y220250D03*
Y392750D03*
X252750Y477750D03*
X265250Y220250D03*
X355250D03*
X620250D03*
X820250D03*
D02*
D102*
X35250Y392750D03*
Y402750D03*
X65250Y210250D03*
Y402750D03*
X95250Y210250D03*
Y220250D03*
X222750Y477750D03*
Y487750D03*
X252750D03*
X265250Y210250D03*
X295250D03*
Y220250D03*
X355250Y210250D03*
X385250D03*
Y220250D03*
X620250Y210250D03*
X650250D03*
Y220250D03*
X820250Y210250D03*
X850250D03*
Y220250D03*
D02*
D103*
X28301Y84876D03*
Y104876D03*
Y164876D03*
Y174876D03*
Y184876D03*
X42199Y438124D03*
Y448124D03*
Y508124D03*
Y528124D03*
X88301Y84876D03*
Y104876D03*
Y164876D03*
Y174876D03*
X102199Y428124D03*
Y438124D03*
Y448124D03*
Y508124D03*
Y528124D03*
X228301Y84876D03*
Y104876D03*
Y164876D03*
Y174876D03*
Y184876D03*
X288301Y84876D03*
Y104876D03*
Y164876D03*
Y174876D03*
X318301Y84876D03*
Y104876D03*
Y164876D03*
Y174876D03*
Y184876D03*
X378301Y84876D03*
Y104876D03*
Y164876D03*
Y174876D03*
X583301Y84876D03*
Y104876D03*
Y164876D03*
Y174876D03*
Y184876D03*
X643301Y84876D03*
Y104876D03*
Y164876D03*
Y174876D03*
X783301Y84876D03*
Y104876D03*
Y164876D03*
Y174876D03*
Y184876D03*
X843301Y84876D03*
Y104876D03*
Y164876D03*
Y174876D03*
D02*
D104*
X142750Y507763D03*
X172750Y105237D03*
X727750D03*
D02*
D105*
X142750D03*
Y115237D03*
Y125237D03*
Y135237D03*
Y145237D03*
Y155237D03*
Y165237D03*
Y175237D03*
Y185237D03*
Y427763D03*
Y437763D03*
Y447763D03*
Y457763D03*
Y467763D03*
Y477763D03*
Y487763D03*
Y497763D03*
X172750Y115237D03*
Y125237D03*
Y135237D03*
Y145237D03*
Y155237D03*
Y165237D03*
Y175237D03*
Y185237D03*
Y427763D03*
Y437763D03*
Y447763D03*
Y457763D03*
Y467763D03*
Y477763D03*
Y487763D03*
Y497763D03*
Y507763D03*
X697750Y105237D03*
Y115237D03*
Y125237D03*
Y135237D03*
Y145237D03*
Y155237D03*
Y165237D03*
Y175237D03*
Y185237D03*
X727750Y115237D03*
Y125237D03*
Y135237D03*
Y145237D03*
Y155237D03*
Y165237D03*
Y175237D03*
Y185237D03*
D02*
D106*
X125250Y489207D03*
Y496293D03*
X190250Y116707D03*
Y123793D03*
X745250Y116707D03*
Y123793D03*
D02*
D107*
X110250Y80250D03*
X205250D03*
X665250D03*
X760250D03*
D02*
D108*
X110250Y122376D03*
X205250D03*
X665250D03*
X760250D03*
D02*
D109*
X870730Y450250D03*
D02*
D110*
Y360250D03*
Y370250D03*
Y380250D03*
Y390250D03*
Y400250D03*
Y410250D03*
Y420250D03*
Y430250D03*
Y440250D03*
X880730Y360250D03*
Y370250D03*
Y380250D03*
Y390250D03*
Y400250D03*
Y410250D03*
Y420250D03*
Y430250D03*
Y440250D03*
Y450250D03*
D02*
D111*
X602750Y581750D03*
D02*
D112*
Y591750D03*
X612750Y581750D03*
Y591750D03*
X622750Y581750D03*
Y591750D03*
X632750Y581750D03*
Y591750D03*
X642750Y581750D03*
Y591750D03*
X652750Y581750D03*
Y591750D03*
X662750Y581750D03*
Y591750D03*
X672750Y581750D03*
Y591750D03*
X682750Y581750D03*
Y591750D03*
X692750Y581750D03*
Y591750D03*
X702750Y581750D03*
Y591750D03*
X712750Y581750D03*
Y591750D03*
X722750Y581750D03*
Y591750D03*
X732750Y581750D03*
Y591750D03*
X742750Y581750D03*
Y591750D03*
X752750Y581750D03*
Y591750D03*
X762750Y581750D03*
Y591750D03*
X772750Y581750D03*
Y591750D03*
X782750Y581750D03*
Y591750D03*
X792750Y581750D03*
Y591750D03*
D02*
D113*
X602750Y536844D03*
Y548656D03*
X612750Y536844D03*
Y548656D03*
X622750Y536844D03*
Y548656D03*
X632750Y536844D03*
Y548656D03*
X642750Y536844D03*
Y548656D03*
X652750Y536844D03*
Y548656D03*
X662750Y536844D03*
Y548656D03*
X672750Y536844D03*
Y548656D03*
X682750Y536844D03*
Y548656D03*
X692750Y536844D03*
Y548656D03*
X702750Y536844D03*
Y548656D03*
X712750Y536844D03*
Y548656D03*
X722750Y536844D03*
Y548656D03*
X742750Y536844D03*
Y548656D03*
X752750Y536844D03*
Y548656D03*
D02*
D114*
X826844Y365250D03*
Y375250D03*
Y385250D03*
Y395250D03*
Y405250D03*
Y415250D03*
Y425250D03*
X838656Y365250D03*
Y375250D03*
Y385250D03*
Y395250D03*
Y405250D03*
Y415250D03*
Y425250D03*
D02*
D115*
X530250Y422750D03*
X535250Y417750D03*
Y427750D03*
D02*
D116*
X457750Y110250D03*
Y130093D03*
X0Y0D02*
M02*
