G04 EasyPC Gerber Version 21.0.3 Build 4286 *
%FSLAX35Y35*%
%MOIN*%
%ADD27R,0.04134X0.05906*%
%ADD77R,0.04134X0.07087*%
%ADD22R,0.04213X0.04213*%
%ADD28R,0.04528X0.04528*%
%ADD25R,0.04567X0.04567*%
%ADD74R,0.05020X0.05020*%
%ADD72R,0.05906X0.05906*%
%ADD15R,0.06496X0.06496*%
%ADD18R,0.07677X0.07677*%
%ADD70R,0.08858X0.08858*%
%ADD10C,0.00500*%
%ADD11C,0.01000*%
%ADD80C,0.01500*%
%ADD82C,0.02500*%
%ADD23C,0.04213*%
%ADD79C,0.04331*%
%ADD29C,0.04528*%
%ADD26C,0.04567*%
%ADD13C,0.04800*%
%ADD84C,0.05000*%
%ADD75C,0.05020*%
%ADD21C,0.05039*%
%ADD24C,0.05315*%
%ADD81C,0.05600*%
%ADD78C,0.05669*%
%ADD73C,0.05906*%
%ADD14C,0.06000*%
%ADD20C,0.06260*%
%ADD16C,0.06496*%
%ADD83C,0.07000*%
%ADD19C,0.07677*%
%ADD71C,0.08858*%
%ADD17C,0.09055*%
%ADD12C,0.19800*%
%ADD76R,0.07087X0.04134*%
X0Y0D02*
D02*
D10*
X7750Y632652D02*
Y7750D01*
X907750*
Y632652*
X7750*
X21750Y466550D02*
G75*
G02X22800Y465500J-1050D01*
G01*
Y355000*
G75*
G02X21750Y353950I-1050*
G01*
X15250*
G75*
G02X14200Y355000J1050*
G01*
Y465500*
G75*
G02X15250Y466550I1050*
G01*
X21750*
X21661Y226339D02*
X33839D01*
Y214161*
X32416*
G75*
G02X33839Y210250I-4666J-3911*
G01*
G75*
G02X21661I-6089*
G01*
G75*
G02X23084Y214161I6089*
G01*
X21661*
Y226339*
X28301Y89783D02*
G75*
G02X33209Y84876J-4907D01*
G01*
G75*
G02X28301Y79969I-4907*
G01*
G75*
G02X23394Y84876J4907*
G01*
G75*
G02X28301Y89783I4907*
G01*
X33100Y45250D02*
G75*
G02X57400I12150D01*
G01*
G75*
G02X33100I-12150*
G01*
X28301Y109783D02*
G75*
G02X33209Y104876J-4907D01*
G01*
G75*
G02X28301Y99969I-4907*
G01*
G75*
G02X23394Y104876J4907*
G01*
G75*
G02X28301Y109783I4907*
G01*
Y169783D02*
G75*
G02X33209Y164876J-4907D01*
G01*
G75*
G02X28301Y159969I-4907*
G01*
G75*
G02X23394Y164876J4907*
G01*
G75*
G02X28301Y169783I4907*
G01*
Y179783D02*
G75*
G02X33209Y174876J-4907D01*
G01*
G75*
G02X28301Y169969I-4907*
G01*
G75*
G02X23394Y174876J4907*
G01*
G75*
G02X28301Y179783I4907*
G01*
Y189783D02*
G75*
G02X33209Y184876J-4907D01*
G01*
G75*
G02X28301Y179969I-4907*
G01*
G75*
G02X23394Y184876J4907*
G01*
G75*
G02X28301Y189783I4907*
G01*
X21750Y596550D02*
G75*
G02X22800Y595500J-1050D01*
G01*
Y495000*
G75*
G02X21750Y493950I-1050*
G01*
X15250*
G75*
G02X14200Y495000J1050*
G01*
Y595500*
G75*
G02X15250Y596550I1050*
G01*
X21750*
X495304Y433790D02*
G75*
G02X506339Y430240I4946J-3550D01*
G01*
G75*
G02X504916Y426329I-6089*
G01*
X506339*
Y414152*
X494161*
Y416690*
X446711*
X429706Y399685*
Y376793*
G75*
G02X429957Y368944I-3550J-4043*
G01*
Y345388*
G75*
G02X429800Y339904I-3707J-2638*
G01*
Y323750*
G75*
G02X428758Y321238I-3550*
G01*
X425610Y318090*
G75*
G02X428468Y317595I545J-5352*
G01*
X435950Y325078*
Y357307*
G75*
G02Y363193I1800J2943*
G01*
Y369871*
G75*
G02Y375758I1800J2943*
G01*
Y387370*
G75*
G02X434300Y390314I1800J2943*
G01*
G75*
G02X441200I3450*
G01*
G75*
G02X439550Y387370I-3450*
G01*
Y375758*
G75*
G02Y369871I-1800J-2943*
G01*
Y363193*
G75*
G02Y357307I-1800J-2943*
G01*
Y324332*
G75*
G02X439021Y323057I-1800*
G01*
X431013Y315050*
G75*
G02X431535Y312737I-4858J-2312*
G01*
G75*
G02X420776I-5380*
G01*
G75*
G02X420803Y313283I5378J2*
G01*
X388800Y281280*
Y222775*
G75*
G02X385250Y215894I-3550J-2525*
G01*
G75*
G02X381700Y222775J4356*
G01*
Y239200*
X298800*
Y222775*
G75*
G02X295250Y215894I-3550J-2525*
G01*
G75*
G02X291700Y222775J4356*
G01*
Y239200*
X104220*
X98800Y233780*
Y222775*
G75*
G02X95250Y215894I-3550J-2525*
G01*
G75*
G02X91700Y222775J4356*
G01*
Y235250*
G75*
G02X92742Y237762I3550*
G01*
X97730Y242750*
X92742Y247738*
G75*
G02X91700Y250250I2508J2512*
G01*
Y368780*
X86280Y374200*
X42750*
G75*
G02X40238Y375242J3550*
G01*
X32742Y382738*
G75*
G02X31700Y385250I2508J2512*
G01*
Y390225*
G75*
G02X35250Y397106I3550J2525*
G01*
G75*
G02X38800Y390225J-4356*
G01*
Y386720*
X44220Y381300*
X87750*
G75*
G02X90262Y380258J-3550*
G01*
X97758Y372762*
G75*
G02X98800Y370250I-2508J-2512*
G01*
Y251720*
X104220Y246300*
X381700*
Y282750*
G75*
G02X382742Y285262I3550*
G01*
X416622Y319143*
G75*
G02X412793Y325691I-1345J3607*
G01*
Y414670*
G75*
G02X409675Y417793I2457J5570*
G01*
X321964*
G75*
G02X315191Y420807I-2964J2457*
G01*
X285709Y450288*
G75*
G02X278900Y452750I-2959J2462*
G01*
G75*
G02X285837Y455050I3850*
G01*
X286498*
G75*
G02X288126Y454376I2J-2300*
G01*
X318443Y424059*
G75*
G02X321964Y422707I557J-3809*
G01*
X409684*
G75*
G02X410584Y424152I5566J-2467*
G01*
X409161*
Y436329*
X421339*
Y433790*
X431280*
X432738Y435248*
G75*
G02X435250Y436290I2512J-2508*
G01*
X444578*
G75*
G02X452533Y432740I3185J-3550*
G01*
G75*
G02X444578Y429190I-4770*
G01*
X436720*
X435262Y427732*
G75*
G02X432750Y426690I-2512J2508*
G01*
X421339*
Y424152*
X419916*
G75*
G02X417707Y414670I-4666J-3911*
G01*
Y325736*
G75*
G02X418885Y321405I-2430J-2986*
G01*
X422700Y325220*
Y339904*
G75*
G02X422543Y345388I3550J2846*
G01*
Y368764*
G75*
G02X422606Y376793I3613J3986*
G01*
Y401156*
G75*
G02X423647Y403668I3550*
G01*
X442728Y422748*
G75*
G02X445240Y423790I2512J-2508*
G01*
X494161*
Y426329*
X495584*
G75*
G02X495304Y426690I4667J3909*
G01*
X485250*
G75*
G02X482738Y427732J3550*
G01*
X481280Y429190*
X470949*
G75*
G02X462994Y432740I-3185J3550*
G01*
G75*
G02X470949Y436290I4770*
G01*
X482750*
G75*
G02X485262Y435248J-3550*
G01*
X486720Y433790*
X495304*
X348100Y280250D02*
G75*
G02X372400I12150D01*
G01*
G75*
G02X348100I-12150*
G01*
Y360250D02*
G75*
G02X372400I12150D01*
G01*
G75*
G02X348100I-12150*
G01*
X461661Y188839D02*
X473839D01*
Y176661*
X472416*
G75*
G02X473839Y172750I-4666J-3911*
G01*
G75*
G02X461661I-6089*
G01*
G75*
G02X463084Y176661I6089*
G01*
X461661*
Y188839*
X441661Y182750D02*
G75*
G02X453839I6089D01*
G01*
G75*
G02X452416Y178839I-6089*
G01*
X453839*
Y166661*
X441661*
Y178839*
X443084*
G75*
G02X441661Y182750I4666J3911*
G01*
X453335Y110250D02*
G75*
G02X462165I4415D01*
G01*
G75*
G02X453335I-4415*
G01*
X461138Y46998D02*
X474496D01*
Y33640*
X461138*
Y46998*
X453335Y130093D02*
G75*
G02X462165I4415D01*
G01*
G75*
G02X453335I-4415*
G01*
X441138Y40318D02*
G75*
G02X454496I6679D01*
G01*
G75*
G02X441138I-6679*
G01*
X311661Y226339D02*
X323839D01*
Y214161*
X322416*
G75*
G02X323839Y210250I-4666J-3911*
G01*
G75*
G02X311661I-6089*
G01*
G75*
G02X313084Y214161I6089*
G01*
X311661*
Y226339*
X318301Y89783D02*
G75*
G02X323209Y84876J-4907D01*
G01*
G75*
G02X318301Y79969I-4907*
G01*
G75*
G02X313394Y84876J4907*
G01*
G75*
G02X318301Y89783I4907*
G01*
Y109783D02*
G75*
G02Y99969J-4907D01*
G01*
G75*
G02X313394Y104876J4907*
G01*
G75*
G02X318301Y109783I4907*
G01*
Y169783D02*
G75*
G02X323209Y164876J-4907D01*
G01*
G75*
G02X318301Y159969I-4907*
G01*
G75*
G02X313394Y164876J4907*
G01*
G75*
G02X318301Y169783I4907*
G01*
Y179783D02*
G75*
G02X323209Y174876J-4907D01*
G01*
G75*
G02X318301Y169969I-4907*
G01*
G75*
G02X313394Y174876J4907*
G01*
G75*
G02X318301Y179783I4907*
G01*
Y189783D02*
G75*
G02Y179969J-4907D01*
G01*
G75*
G02X313394Y184876J4907*
G01*
G75*
G02X318301Y189783I4907*
G01*
X348100Y45250D02*
G75*
G02X372400I12150D01*
G01*
G75*
G02X348100I-12150*
G01*
X355250Y214606D02*
G75*
G02X359606Y210250J-4356D01*
G01*
G75*
G02X355250Y205894I-4356*
G01*
G75*
G02X350894Y210250J4356*
G01*
G75*
G02X355250Y214606I4356*
G01*
X350894Y224606D02*
X359606D01*
Y215894*
X350894*
Y224606*
X378301Y89783D02*
G75*
G02X383209Y84876J-4907D01*
G01*
G75*
G02X378301Y79969I-4907*
G01*
G75*
G02X373394Y84876J4907*
G01*
G75*
G02X378301Y89783I4907*
G01*
Y109783D02*
G75*
G02X383209Y104876J-4907D01*
G01*
G75*
G02X378301Y99969I-4907*
G01*
G75*
G02X373394Y104876J4907*
G01*
G75*
G02X378301Y109783I4907*
G01*
Y169783D02*
G75*
G02X383209Y164876J-4907D01*
G01*
G75*
G02X378301Y159969I-4907*
G01*
G75*
G02X373394Y164876J4907*
G01*
G75*
G02X378301Y169783I4907*
G01*
Y179783D02*
G75*
G02X383209Y174876J-4907D01*
G01*
G75*
G02X378301Y169969I-4907*
G01*
G75*
G02X373394Y174876J4907*
G01*
G75*
G02X378301Y179783I4907*
G01*
X385250Y214606D02*
G75*
G02X389606Y210250J-4356D01*
G01*
G75*
G02X385250Y205894I-4356*
G01*
G75*
G02X380894Y210250J4356*
G01*
G75*
G02X385250Y214606I4356*
G01*
X105736Y84764D02*
X114764D01*
Y75736*
X105736*
Y84764*
Y122376D02*
G75*
G02X114764I4514D01*
G01*
G75*
G02X105736I-4514*
G01*
X136661Y226339D02*
X178839D01*
Y214161*
X177416*
G75*
G02X178839Y210250I-4666J-3911*
G01*
G75*
G02X167750Y206776I-6089*
G01*
G75*
G02X157750I-5000J3474*
G01*
G75*
G02X147750I-5000J3474*
G01*
G75*
G02X136661Y210250I-5000J3474*
G01*
G75*
G02X138084Y214161I6089*
G01*
X136661*
Y226339*
X168217Y109770D02*
X177283D01*
Y100703*
X168217*
Y109770*
Y115237D02*
G75*
G02X177283I4533D01*
G01*
G75*
G02X168217I-4533*
G01*
X265906Y34752D02*
G75*
G02X262750Y24752I-3156J-4502D01*
G01*
G75*
G02X257750Y27963J5498*
G01*
G75*
G02X247750I-5000J2287*
G01*
G75*
G02X237750I-5000J2287*
G01*
G75*
G02X227252Y30250I-5000J2287*
G01*
G75*
G02X230463Y35250I5498*
G01*
G75*
G02X232750Y45748I2287J5000*
G01*
G75*
G02X237750Y42537J-5498*
G01*
G75*
G02X244938Y45294I5000J-2287*
G01*
X244439Y45793*
X222750*
G75*
G02X221363Y46368J1958*
G01*
X195118Y72613*
G75*
G02X194543Y74000I1382J1387*
G01*
Y111504*
X185933*
Y122903*
X184497Y123280*
X176839*
G75*
G02X168217Y125237I-4089J1957*
G01*
G75*
G02X176839Y127195I4533*
G01*
X184749*
G75*
G02X185247Y127131I1J-1959*
G01*
X185933Y126951*
Y128996*
X194543*
Y150689*
X174258Y170962*
G75*
G02X168217Y175237I-1508J4275*
G01*
G75*
G02X177283I4533*
G01*
G75*
G02X177026Y173731I-4534*
G01*
X197884Y152885*
G75*
G02X198293Y152287I-1384J-1384*
G01*
Y156939*
X174267Y180965*
G75*
G02X168217Y185237I-1517J4272*
G01*
G75*
G02X177283I4533*
G01*
G75*
G02X177029Y183739I-4534J0*
G01*
X201632Y159137*
G75*
G02X202207Y157750I-1382J-1387*
G01*
Y125710*
G75*
G02X209764Y122376I3043J-3334*
G01*
G75*
G02X202207Y119042I-4514*
G01*
Y84764*
X209764*
Y75736*
X203782*
X226061Y53457*
X251497*
G75*
G02X252884Y52884I4J-1957*
G01*
X260020Y45748*
X268248*
Y34752*
X265906*
X168217Y135237D02*
G75*
G02X177283I4533D01*
G01*
G75*
G02X168217I-4533*
G01*
Y145237D02*
G75*
G02X177283I4533D01*
G01*
G75*
G02X168217I-4533*
G01*
Y155237D02*
G75*
G02X177283I4533D01*
G01*
G75*
G02X168217I-4533*
G01*
Y165237D02*
G75*
G02X177283I4533D01*
G01*
G75*
G02X168217I-4533*
G01*
X175906Y34752D02*
G75*
G02X172750Y24752I-3156J-4502D01*
G01*
G75*
G02X167750Y27963J5498*
G01*
G75*
G02X157750I-5000J2287*
G01*
G75*
G02X147750I-5000J2287*
G01*
G75*
G02X137252Y30250I-5000J2287*
G01*
G75*
G02X140463Y35250I5498*
G01*
G75*
G02X142750Y45748I2287J5000*
G01*
G75*
G02X147750Y42537J-5498*
G01*
G75*
G02X152750Y45748I5000J-2287*
G01*
G75*
G02X153257Y45724I-2J-5498*
G01*
X151366Y47616*
G75*
G02X150793Y49000I1384J1384*
G01*
G75*
G02Y49001I654J0*
G01*
G75*
G02Y49003I663J1*
G01*
Y74752*
X142278*
Y85748*
X150793*
Y124439*
X144260Y130963*
G75*
G02X138217Y135237I-1510J4274*
G01*
G75*
G02X147283I4533*
G01*
G75*
G02X147026Y133733I-4534J0*
G01*
X154133Y126635*
G75*
G02X154707Y125250I-1383J-1385*
G01*
Y84811*
G75*
G02X160793Y84847I3069J-4561*
G01*
Y124439*
X158868Y126363*
G75*
G02X158867Y126365I471J378*
G01*
X144259Y140962*
G75*
G02X138217Y145237I-1509J4275*
G01*
G75*
G02X147283I4533*
G01*
G75*
G02X147026Y143731I-4534J0*
G01*
X161633Y129135*
G75*
G02X161637Y129132I-1004J-1151*
G01*
X164132Y126637*
G75*
G02X164707Y125250I-1382J-1387*
G01*
Y84811*
G75*
G02X173275Y80250I3069J-4561*
G01*
G75*
G02X164707Y75689I-5498*
G01*
Y51061*
X170020Y45748*
X178248*
Y34752*
X175906*
X138217Y105237D02*
G75*
G02X147283I4533D01*
G01*
G75*
G02X138217I-4533*
G01*
Y115237D02*
G75*
G02X147283I4533D01*
G01*
G75*
G02X138217I-4533*
G01*
Y125237D02*
G75*
G02X147283I4533D01*
G01*
G75*
G02X138217I-4533*
G01*
Y155237D02*
G75*
G02X147283I4533D01*
G01*
G75*
G02X138217I-4533*
G01*
Y165237D02*
G75*
G02X147283I4533D01*
G01*
G75*
G02X138217I-4533*
G01*
Y175237D02*
G75*
G02X147283I4533D01*
G01*
G75*
G02X138217I-4533*
G01*
X152409Y187207D02*
G75*
G02X158700Y185250I2841J-1957D01*
G01*
G75*
G02X152409Y183293I-3450*
G01*
X146845*
G75*
G02X138217Y185237I-4095J1945*
G01*
G75*
G02X146833Y187207I4533*
G01*
X152409*
X221661Y226339D02*
X233839D01*
Y214161*
X232416*
G75*
G02X233839Y210250I-4666J-3911*
G01*
G75*
G02X221661I-6089*
G01*
G75*
G02X223084Y214161I6089*
G01*
X221661*
Y226339*
X228301Y89783D02*
G75*
G02X233209Y84876J-4907D01*
G01*
G75*
G02X228301Y79969I-4907*
G01*
G75*
G02X223394Y84876J4907*
G01*
G75*
G02X228301Y89783I4907*
G01*
Y109783D02*
G75*
G02Y99969J-4907D01*
G01*
G75*
G02X223394Y104876J4907*
G01*
G75*
G02X228301Y109783I4907*
G01*
Y169783D02*
G75*
G02X233209Y164876J-4907D01*
G01*
G75*
G02X228301Y159969I-4907*
G01*
G75*
G02X223394Y164876J4907*
G01*
G75*
G02X228301Y169783I4907*
G01*
Y179783D02*
G75*
G02X233209Y174876J-4907D01*
G01*
G75*
G02X228301Y169969I-4907*
G01*
G75*
G02X223394Y174876J4907*
G01*
G75*
G02X228301Y179783I4907*
G01*
Y189783D02*
G75*
G02X233209Y184876J-4907D01*
G01*
G75*
G02X228301Y179969I-4907*
G01*
G75*
G02X223394Y184876J4907*
G01*
G75*
G02X228301Y189783I4907*
G01*
X265250Y214606D02*
G75*
G02X269606Y210250J-4356D01*
G01*
G75*
G02X265250Y205894I-4356*
G01*
G75*
G02X260894Y210250J4356*
G01*
G75*
G02X265250Y214606I4356*
G01*
X260894Y224606D02*
X269606D01*
Y215894*
X260894*
Y224606*
X288301Y89783D02*
G75*
G02X293209Y84876J-4907D01*
G01*
G75*
G02X288301Y79969I-4907*
G01*
G75*
G02X283394Y84876J4907*
G01*
G75*
G02X288301Y89783I4907*
G01*
Y109783D02*
G75*
G02X293209Y104876J-4907D01*
G01*
G75*
G02X288301Y99969I-4907*
G01*
G75*
G02X283394Y104876J4907*
G01*
G75*
G02X288301Y109783I4907*
G01*
Y169783D02*
G75*
G02X293209Y164876J-4907D01*
G01*
G75*
G02X288301Y159969I-4907*
G01*
G75*
G02X283394Y164876J4907*
G01*
G75*
G02X288301Y169783I4907*
G01*
Y179783D02*
G75*
G02X293209Y174876J-4907D01*
G01*
G75*
G02X288301Y169969I-4907*
G01*
G75*
G02X283394Y174876J4907*
G01*
G75*
G02X288301Y179783I4907*
G01*
X295250Y214606D02*
G75*
G02X299606Y210250J-4356D01*
G01*
G75*
G02X295250Y205894I-4356*
G01*
G75*
G02X290894Y210250J4356*
G01*
G75*
G02X295250Y214606I4356*
G01*
X95250D02*
G75*
G02X99606Y210250J-4356D01*
G01*
G75*
G02X95250Y205894I-4356*
G01*
G75*
G02X90894Y210250J4356*
G01*
G75*
G02X95250Y214606I4356*
G01*
X65250D02*
G75*
G02X69606Y210250J-4356D01*
G01*
G75*
G02X65250Y205894I-4356*
G01*
G75*
G02X60894Y210250J4356*
G01*
G75*
G02X65250Y214606I4356*
G01*
X60894Y224606D02*
X69606D01*
Y215894*
X60894*
Y224606*
X88301Y89783D02*
G75*
G02X93209Y84876J-4907D01*
G01*
G75*
G02X88301Y79969I-4907*
G01*
G75*
G02X83394Y84876J4907*
G01*
G75*
G02X88301Y89783I4907*
G01*
Y109783D02*
G75*
G02X93209Y104876J-4907D01*
G01*
G75*
G02X88301Y99969I-4907*
G01*
G75*
G02X83394Y104876J4907*
G01*
G75*
G02X88301Y109783I4907*
G01*
Y169783D02*
G75*
G02X93209Y164876J-4907D01*
G01*
G75*
G02X88301Y159969I-4907*
G01*
G75*
G02X83394Y164876J4907*
G01*
G75*
G02X88301Y169783I4907*
G01*
Y179783D02*
G75*
G02X93209Y174876J-4907D01*
G01*
G75*
G02X88301Y169969I-4907*
G01*
G75*
G02X83394Y174876J4907*
G01*
G75*
G02X88301Y179783I4907*
G01*
X33100Y280250D02*
G75*
G02X57400I12150D01*
G01*
G75*
G02X33100I-12150*
G01*
Y360250D02*
G75*
G02X57400I12150D01*
G01*
G75*
G02X33100I-12150*
G01*
X35250Y407106D02*
G75*
G02X39606Y402750J-4356D01*
G01*
G75*
G02X35250Y398394I-4356*
G01*
G75*
G02X30894Y402750J4356*
G01*
G75*
G02X35250Y407106I4356*
G01*
X33100Y595250D02*
G75*
G02X57400I12150D01*
G01*
G75*
G02X33100I-12150*
G01*
X42199Y443031D02*
G75*
G02X47106Y438124J-4907D01*
G01*
G75*
G02X42199Y433217I-4907*
G01*
G75*
G02X37291Y438124J4907*
G01*
G75*
G02X42199Y443031I4907*
G01*
Y453031D02*
G75*
G02X47106Y448124J-4907D01*
G01*
G75*
G02X42199Y443217I-4907*
G01*
G75*
G02X37291Y448124J4907*
G01*
G75*
G02X42199Y453031I4907*
G01*
Y513031D02*
G75*
G02X47106Y508124J-4907D01*
G01*
G75*
G02X42199Y503217I-4907*
G01*
G75*
G02X37291Y508124J4907*
G01*
G75*
G02X42199Y513031I4907*
G01*
Y533031D02*
G75*
G02Y523217J-4907D01*
G01*
G75*
G02X37291Y528124J4907*
G01*
G75*
G02X42199Y533031I4907*
G01*
X65250Y407106D02*
G75*
G02X69606Y402750J-4356D01*
G01*
G75*
G02X65250Y398394I-4356*
G01*
G75*
G02X60894Y402750J4356*
G01*
G75*
G02X65250Y407106I4356*
G01*
X60894Y397106D02*
X69606D01*
Y388394*
X60894*
Y397106*
X73504Y606860D02*
X86862D01*
Y593502*
X73504*
Y606860*
X93504Y600182D02*
G75*
G02X106862I6679D01*
G01*
G75*
G02X93504I-6679*
G01*
X96661Y402750D02*
G75*
G02X108839I6089D01*
G01*
G75*
G02X107416Y398839I-6089*
G01*
X108839*
Y386661*
X96661*
Y398839*
X98084*
G75*
G02X96661Y402750I4666J3911*
G01*
X102199Y433031D02*
G75*
G02X107106Y428124J-4907D01*
G01*
G75*
G02X102199Y423217I-4907*
G01*
G75*
G02X97291Y428124J4907*
G01*
G75*
G02X102199Y433031I4907*
G01*
Y443031D02*
G75*
G02X107106Y438124J-4907D01*
G01*
G75*
G02X102199Y433217I-4907*
G01*
G75*
G02X97291Y438124J4907*
G01*
G75*
G02X102199Y443031I4907*
G01*
Y453031D02*
G75*
G02X107106Y448124J-4907D01*
G01*
G75*
G02X102199Y443217I-4907*
G01*
G75*
G02X97291Y448124J4907*
G01*
G75*
G02X102199Y453031I4907*
G01*
Y513031D02*
G75*
G02X107106Y508124J-4907D01*
G01*
G75*
G02X102199Y503217I-4907*
G01*
G75*
G02X97291Y508124J4907*
G01*
G75*
G02X102199Y513031I4907*
G01*
Y533031D02*
G75*
G02Y523217J-4907D01*
G01*
G75*
G02X97291Y528124J4907*
G01*
G75*
G02X102199Y533031I4907*
G01*
X180906Y599752D02*
G75*
G02X177750Y589752I-3156J-4502D01*
G01*
G75*
G02X174550Y590779J5498*
G01*
Y576067*
G75*
G02X177416Y566339I-1800J-5817*
G01*
X178839*
Y554161*
X174550*
Y515996*
X179021Y511524*
G75*
G02X179550Y510250I-1272J-1274*
G01*
Y472750*
G75*
G02X179015Y471470I-1800J0*
G01*
X177769Y470237*
X176965Y469432*
G75*
G02X172750Y463229I-4215J-1669*
G01*
G75*
G02Y472296J4533*
G01*
G75*
G02X174419Y471978J-4533*
G01*
X175226Y472784*
G75*
G02X175234Y472792I1218J-1274*
G01*
X175950Y473501*
Y474551*
G75*
G02X168471Y479261I-3200J3211*
G01*
X161366Y486366*
G75*
G02X160793Y487750I1384J1384*
G01*
G75*
G02Y487751I654J0*
G01*
G75*
G02Y487753I663J1*
G01*
Y528189*
G75*
G02X154707Y528153I-3069J4561*
G01*
Y437750*
G75*
G02X154133Y436365I-1957J0*
G01*
X148461Y430700*
G75*
G02X151058Y431104I1789J-2950*
G01*
X168248Y448293*
G75*
G02X177283Y447763I4502J-531*
G01*
G75*
G02X169574Y444528I-4533*
G01*
X153604Y428558*
G75*
G02X147074Y426402I-3354J-808*
G01*
G75*
G02X138217Y427763I-4324J1361*
G01*
G75*
G02X144260Y432037I4533J0*
G01*
X150793Y438561*
Y528189*
G75*
G02X144707Y528153I-3069J4561*
G01*
Y523049*
X149134Y518622*
G75*
G02X149707Y517238I-1384J-1384*
G01*
G75*
G02Y517237I-654J0*
G01*
G75*
G02Y517235I-663J-1*
G01*
Y442750*
G75*
G02X149132Y441363I-1958*
G01*
X147884Y440116*
G75*
G02X147881Y440113I-745J867*
G01*
X147028Y439263*
G75*
G02X142750Y433229I-4278J-1500*
G01*
G75*
G02Y442296J4533*
G01*
G75*
G02X144265Y442035I0J-4534*
G01*
X145117Y442885*
X145793Y443561*
Y444402*
G75*
G02X138217Y447763I-3043J3361*
G01*
G75*
G02X145793Y451124I4533*
G01*
Y454402*
G75*
G02X138217Y457763I-3043J3361*
G01*
G75*
G02X145793Y461124I4533*
G01*
Y464402*
G75*
G02X138217Y467763I-3043J3361*
G01*
G75*
G02X145793Y471124I4533*
G01*
Y474402*
G75*
G02X138217Y477763I-3043J3361*
G01*
G75*
G02X145793Y481124I4533*
G01*
Y484402*
G75*
G02X138661Y485805I-3043J3361*
G01*
X129567*
Y484004*
X120933*
Y501496*
X129567*
Y489720*
X138661*
G75*
G02X145793Y491124I4089J-1957*
G01*
Y494402*
G75*
G02X138217Y497763I-3043J3361*
G01*
G75*
G02X145793Y501124I4533*
G01*
Y503230*
X138217*
Y512297*
X145793*
Y516428*
X141366Y520854*
G75*
G02X140793Y522238I1384J1384*
G01*
G75*
G02Y522239I654J0*
G01*
G75*
G02Y522241I663J1*
G01*
Y554161*
X136661*
Y566339*
X138084*
G75*
G02X136661Y570250I4666J3911*
G01*
G75*
G02X147750Y573724I6089*
G01*
G75*
G02X157750I5000J-3474*
G01*
G75*
G02X160950Y576067I5000J-3474*
G01*
Y590779*
G75*
G02X152750Y592963I-3200J4471*
G01*
G75*
G02X142750I-5000J2287*
G01*
G75*
G02X132252Y595250I-5000J2287*
G01*
G75*
G02X135463Y600250I5498*
G01*
G75*
G02X137750Y610748I2287J5000*
G01*
G75*
G02X142750Y607537J-5498*
G01*
G75*
G02X152750I5000J-2287*
G01*
G75*
G02X162750I5000J-2287*
G01*
G75*
G02X172252Y608406I5000J-2287*
G01*
Y610748*
X183248*
Y599752*
X180906*
X168217Y457763D02*
G75*
G02X177283I4533D01*
G01*
G75*
G02X168217I-4533*
G01*
X168655Y429707D02*
G75*
G02X177283Y427763I4095J-1945D01*
G01*
G75*
G02X168667Y425793I-4533*
G01*
X163091*
G75*
G02X156800Y427750I-2841J1957*
G01*
G75*
G02X163091Y429707I3450*
G01*
X168655*
X168217Y437763D02*
G75*
G02X177283I4533D01*
G01*
G75*
G02X168217I-4533*
G01*
X167750Y406224D02*
G75*
G02X178839Y402750I5000J-3474D01*
G01*
G75*
G02X177416Y398839I-6089*
G01*
X178839*
Y386661*
X136661*
Y398839*
X138084*
G75*
G02X136661Y402750I4666J3911*
G01*
G75*
G02X147750Y406224I6089*
G01*
G75*
G02X157750I5000J-3474*
G01*
G75*
G02X167750I5000J-3474*
G01*
X222750Y482106D02*
G75*
G02X227106Y477750J-4356D01*
G01*
G75*
G02X222750Y473394I-4356*
G01*
G75*
G02X218394Y477750J4356*
G01*
G75*
G02X222750Y482106I4356*
G01*
Y492106D02*
G75*
G02X227106Y487750J-4356D01*
G01*
G75*
G02X222750Y483394I-4356*
G01*
G75*
G02X218394Y487750J4356*
G01*
G75*
G02X222750Y492106I4356*
G01*
X223500Y595250D02*
G75*
G02X242000I9250D01*
G01*
G75*
G02X223500I-9250*
G01*
X277307Y344550D02*
G75*
G02X283700Y342750I2943J-1800D01*
G01*
G75*
G02X277307Y340950I-3450*
G01*
X236943*
G75*
G02X230550Y342750I-2943J1800*
G01*
G75*
G02X236943Y344550I3450*
G01*
X277307*
X292252Y535748D02*
X303248D01*
Y524752*
X292252*
Y527094*
G75*
G02X282750Y527963I-4502J3156*
G01*
G75*
G02X272750I-5000J2287*
G01*
G75*
G02X262750I-5000J2287*
G01*
G75*
G02X252750I-5000J2287*
G01*
G75*
G02X242252Y530250I-5000J2287*
G01*
G75*
G02X252750Y532537I5498*
G01*
G75*
G02X262750I5000J-2287*
G01*
G75*
G02X272750I5000J-2287*
G01*
G75*
G02X282750I5000J-2287*
G01*
G75*
G02X292252Y533406I5000J-2287*
G01*
Y535748*
X284161Y487750D02*
G75*
G02X296339I6089D01*
G01*
G75*
G02X294916Y483839I-6089*
G01*
X296339*
Y471661*
X284161*
Y483839*
X285584*
G75*
G02X284161Y487750I4666J3911*
G01*
X252750Y492106D02*
G75*
G02X257106Y487750J-4356D01*
G01*
G75*
G02X252750Y483394I-4356*
G01*
G75*
G02X248394Y487750J4356*
G01*
G75*
G02X252750Y492106I4356*
G01*
X248394Y482106D02*
X257106D01*
Y473394*
X248394*
Y482106*
X292252Y615748D02*
X303248D01*
Y604752*
X292252*
Y607094*
G75*
G02X282750Y607963I-4502J3156*
G01*
G75*
G02X272750I-5000J2287*
G01*
G75*
G02X262750I-5000J2287*
G01*
G75*
G02X252750I-5000J2287*
G01*
G75*
G02X242252Y610250I-5000J2287*
G01*
G75*
G02X252750Y612537I5498*
G01*
G75*
G02X262750I5000J-2287*
G01*
G75*
G02X272750I5000J-2287*
G01*
G75*
G02X282750I5000J-2287*
G01*
G75*
G02X292252Y613406I5000J-2287*
G01*
Y615748*
X303500Y595250D02*
G75*
G02X322000I9250D01*
G01*
G75*
G02X303500I-9250*
G01*
X356942Y438604D02*
G75*
G02X361200Y435250I808J-3354D01*
G01*
G75*
G02X354300I-3450*
G01*
G75*
G02X354396Y436058I3450*
G01*
X321479Y468976*
G75*
G02X320950Y470250I1272J1274*
G01*
Y471661*
X316384*
X356942Y431104*
G75*
G02X361200Y427750I808J-3354*
G01*
G75*
G02X354300I-3450*
G01*
G75*
G02X354396Y428558I3450*
G01*
X311479Y471476*
G75*
G02X311317Y471661I1272J1274*
G01*
X306661*
Y483839*
X308084*
G75*
G02X306661Y487750I4666J3911*
G01*
G75*
G02X317750Y491224I6089*
G01*
G75*
G02X328839Y487750I5000J-3474*
G01*
G75*
G02X327416Y483839I-6089*
G01*
X328839*
Y471661*
X324550*
Y470996*
X356942Y438604*
X348100Y595250D02*
G75*
G02X372400I12150D01*
G01*
G75*
G02X348100I-12150*
G01*
X458839Y459916D02*
G75*
G02X468839Y455250I3911J-4666D01*
G01*
G75*
G02X458839Y450584I-6089*
G01*
Y449161*
X446661*
Y461339*
X458839*
Y459916*
X452994Y432740D02*
G75*
G02X462533I4770D01*
G01*
G75*
G02X452994I-4770*
G01*
X530166Y427834D02*
G75*
G02X540335Y427750I5084J-84D01*
G01*
G75*
G02X536174Y422750I-5085*
G01*
G75*
G02X540335Y417750I-924J-5000*
G01*
G75*
G02X530166Y417666I-5085*
G01*
G75*
G02Y427834I84J5084*
G01*
X543100Y45250D02*
G75*
G02X567400I12150D01*
G01*
G75*
G02X543100I-12150*
G01*
Y595250D02*
G75*
G02X567400I12150D01*
G01*
G75*
G02X543100I-12150*
G01*
X576661Y226339D02*
X588839D01*
Y214161*
X587416*
G75*
G02X588839Y210250I-4666J-3911*
G01*
G75*
G02X576661I-6089*
G01*
G75*
G02X578084Y214161I6089*
G01*
X576661*
Y226339*
X583301Y89783D02*
G75*
G02X588209Y84876J-4907D01*
G01*
G75*
G02X583301Y79969I-4907*
G01*
G75*
G02X578394Y84876J4907*
G01*
G75*
G02X583301Y89783I4907*
G01*
Y109783D02*
G75*
G02X588209Y104876J-4907D01*
G01*
G75*
G02X583301Y99969I-4907*
G01*
G75*
G02X578394Y104876J4907*
G01*
G75*
G02X583301Y109783I4907*
G01*
Y169783D02*
G75*
G02X588209Y164876J-4907D01*
G01*
G75*
G02X583301Y159969I-4907*
G01*
G75*
G02X578394Y164876J4907*
G01*
G75*
G02X583301Y169783I4907*
G01*
Y179783D02*
G75*
G02X588209Y174876J-4907D01*
G01*
G75*
G02X583301Y169969I-4907*
G01*
G75*
G02X578394Y174876J4907*
G01*
G75*
G02X583301Y179783I4907*
G01*
Y189783D02*
G75*
G02X588209Y184876J-4907D01*
G01*
G75*
G02X583301Y179969I-4907*
G01*
G75*
G02X578394Y184876J4907*
G01*
G75*
G02X583301Y189783I4907*
G01*
X897831Y482831D02*
G75*
G02X898900Y480250I-2581J-2581D01*
G01*
Y252750*
G75*
G02X897831Y250169I-3650J0*
G01*
X887831Y240169*
G75*
G02X885246Y239100I-2581J2581*
G01*
X884862*
G75*
G02X875750Y240463I-4112J3650*
G01*
G75*
G02X865252Y242750I-5000J2287*
G01*
G75*
G02X868463Y247750I5498*
G01*
G75*
G02Y257750I2287J5000*
G01*
G75*
G02X867594Y267252I2287J5000*
G01*
X865252*
Y278248*
X875231*
X874280Y279200*
X760250*
G75*
G02X757738Y280242J3550*
G01*
X756300Y281680*
Y236300*
X837750*
G75*
G02X840262Y235258J-3550*
G01*
X850975Y224546*
G75*
G02X850250Y215894I-725J-4296*
G01*
G75*
G02X845954Y219525J4356*
G01*
X836280Y229200*
X664220*
X654546Y219525*
G75*
G02X645894Y220250I-4296J725*
G01*
G75*
G02X649525Y224546I4356*
G01*
X660238Y235258*
G75*
G02X662750Y236300I2512J-2508*
G01*
X749200*
Y286052*
G75*
G02X747750Y287963I3550J4198*
G01*
G75*
G02X737750I-5000J2287*
G01*
G75*
G02X727750I-5000J2287*
G01*
G75*
G02X717750I-5000J2287*
G01*
G75*
G02X707750I-5000J2287*
G01*
G75*
G02X697750I-5000J2287*
G01*
G75*
G02X688248Y287094I-5000J2287*
G01*
Y284752*
X677252*
Y287094*
G75*
G02X667750Y287963I-4502J3156*
G01*
G75*
G02X657750I-5000J2287*
G01*
G75*
G02X647750I-5000J2287*
G01*
G75*
G02X637750I-5000J2287*
G01*
G75*
G02X627750I-5000J2287*
G01*
G75*
G02X617750I-5000J2287*
G01*
G75*
G02X608248Y287094I-5000J2287*
G01*
Y284752*
X597252*
Y295748*
X600950*
Y345318*
G75*
G02X597990Y352465I1800J4932*
G01*
X593979Y356476*
G75*
G02X593450Y357750I1272J1274*
G01*
Y525250*
G75*
G02X593979Y526524I1800*
G01*
X599982Y532528*
X596957*
Y541161*
X728543*
Y532528*
X724536*
G75*
G02X724021Y531476I-1787J222*
G01*
X719550Y527004*
Y524721*
G75*
G02X727750Y522537I3200J-4471*
G01*
G75*
G02X735950Y524721I5000J-2287*
G01*
Y527750*
G75*
G02X736479Y529024I1800*
G01*
X739982Y532528*
X736957*
Y541161*
X758543*
Y533248*
G75*
G02X762050Y527307I1707J-2998*
G01*
Y522391*
G75*
G02X769100Y520250I3200J-2141*
G01*
G75*
G02X767050Y516847I-3850*
G01*
Y478653*
G75*
G02Y471847I-1800J-3403*
G01*
Y438653*
G75*
G02X769100Y435250I-1800J-3403*
G01*
G75*
G02X761400I-3850*
G01*
G75*
G02X761653Y436622I3850*
G01*
G75*
G02X761521Y436476I-1404J1128*
G01*
X757510Y432465*
G75*
G02X757682Y432050I-4762J-2215*
G01*
X757750*
G75*
G02X759024Y431521J-1800*
G01*
X763496Y427050*
X769504*
X769865Y427410*
G75*
G02X770584Y434161I5385J2841*
G01*
X769161*
Y446339*
X781339*
Y434161*
X779916*
G75*
G02X780635Y427410I-4667J-3911*
G01*
X780996Y427050*
X789529*
G75*
G02X791713Y435250I4471J3200*
G01*
G75*
G02Y445250I2287J5000*
G01*
G75*
G02X788502Y450250I2287J5000*
G01*
G75*
G02X799000Y452537I5498*
G01*
G75*
G02X809498Y450250I5000J-2287*
G01*
G75*
G02X806287Y445250I-5498*
G01*
G75*
G02Y435250I-2287J-5000*
G01*
G75*
G02X808471Y427050I-2287J-5000*
G01*
X822528*
Y431043*
X831161*
Y359457*
X822528*
Y363450*
X808471*
G75*
G02X801599Y355304I-4471J-3200*
G01*
X800274Y353979*
G75*
G02X799000Y353450I-1274J1272*
G01*
X762750*
G75*
G02X761476Y353979J1800*
G01*
X757481Y357974*
G75*
G02X754351Y355250I-4731J2276*
G01*
G75*
G02X756300Y346382I-1601J-5000*
G01*
Y294448*
G75*
G02X758248Y290250I-3550J-4198*
G01*
G75*
G02X758229Y289792I-5497J2*
G01*
X761720Y286300*
X875750*
G75*
G02X878262Y285258J-3550*
G01*
X883258Y280262*
G75*
G02X884300Y277750I-2508J-2512*
G01*
Y276948*
G75*
G02X883037Y267750I-3550J-4198*
G01*
G75*
G02Y257750I-2287J-5000*
G01*
G75*
G02Y247750I-2287J-5000*
G01*
G75*
G02X884293Y246954I-2287J-5000*
G01*
X891600Y254262*
Y478738*
X888738Y481600*
X887750*
G75*
G02X886902Y481700J3650*
G01*
X884948*
G75*
G02X875750Y482963I-4198J3550*
G01*
G75*
G02X865252Y485250I-5000J2287*
G01*
G75*
G02X868463Y490250I5498*
G01*
G75*
G02Y500250I2287J5000*
G01*
G75*
G02X867594Y509752I2287J5000*
G01*
X865252*
Y520748*
X876248*
Y518406*
G75*
G02X886248Y515250I4502J-3156*
G01*
G75*
G02X883037Y510250I-5498*
G01*
G75*
G02Y500250I-2287J-5000*
G01*
G75*
G02Y490250I-2287J-5000*
G01*
G75*
G02X884948Y488800I-2287J-5000*
G01*
X886902*
G75*
G02X887750Y488900I848J-3550*
G01*
X888880*
X891700Y491720*
Y530780*
X888280Y534200*
X884948*
G75*
G02X875750Y535463I-4198J3550*
G01*
G75*
G02X865252Y537750I-5000J2287*
G01*
G75*
G02X868463Y542750I5498*
G01*
G75*
G02Y552750I2287J5000*
G01*
G75*
G02X867594Y562252I2287J5000*
G01*
X865252*
Y573248*
X876248*
Y570906*
G75*
G02X886248Y567750I4502J-3156*
G01*
G75*
G02X883037Y562750I-5498*
G01*
G75*
G02Y552750I-2287J-5000*
G01*
G75*
G02Y542750I-2287J-5000*
G01*
G75*
G02X884948Y541300I-2287J-5000*
G01*
X889750*
G75*
G02X892262Y540258J-3550*
G01*
X897758Y534762*
G75*
G02X898800Y532250I-2508J-2512*
G01*
Y490250*
G75*
G02X897758Y487738I-3550*
G01*
X895341Y485321*
X897831Y482831*
X776686Y521707D02*
G75*
G02X784100Y520250I3564J-1457D01*
G01*
G75*
G02X781707Y516686I-3850*
G01*
X776300Y511280*
Y484240*
G75*
G02Y481260I-3550J-1490*
G01*
Y451740*
G75*
G02X776600Y450250I-3550J-1490*
G01*
G75*
G02X768900I-3850*
G01*
G75*
G02X769200Y451740I3850*
G01*
Y481260*
G75*
G02Y484240I3550J1490*
G01*
Y512750*
G75*
G02X770242Y515262I3550*
G01*
X776686Y521707*
X804300Y532750D02*
G75*
G02X811200I3450D01*
G01*
G75*
G02X806942Y529396I-3450*
G01*
X782050Y504504*
Y504039*
G75*
G02X786058Y506104I3200J-1289*
G01*
X804396Y524442*
G75*
G02X804300Y525250I3354J808*
G01*
G75*
G02X811200I3450*
G01*
G75*
G02X806942Y521896I-3450*
G01*
X788604Y503558*
G75*
G02X782050Y501461I-3354J-808*
G01*
Y500693*
G75*
G02X783700Y497750I-1800J-2943*
G01*
G75*
G02X776800I-3450*
G01*
G75*
G02X778450Y500693I3450*
G01*
Y505250*
G75*
G02X778979Y506524I1800*
G01*
X804396Y531942*
G75*
G02X804300Y532750I3354J808*
G01*
Y517750D02*
G75*
G02X811200I3450D01*
G01*
G75*
G02X806942Y514396I-3450*
G01*
X801104Y508558*
G75*
G02X801200Y507750I-3354J-808*
G01*
G75*
G02X794300I-3450*
G01*
G75*
G02X798558Y511104I3450*
G01*
X804396Y516942*
G75*
G02X804300Y517750I3354J808*
G01*
X781800Y460250D02*
G75*
G02X788700I3450D01*
G01*
G75*
G02X787050Y457307I-3450*
G01*
Y445693*
G75*
G02X788700Y442750I-1800J-2943*
G01*
G75*
G02X781800I-3450*
G01*
G75*
G02X783450Y445693I3450*
G01*
Y457307*
G75*
G02X781800Y460250I1800J2943*
G01*
X776800Y340250D02*
G75*
G02X783700I3450D01*
G01*
G75*
G02X782050Y337307I-3450*
G01*
Y328193*
G75*
G02X783700Y325250I-1800J-2943*
G01*
G75*
G02X776800I-3450*
G01*
G75*
G02X778450Y328193I3450*
G01*
Y337307*
G75*
G02X776800Y340250I1800J2943*
G01*
X875931Y452261D02*
G75*
G02X885932Y450250I4798J-2011D01*
G01*
G75*
G02X882168Y445250I-5203*
G01*
G75*
G02Y435250I-1438J-5000*
G01*
G75*
G02Y425250I-1438J-5000*
G01*
G75*
G02Y415250I-1438J-5000*
G01*
G75*
G02Y405250I-1438J-5000*
G01*
G75*
G02Y395250I-1438J-5000*
G01*
G75*
G02Y385250I-1438J-5000*
G01*
G75*
G02Y375250I-1438J-5000*
G01*
G75*
G02Y365250I-1438J-5000*
G01*
G75*
G02X885932Y360250I-1438J-5000*
G01*
G75*
G02X875730Y358812I-5203*
G01*
G75*
G02X865527Y360250I-5000J1438*
G01*
G75*
G02X866009Y362439I5203*
G01*
X865002Y363450*
X842972*
Y359457*
X834339*
Y431043*
X842972*
Y427050*
X865750*
G75*
G02X867026Y426520J-1800*
G01*
X868560Y424979*
G75*
G02X869291Y425250I2168J-4730*
G01*
G75*
G02Y435250I1438J5000*
G01*
G75*
G02X868716Y445047I1438J5000*
G01*
X865526*
Y455453*
X875931*
Y452261*
X876248Y328406D02*
G75*
G02X886248Y325250I4502J-3156D01*
G01*
G75*
G02X883037Y320250I-5498*
G01*
G75*
G02Y310250I-2287J-5000*
G01*
G75*
G02Y300250I-2287J-5000*
G01*
G75*
G02X886248Y295250I-2287J-5000*
G01*
G75*
G02X875750Y292963I-5498*
G01*
G75*
G02X865252Y295250I-5000J2287*
G01*
G75*
G02X868463Y300250I5498*
G01*
G75*
G02Y310250I2287J5000*
G01*
G75*
G02X867594Y319752I2287J5000*
G01*
X865252*
Y330748*
X876248*
Y328406*
X841661Y248839D02*
X853839D01*
Y236661*
X841661*
Y238084*
G75*
G02X831661Y242750I-3911J4666*
G01*
G75*
G02X841661Y247416I6089*
G01*
Y248839*
X858100Y45250D02*
G75*
G02X882400I12150D01*
G01*
G75*
G02X858100I-12150*
G01*
X843301Y89783D02*
G75*
G02X848209Y84876J-4907D01*
G01*
G75*
G02X843301Y79969I-4907*
G01*
G75*
G02X838394Y84876J4907*
G01*
G75*
G02X843301Y89783I4907*
G01*
Y109783D02*
G75*
G02X848209Y104876J-4907D01*
G01*
G75*
G02X843301Y99969I-4907*
G01*
G75*
G02X838394Y104876J4907*
G01*
G75*
G02X843301Y109783I4907*
G01*
Y169783D02*
G75*
G02X848209Y164876J-4907D01*
G01*
G75*
G02X843301Y159969I-4907*
G01*
G75*
G02X838394Y164876J4907*
G01*
G75*
G02X843301Y169783I4907*
G01*
Y179783D02*
G75*
G02X848209Y174876J-4907D01*
G01*
G75*
G02X843301Y169969I-4907*
G01*
G75*
G02X838394Y174876J4907*
G01*
G75*
G02X843301Y179783I4907*
G01*
X850250Y214606D02*
G75*
G02X854606Y210250J-4356D01*
G01*
G75*
G02X850250Y205894I-4356*
G01*
G75*
G02X845894Y210250J4356*
G01*
G75*
G02X850250Y214606I4356*
G01*
X776661Y226339D02*
X788839D01*
Y214161*
X787416*
G75*
G02X788839Y210250I-4666J-3911*
G01*
G75*
G02X776661I-6089*
G01*
G75*
G02X778084Y214161I6089*
G01*
X776661*
Y226339*
X783301Y89783D02*
G75*
G02X788209Y84876J-4907D01*
G01*
G75*
G02X783301Y79969I-4907*
G01*
G75*
G02X778394Y84876J4907*
G01*
G75*
G02X783301Y89783I4907*
G01*
Y109783D02*
G75*
G02X788209Y104876J-4907D01*
G01*
G75*
G02X783301Y99969I-4907*
G01*
G75*
G02X778394Y104876J4907*
G01*
G75*
G02X783301Y109783I4907*
G01*
Y169783D02*
G75*
G02X788209Y164876J-4907D01*
G01*
G75*
G02X783301Y159969I-4907*
G01*
G75*
G02X778394Y164876J4907*
G01*
G75*
G02X783301Y169783I4907*
G01*
Y179783D02*
G75*
G02X788209Y174876J-4907D01*
G01*
G75*
G02X783301Y169969I-4907*
G01*
G75*
G02X778394Y174876J4907*
G01*
G75*
G02X783301Y179783I4907*
G01*
Y189783D02*
G75*
G02X788209Y184876J-4907D01*
G01*
G75*
G02X783301Y179969I-4907*
G01*
G75*
G02X778394Y184876J4907*
G01*
G75*
G02X783301Y189783I4907*
G01*
X820250Y214606D02*
G75*
G02X824606Y210250J-4356D01*
G01*
G75*
G02X820250Y205894I-4356*
G01*
G75*
G02X815894Y210250J4356*
G01*
G75*
G02X820250Y214606I4356*
G01*
X815894Y224606D02*
X824606D01*
Y215894*
X815894*
Y224606*
X691661Y226339D02*
X733839D01*
Y214161*
X732416*
G75*
G02X733839Y210250I-4666J-3911*
G01*
G75*
G02X722750Y206776I-6089*
G01*
G75*
G02X712750I-5000J3474*
G01*
G75*
G02X702750I-5000J3474*
G01*
G75*
G02X691661Y210250I-5000J3474*
G01*
G75*
G02X693084Y214161I6089*
G01*
X691661*
Y226339*
X716800Y195250D02*
G75*
G02X723700I3450D01*
G01*
G75*
G02X719628Y191857I-3450*
G01*
X713504Y185726*
G75*
G02X718700Y182750I1746J-2976*
G01*
G75*
G02X714625Y179357I-3450*
G01*
X709137Y173868*
G75*
G02X707750Y173293I-1387J1382*
G01*
X701845*
G75*
G02X693217Y175237I-4095J1945*
G01*
G75*
G02X701833Y177207I4533*
G01*
X706939*
X711857Y182125*
G75*
G02X712272Y184492I3393J625*
G01*
X711635Y183854*
G75*
G02X710249Y183280I-1385J1383*
G01*
X701839*
G75*
G02X693217Y185237I-4089J1957*
G01*
G75*
G02X701839Y187195I4533*
G01*
X709439*
X716857Y194623*
G75*
G02X716800Y195250I3393J627*
G01*
X723217Y109770D02*
X732283D01*
Y100703*
X723217*
Y109770*
Y115237D02*
G75*
G02X732283I4533D01*
G01*
G75*
G02X723217I-4533*
G01*
X785906Y39752D02*
G75*
G02X782750Y29752I-3156J-4502D01*
G01*
G75*
G02X777750Y32963J5498*
G01*
G75*
G02X767750I-5000J2287*
G01*
G75*
G02X757750I-5000J2287*
G01*
G75*
G02X747252Y35250I-5000J2287*
G01*
G75*
G02X750463Y40250I5498*
G01*
G75*
G02X752750Y50748I2287J5000*
G01*
G75*
G02X757750Y47537J-5498*
G01*
G75*
G02X765793Y49830I5000J-2287*
G01*
Y51939*
X750116Y67616*
G75*
G02X749543Y69000I1384J1384*
G01*
G75*
G02Y69001I654J0*
G01*
G75*
G02Y69003I663J1*
G01*
Y111504*
X740933*
Y122903*
X739497Y123280*
X731839*
G75*
G02X723217Y125237I-4089J1957*
G01*
G75*
G02X731839Y127195I4533*
G01*
X739749*
G75*
G02X740247Y127131I1J-1959*
G01*
X740933Y126951*
Y128996*
X749543*
Y150689*
X729258Y170962*
G75*
G02X723217Y175237I-1508J4275*
G01*
G75*
G02X732283I4533*
G01*
G75*
G02X732026Y173731I-4534*
G01*
X752884Y152885*
G75*
G02X753293Y152287I-1384J-1384*
G01*
Y156939*
X729258Y180962*
G75*
G02X723217Y185237I-1508J4275*
G01*
G75*
G02X732283I4533*
G01*
G75*
G02X732026Y183731I-4534*
G01*
X756634Y159135*
G75*
G02X757207Y157750I-1384J-1385*
G01*
Y125710*
G75*
G02X764764Y122376I3043J-3334*
G01*
G75*
G02X757207Y119042I-4514*
G01*
Y84764*
X764764*
Y75736*
X757207*
Y73561*
X780020Y50748*
X788248*
Y39752*
X785906*
X723217Y135237D02*
G75*
G02X732283I4533D01*
G01*
G75*
G02X723217I-4533*
G01*
Y145237D02*
G75*
G02X732283I4533D01*
G01*
G75*
G02X723217I-4533*
G01*
Y155237D02*
G75*
G02X732283I4533D01*
G01*
G75*
G02X723217I-4533*
G01*
Y165237D02*
G75*
G02X732283I4533D01*
G01*
G75*
G02X723217I-4533*
G01*
X717777Y83787D02*
G75*
G02X728275Y81500I5000J-2287D01*
G01*
G75*
G02X717777Y79213I-5498*
G01*
G75*
G02X708274Y78346I-5000J2287*
G01*
Y76002*
X697278*
Y84509*
X674707Y61939*
Y50748*
X678248*
Y39752*
X675906*
G75*
G02X672750Y29752I-3156J-4502*
G01*
G75*
G02X667750Y32963J5498*
G01*
G75*
G02X657750I-5000J2287*
G01*
G75*
G02X647750I-5000J2287*
G01*
G75*
G02X637252Y35250I-5000J2287*
G01*
G75*
G02X640463Y40250I5498*
G01*
G75*
G02X642750Y50748I2287J5000*
G01*
G75*
G02X647750Y47537J-5498*
G01*
G75*
G02X657750I5000J-2287*
G01*
G75*
G02X665793Y49830I5000J-2287*
G01*
Y62747*
G75*
G02Y62749I673J1*
G01*
G75*
G02Y62750I683J0*
G01*
G75*
G02X666366Y64134I1957*
G01*
X702043Y99811*
Y103779*
G75*
G02X693217Y105237I-4293J1458*
G01*
G75*
G02X702043Y106696I4533*
G01*
Y113779*
G75*
G02X693217Y115237I-4293J1458*
G01*
G75*
G02X702043Y116696I4533*
G01*
Y123779*
G75*
G02X693217Y125237I-4293J1458*
G01*
G75*
G02X702043Y126696I4533*
G01*
Y128189*
X701369Y128863*
G75*
G02X701368Y128864I175J176*
G01*
X699263Y130964*
G75*
G02X693217Y135237I-1513J4274*
G01*
G75*
G02X702283I4533*
G01*
G75*
G02X702028Y133735I-4534J0*
G01*
X704132Y131636*
G75*
G02X704137Y131631I-2817J-2822*
G01*
X705382Y130387*
G75*
G02X705793Y129787I-1382J-1386*
G01*
Y134439*
X699260Y140963*
G75*
G02X693217Y145237I-1510J4274*
G01*
G75*
G02X702283I4533*
G01*
G75*
G02X702026Y143733I-4534J0*
G01*
X709133Y136635*
G75*
G02X709707Y135250I-1383J-1385*
G01*
Y97750*
G75*
G02X709132Y96363I-1958*
G01*
X699766Y86998*
X708274*
Y84654*
G75*
G02X717777Y83787I4503J-3154*
G01*
X693217Y155237D02*
G75*
G02X702283I4533D01*
G01*
G75*
G02X693217I-4533*
G01*
Y165237D02*
G75*
G02X702283I4533D01*
G01*
G75*
G02X693217I-4533*
G01*
X660736Y84764D02*
X669764D01*
Y75736*
X660736*
Y84764*
Y122376D02*
G75*
G02X669764I4514D01*
G01*
G75*
G02X660736I-4514*
G01*
X650250Y214606D02*
G75*
G02X654606Y210250J-4356D01*
G01*
G75*
G02X650250Y205894I-4356*
G01*
G75*
G02X645894Y210250J4356*
G01*
G75*
G02X650250Y214606I4356*
G01*
X643301Y89783D02*
G75*
G02X648209Y84876J-4907D01*
G01*
G75*
G02X643301Y79969I-4907*
G01*
G75*
G02X638394Y84876J4907*
G01*
G75*
G02X643301Y89783I4907*
G01*
Y109783D02*
G75*
G02X648209Y104876J-4907D01*
G01*
G75*
G02X643301Y99969I-4907*
G01*
G75*
G02X638394Y104876J4907*
G01*
G75*
G02X643301Y109783I4907*
G01*
Y169783D02*
G75*
G02X648209Y164876J-4907D01*
G01*
G75*
G02X643301Y159969I-4907*
G01*
G75*
G02X638394Y164876J4907*
G01*
G75*
G02X643301Y169783I4907*
G01*
Y179783D02*
G75*
G02X648209Y174876J-4907D01*
G01*
G75*
G02X643301Y169969I-4907*
G01*
G75*
G02X638394Y174876J4907*
G01*
G75*
G02X643301Y179783I4907*
G01*
X620250Y214606D02*
G75*
G02X624606Y210250J-4356D01*
G01*
G75*
G02X620250Y205894I-4356*
G01*
G75*
G02X615894Y210250J4356*
G01*
G75*
G02X620250Y214606I4356*
G01*
X615894Y224606D02*
X624606D01*
Y215894*
X615894*
Y224606*
X724550Y552972D02*
X728543D01*
Y544339*
X596957*
Y552972*
X600950*
Y576990*
X597990*
Y586510*
X607510*
Y576990*
X604550*
Y552972*
X610950*
Y577344*
G75*
G02X612750Y586510I1800J4406*
G01*
G75*
G02X614550Y577344J-4760*
G01*
Y552972*
X620950*
Y577344*
G75*
G02X622750Y586510I1800J4406*
G01*
G75*
G02X624550Y577344J-4760*
G01*
Y552972*
X630950*
Y577344*
G75*
G02X632750Y586510I1800J4406*
G01*
G75*
G02X634550Y577344J-4760*
G01*
Y552972*
X640950*
Y577344*
G75*
G02X642750Y586510I1800J4406*
G01*
G75*
G02X644550Y577344J-4760*
G01*
Y552972*
X650950*
Y577344*
G75*
G02X652750Y586510I1800J4406*
G01*
G75*
G02X654550Y577344J-4760*
G01*
Y552972*
X660950*
Y577344*
G75*
G02X662750Y586510I1800J4406*
G01*
G75*
G02X664550Y577344J-4760*
G01*
Y552972*
X670950*
Y577344*
G75*
G02X672750Y586510I1800J4406*
G01*
G75*
G02X674550Y577344J-4760*
G01*
Y552972*
X680950*
Y577344*
G75*
G02X682750Y586510I1800J4406*
G01*
G75*
G02X684550Y577344J-4760*
G01*
Y552972*
X690950*
Y577344*
G75*
G02X692750Y586510I1800J4406*
G01*
G75*
G02X694550Y577344J-4760*
G01*
Y552972*
X700950*
Y577344*
G75*
G02X702750Y586510I1800J4406*
G01*
G75*
G02X704550Y577344J-4760*
G01*
Y552972*
X710950*
Y577344*
G75*
G02X712750Y586510I1800J4406*
G01*
G75*
G02X714550Y577344J-4760*
G01*
Y552972*
X720950*
Y577344*
G75*
G02X722750Y586510I1800J4406*
G01*
G75*
G02X724550Y577344J-4760*
G01*
Y552972*
X597990Y591750D02*
G75*
G02X607510I4760D01*
G01*
G75*
G02X597990I-4760*
G01*
X607990D02*
G75*
G02X617510I4760D01*
G01*
G75*
G02X607990I-4760*
G01*
X617990D02*
G75*
G02X627510I4760D01*
G01*
G75*
G02X617990I-4760*
G01*
X627990D02*
G75*
G02X637510I4760D01*
G01*
G75*
G02X627990I-4760*
G01*
X637990D02*
G75*
G02X647510I4760D01*
G01*
G75*
G02X637990I-4760*
G01*
X647990D02*
G75*
G02X657510I4760D01*
G01*
G75*
G02X647990I-4760*
G01*
X657990D02*
G75*
G02X667510I4760D01*
G01*
G75*
G02X657990I-4760*
G01*
X667990D02*
G75*
G02X677510I4760D01*
G01*
G75*
G02X667990I-4760*
G01*
X677990D02*
G75*
G02X687510I4760D01*
G01*
G75*
G02X677990I-4760*
G01*
X687990D02*
G75*
G02X697510I4760D01*
G01*
G75*
G02X687990I-4760*
G01*
X697990D02*
G75*
G02X707510I4760D01*
G01*
G75*
G02X697990I-4760*
G01*
X707990D02*
G75*
G02X717510I4760D01*
G01*
G75*
G02X707990I-4760*
G01*
X717990D02*
G75*
G02X727510I4760D01*
G01*
G75*
G02X717990I-4760*
G01*
X727990Y581750D02*
G75*
G02X737510I4760D01*
G01*
G75*
G02X727990I-4760*
G01*
X754550Y552972D02*
X758543D01*
Y544339*
X736957*
Y552972*
X740950*
Y577344*
G75*
G02X742750Y586510I1800J4406*
G01*
G75*
G02X744550Y577344J-4760*
G01*
Y552972*
X750950*
Y577344*
G75*
G02X752750Y586510I1800J4406*
G01*
G75*
G02X754550Y577344J-4760*
G01*
Y552972*
X727990Y591750D02*
G75*
G02X737510I4760D01*
G01*
G75*
G02X727990I-4760*
G01*
X737990D02*
G75*
G02X747510I4760D01*
G01*
G75*
G02X737990I-4760*
G01*
X747990D02*
G75*
G02X757510I4760D01*
G01*
G75*
G02X747990I-4760*
G01*
X757990Y581750D02*
G75*
G02X767510I4760D01*
G01*
G75*
G02X757990I-4760*
G01*
Y591750D02*
G75*
G02X767510I4760D01*
G01*
G75*
G02X757990I-4760*
G01*
X767990Y581750D02*
G75*
G02X777510I4760D01*
G01*
G75*
G02X767990I-4760*
G01*
Y591750D02*
G75*
G02X777510I4760D01*
G01*
G75*
G02X767990I-4760*
G01*
X777990Y581750D02*
G75*
G02X787510I4760D01*
G01*
G75*
G02X777990I-4760*
G01*
Y591750D02*
G75*
G02X787510I4760D01*
G01*
G75*
G02X777990I-4760*
G01*
X787990Y581750D02*
G75*
G02X797510I4760D01*
G01*
G75*
G02X787990I-4760*
G01*
Y591750D02*
G75*
G02X797510I4760D01*
G01*
G75*
G02X787990I-4760*
G01*
X813900Y507750D02*
G75*
G02X821600I3850D01*
G01*
G75*
G02X821300Y506260I-3850*
G01*
Y474240*
G75*
G02X821600Y472750I-3550J-1490*
G01*
G75*
G02X813900I-3850*
G01*
G75*
G02X814200Y474240I3850*
G01*
Y506260*
G75*
G02X813900Y507750I3550J1490*
G01*
X841661Y301339D02*
X853839D01*
Y289161*
X841661*
Y290584*
G75*
G02X831661Y295250I-3911J4666*
G01*
G75*
G02X841661Y299916I6089*
G01*
Y301339*
Y491339D02*
X853839D01*
Y479161*
X841661*
Y480584*
G75*
G02X831661Y485250I-3911J4666*
G01*
G75*
G02X841661Y489916I6089*
G01*
Y491339*
Y543839D02*
X853839D01*
Y531661*
X841661*
Y533084*
G75*
G02X831661Y537750I-3911J4666*
G01*
G75*
G02X841661Y542416I6089*
G01*
Y543839*
X858100Y595250D02*
G75*
G02X882400I12150D01*
G01*
G75*
G02X858100I-12150*
G01*
X788248Y45250D02*
G36*
Y39752D01*
X785906*
G75*
G02X788248Y35250I-3156J-4502*
G01*
G75*
G02X782750Y29752I-5498*
G01*
G75*
G02X777750Y32963J5498*
G01*
G75*
G02X767750I-5000J2287*
G01*
G75*
G02X757750I-5000J2287*
G01*
G75*
G02X747252Y35250I-5000J2287*
G01*
G75*
G02X750463Y40250I5498*
G01*
G75*
G02X747252Y45250I2287J5000*
G01*
X678248*
Y39752*
X675906*
G75*
G02X678248Y35250I-3156J-4502*
G01*
G75*
G02X672750Y29752I-5498*
G01*
G75*
G02X667750Y32963J5498*
G01*
G75*
G02X657750I-5000J2287*
G01*
G75*
G02X647750I-5000J2287*
G01*
G75*
G02X637252Y35250I-5000J2287*
G01*
G75*
G02X640463Y40250I5498*
G01*
G75*
G02X637252Y45250I2287J5000*
G01*
X567400*
G75*
G02X543100I-12150*
G01*
X474496*
Y33640*
X461138*
Y45250*
X452320*
G75*
G02X454496Y40318I-4504J-4933*
G01*
G75*
G02X441138I-6679*
G01*
G75*
G02X443313Y45250I6679J0*
G01*
X372400*
G75*
G02X348100I-12150*
G01*
X268248*
Y34752*
X265906*
G75*
G02X268248Y30250I-3156J-4502*
G01*
G75*
G02X262750Y24752I-5498*
G01*
G75*
G02X257750Y27963J5498*
G01*
G75*
G02X247750I-5000J2287*
G01*
G75*
G02X237750I-5000J2287*
G01*
G75*
G02X227252Y30250I-5000J2287*
G01*
G75*
G02X230463Y35250I5498*
G01*
G75*
G02X227252Y40250I2287J5000*
G01*
G75*
G02X230463Y45250I5498*
G01*
X178248*
Y34752*
X175906*
G75*
G02X178248Y30250I-3156J-4502*
G01*
G75*
G02X172750Y24752I-5498*
G01*
G75*
G02X167750Y27963J5498*
G01*
G75*
G02X157750I-5000J2287*
G01*
G75*
G02X147750I-5000J2287*
G01*
G75*
G02X137252Y30250I-5000J2287*
G01*
G75*
G02X140463Y35250I5498*
G01*
G75*
G02X137252Y40250I2287J5000*
G01*
G75*
G02X140463Y45250I5498*
G01*
X57400*
G75*
G02X33100I-12150*
G01*
X8000*
Y8000*
X907500*
Y45250*
X882400*
G75*
G02X858100I-12150*
G01*
X788248*
G37*
X150463D02*
G36*
X145037D01*
G75*
G02X147750Y42537I-2287J-5000*
G01*
G75*
G02X150463Y45250I5000J-2287*
G01*
G37*
X240464D02*
G36*
X235037D01*
G75*
G02X237750Y42537I-2287J-5000*
G01*
G75*
G02X240464Y45250I5000J-2287*
G01*
G37*
X150463D02*
G36*
G75*
G02X152750Y45748I2287J-5001D01*
G01*
G75*
G02X153257Y45724I0J-5446*
G01*
X151366Y47616*
G75*
G02X150793Y48999I1383J1383*
G01*
G75*
G02Y49000I1735J0*
G01*
Y49001*
Y49003*
Y74752*
X142278*
Y80250*
X114764*
Y75736*
X105736*
Y80250*
X89939*
G75*
G02X88301Y79969I-1638J4627*
G01*
G75*
G02X86663Y80250J4908*
G01*
X29939*
G75*
G02X28301Y79969I-1638J4627*
G01*
G75*
G02X26663Y80250J4908*
G01*
X8000*
Y45250*
X33100*
G75*
G02X57400I12150*
G01*
X140463*
G75*
G02X142750Y45748I2287J-5000*
G01*
G75*
G02X145037Y45250J-5499*
G01*
X150463*
G37*
X240464D02*
G36*
G75*
G02X244938Y45294I2287J-5001D01*
G01*
X244439Y45793*
X222750*
G75*
G02X221363Y46368I0J1957*
G01*
X195118Y72613*
G75*
G02X194543Y74000I1381J1386*
G01*
Y74000*
Y80250*
X173275*
Y80250*
G75*
G02X164707Y75689I-5498*
G01*
Y51061*
X170020Y45748*
X178248*
Y45250*
X230463*
G75*
G02X232750Y45748I2287J-5000*
G01*
G75*
G02X235037Y45250J-5499*
G01*
X240464*
G37*
X682481Y80250D02*
G36*
X669764D01*
Y75736*
X660736*
Y80250*
X644939*
G75*
G02X643301Y79969I-1638J4627*
G01*
G75*
G02X641663Y80250J4908*
G01*
X584939*
G75*
G02X583301Y79969I-1638J4627*
G01*
G75*
G02X581663Y80250J4908*
G01*
X379939*
G75*
G02X378301Y79969I-1638J4627*
G01*
G75*
G02X376663Y80250J4908*
G01*
X319939*
G75*
G02X318301Y79969I-1638J4627*
G01*
G75*
G02X316663Y80250J4908*
G01*
X289939*
G75*
G02X288301Y79969I-1638J4627*
G01*
G75*
G02X286663Y80250J4908*
G01*
X229939*
G75*
G02X228301Y79969I-1638J4627*
G01*
G75*
G02X226663Y80250J4908*
G01*
X209764*
Y75736*
X203782*
X226061Y53457*
X251497*
G75*
G02X252884Y52884I3J-1959*
G01*
X260020Y45748*
X268248*
Y45250*
X348100*
G75*
G02X372400I12150*
G01*
X443313*
G75*
G02X452320I4504J-4932*
G01*
X461138*
Y46998*
X474496*
Y45250*
X543100*
G75*
G02X567400I12150*
G01*
X637252*
G75*
G02X642750Y50748I5498*
G01*
G75*
G02X647750Y47537J-5498*
G01*
G75*
G02X657750I5000J-2287*
G01*
G75*
G02X665793Y49830I5000J-2287*
G01*
Y62747*
Y62749*
Y62750*
G75*
G02Y62751I1735J0*
G01*
G75*
G02X666366Y64134I1956*
G01*
X682481Y80250*
G37*
X747252Y45250D02*
G36*
G75*
G02X752750Y50748I5498D01*
G01*
G75*
G02X757750Y47537J-5498*
G01*
G75*
G02X765793Y49830I5000J-2287*
G01*
Y51939*
X750116Y67616*
G75*
G02X749543Y68999I1383J1383*
G01*
G75*
G02Y69000I1735J0*
G01*
Y69001*
Y69003*
Y80250*
X728131*
G75*
G02X717777Y79213I-5354J1250*
G01*
G75*
G02X708274Y78346I-5000J2287*
G01*
Y76002*
X697278*
Y80250*
X693018*
X674707Y61939*
Y50748*
X678248*
Y45250*
X747252*
G37*
X844939Y80250D02*
G36*
G75*
G02X843301Y79969I-1638J4627D01*
G01*
G75*
G02X841663Y80250J4908*
G01*
X784939*
G75*
G02X783301Y79969I-1638J4627*
G01*
G75*
G02X781663Y80250J4908*
G01*
X764764*
Y75736*
X757207*
Y73561*
X780020Y50748*
X788248*
Y45250*
X858100*
G75*
G02X882400I12150*
G01*
X907500*
Y80250*
X844939*
G37*
X23394Y84876D02*
G36*
X8000D01*
Y80250*
X26663*
G75*
G02X23394Y84876I1638J4626*
G01*
G37*
X83394D02*
G36*
X33209D01*
G75*
G02X29939Y80250I-4907*
G01*
X86663*
G75*
G02X83394Y84876I1638J4626*
G01*
G37*
X142278Y80250D02*
G36*
Y84876D01*
X93209*
G75*
G02X89939Y80250I-4907*
G01*
X105736*
Y84764*
X114764*
Y80250*
X142278*
G37*
X154806Y84876D02*
G36*
X154707D01*
Y84811*
G75*
G02X154806Y84876I3071J-4556*
G01*
G37*
X160793D02*
G36*
X160748D01*
G75*
G02X160793Y84847I-2972J-4608*
G01*
Y84876*
G37*
X164806D02*
G36*
X164707D01*
Y84811*
G75*
G02X164806Y84876I3071J-4556*
G01*
G37*
X194543Y80250D02*
G36*
Y84876D01*
X170748*
G75*
G02X173275Y80250I-2971J-4626*
G01*
Y80250*
X194543*
G37*
X223394Y84876D02*
G36*
X202207D01*
Y84764*
X209764*
Y80250*
X226663*
G75*
G02X223394Y84876I1638J4626*
G01*
G37*
X283394D02*
G36*
X233209D01*
G75*
G02X229939Y80250I-4907*
G01*
X286663*
G75*
G02X283394Y84876I1638J4626*
G01*
G37*
X313394D02*
G36*
X293209D01*
G75*
G02X289939Y80250I-4907*
G01*
X316663*
G75*
G02X313394Y84876I1638J4626*
G01*
G37*
X373394D02*
G36*
X323209D01*
G75*
G02X319939Y80250I-4907*
G01*
X376663*
G75*
G02X373394Y84876I1638J4626*
G01*
G37*
X578394D02*
G36*
X383209D01*
G75*
G02X379939Y80250I-4907*
G01*
X581663*
G75*
G02X578394Y84876I1638J4626*
G01*
G37*
X638394D02*
G36*
X588209D01*
G75*
G02X584939Y80250I-4907*
G01*
X641663*
G75*
G02X638394Y84876I1638J4626*
G01*
G37*
X687108D02*
G36*
X648209D01*
G75*
G02X644939Y80250I-4907*
G01*
X660736*
Y84764*
X669764*
Y80250*
X682481*
X687108Y84876*
G37*
X697278Y80250D02*
G36*
Y84509D01*
X693018Y80250*
X697278*
G37*
X708437Y84876D02*
G36*
X708274D01*
Y84654*
G75*
G02X708437Y84876I4504J-3157*
G01*
G37*
X718437D02*
G36*
X717116D01*
G75*
G02X717777Y83787I-4339J-3376*
G01*
G75*
G02X718437Y84876I5000J-2287*
G01*
G37*
X749543Y80250D02*
G36*
Y84876D01*
X727116*
G75*
G02X728275Y81500I-4339J-3376*
G01*
G75*
G02X728131Y80250I-5498J0*
G01*
X749543*
G37*
X778394Y84876D02*
G36*
X757207D01*
Y84764*
X764764*
Y80250*
X781663*
G75*
G02X778394Y84876I1638J4626*
G01*
G37*
X838394D02*
G36*
X788209D01*
G75*
G02X784939Y80250I-4907*
G01*
X841663*
G75*
G02X838394Y84876I1638J4626*
G01*
G37*
X848209D02*
G36*
G75*
G02X844939Y80250I-4907D01*
G01*
X907500*
Y84876*
X848209*
G37*
X150793Y104876D02*
G36*
X147269D01*
G75*
G02X138231I-4519J361*
G01*
X93209*
G75*
G02X88301Y99969I-4907*
G01*
G75*
G02X83394Y104876J4907*
G01*
X33209*
G75*
G02X28301Y99969I-4907*
G01*
G75*
G02X23394Y104876J4907*
G01*
X8000*
Y84876*
X23394*
G75*
G02X28301Y89783I4907*
G01*
G75*
G02X33209Y84876J-4907*
G01*
X83394*
G75*
G02X88301Y89783I4907*
G01*
G75*
G02X93209Y84876J-4907*
G01*
X142278*
Y85748*
X150793*
Y104876*
G37*
X160793D02*
G36*
X154707D01*
Y84876*
X154806*
G75*
G02X160748I2972J-4626*
G01*
X160793*
Y104876*
G37*
X194543D02*
G36*
X177283D01*
Y100703*
X168217*
Y104876*
X164707*
Y84876*
X164806*
G75*
G02X170748I2972J-4626*
G01*
X194543*
Y104876*
G37*
X693231D02*
G36*
X648209D01*
G75*
G02X643301Y99969I-4907*
G01*
G75*
G02X638394Y104876J4907*
G01*
X588209*
G75*
G02X583301Y99969I-4907*
G01*
G75*
G02X578394Y104876J4907*
G01*
X383209*
G75*
G02X378301Y99969I-4907*
G01*
G75*
G02X373394Y104876J4907*
G01*
X323209*
G75*
G02X318301Y99969I-4907*
G01*
G75*
G02X313394Y104876J4907*
G01*
X293209*
G75*
G02X288301Y99969I-4907*
G01*
G75*
G02X283394Y104876J4907*
G01*
X233209*
G75*
G02X228301Y99969I-4907*
G01*
G75*
G02X223394Y104876J4907*
G01*
X202207*
Y84876*
X223394*
G75*
G02X228301Y89783I4907*
G01*
G75*
G02X233209Y84876J-4907*
G01*
X283394*
G75*
G02X288301Y89783I4907*
G01*
G75*
G02X293209Y84876J-4907*
G01*
X313394*
G75*
G02X318301Y89783I4907*
G01*
G75*
G02X323209Y84876J-4907*
G01*
X373394*
G75*
G02X378301Y89783I4907*
G01*
G75*
G02X383209Y84876J-4907*
G01*
X578394*
G75*
G02X583301Y89783I4907*
G01*
G75*
G02X588209Y84876J-4907*
G01*
X638394*
G75*
G02X643301Y89783I4907*
G01*
G75*
G02X648209Y84876J-4907*
G01*
X687108*
X702043Y99811*
Y103779*
G75*
G02X693231Y104876I-4293J1458*
G01*
G37*
X749543D02*
G36*
X732283D01*
Y100703*
X723217*
Y104876*
X709707*
Y97750*
Y97750*
G75*
G02X709132Y96363I-1957*
G01*
X699766Y86998*
X708274*
Y84876*
X708437*
G75*
G02X717116I4339J-3376*
G01*
X718437*
G75*
G02X727116I4339J-3376*
G01*
X749543*
Y104876*
G37*
X757207D02*
G36*
Y84876D01*
X778394*
G75*
G02X783301Y89783I4907*
G01*
G75*
G02X788209Y84876J-4907*
G01*
X838394*
G75*
G02X843301Y89783I4907*
G01*
G75*
G02X848209Y84876J-4907*
G01*
X907500*
Y104876*
X848209*
G75*
G02X843301Y99969I-4907*
G01*
G75*
G02X838394Y104876J4907*
G01*
X788209*
G75*
G02X783301Y99969I-4907*
G01*
G75*
G02X778394Y104876J4907*
G01*
X757207*
G37*
X150793Y110250D02*
G36*
X8000D01*
Y104876*
X23394*
G75*
G02X28301Y109783I4907*
G01*
G75*
G02X33209Y104876J-4907*
G01*
X83394*
G75*
G02X88301Y109783I4907*
G01*
G75*
G02X93209Y104876J-4907*
G01*
X138231*
G75*
G02X138217Y105237I4520J363*
G01*
G75*
G02X147283I4533*
G01*
G75*
G02X147269Y104876I-4534J2*
G01*
X150793*
Y110250*
G37*
X160793D02*
G36*
X154707D01*
Y104876*
X160793*
Y110250*
G37*
X194543D02*
G36*
X164707D01*
Y104876*
X168217*
Y109770*
X177283*
Y104876*
X194543*
Y110250*
G37*
X702043D02*
G36*
X462165D01*
G75*
G02X453335I-4415*
G01*
X202207*
Y104876*
X223394*
G75*
G02X228301Y109783I4907*
G01*
G75*
G02X233209Y104876J-4907*
G01*
X283394*
G75*
G02X288301Y109783I4907*
G01*
G75*
G02X293209Y104876J-4907*
G01*
X313394*
G75*
G02X318301Y109783I4907*
G01*
G75*
G02X323209Y104876J-4907*
G01*
X373394*
G75*
G02X378301Y109783I4907*
G01*
G75*
G02X383209Y104876J-4907*
G01*
X578394*
G75*
G02X583301Y109783I4907*
G01*
G75*
G02X588209Y104876J-4907*
G01*
X638394*
G75*
G02X643301Y109783I4907*
G01*
G75*
G02X648209Y104876J-4907*
G01*
X693231*
G75*
G02X693217Y105237I4520J363*
G01*
G75*
G02X702043Y106696I4533*
G01*
Y110250*
G37*
X749543D02*
G36*
X709707D01*
Y104876*
X723217*
Y109770*
X732283*
Y104876*
X749543*
Y110250*
G37*
X757207D02*
G36*
Y104876D01*
X778394*
G75*
G02X783301Y109783I4907*
G01*
G75*
G02X788209Y104876J-4907*
G01*
X838394*
G75*
G02X843301Y109783I4907*
G01*
G75*
G02X848209Y104876J-4907*
G01*
X907500*
Y110250*
X757207*
G37*
X150793Y115237D02*
G36*
X147283D01*
G75*
G02X138217I-4533*
G01*
X8000*
Y110250*
X150793*
Y115237*
G37*
X160793D02*
G36*
X154707D01*
Y110250*
X160793*
Y115237*
G37*
X185933D02*
G36*
X177283D01*
G75*
G02X168217I-4533*
G01*
X164707*
Y110250*
X194543*
Y111504*
X185933*
Y115237*
G37*
X693217D02*
G36*
X202207D01*
Y110250*
X453335*
G75*
G02X462165I4415*
G01*
X702043*
Y113779*
G75*
G02X693217Y115237I-4293J1458*
G01*
G37*
X740933D02*
G36*
X732283D01*
G75*
G02X723217I-4533*
G01*
X709707*
Y110250*
X749543*
Y111504*
X740933*
Y115237*
G37*
X757207D02*
G36*
Y110250D01*
X907500*
Y115237*
X757207*
G37*
X150793Y122376D02*
G36*
X146266D01*
G75*
G02X139234I-3516J2861*
G01*
X114764*
G75*
G02X105736I-4514*
G01*
X8000*
Y115237*
X138217*
G75*
G02X147283I4533*
G01*
X150793*
Y122376*
G37*
X160793D02*
G36*
X154707D01*
Y115237*
X160793*
Y122376*
G37*
X185933D02*
G36*
X176266D01*
G75*
G02X169234I-3516J2861*
G01*
X164707*
Y115237*
X168217*
G75*
G02X177283I4533*
G01*
X185933*
Y122376*
G37*
X702043D02*
G36*
X701266D01*
G75*
G02X694234I-3516J2861*
G01*
X669764*
G75*
G02X660736I-4514*
G01*
X209764*
G75*
G02X202207Y119042I-4514J0*
G01*
Y115237*
X693217*
G75*
G02X702043Y116696I4533*
G01*
Y122376*
G37*
X740933D02*
G36*
X731266D01*
G75*
G02X724234I-3516J2861*
G01*
X709707*
Y115237*
X723217*
G75*
G02X732283I4533*
G01*
X740933*
Y122376*
G37*
X764764D02*
G36*
G75*
G02X757207Y119042I-4514J0D01*
G01*
Y115237*
X907500*
Y122376*
X764764*
G37*
X150793D02*
G36*
Y124439D01*
X145131Y130093*
X8000*
Y122376*
X105736*
G75*
G02X114764I4514*
G01*
X139234*
G75*
G02X138217Y125237I3517J2862*
G01*
G75*
G02X147283I4533*
G01*
G75*
G02X146266Y122376I-4534J0*
G01*
X150793*
G37*
X160793D02*
G36*
Y124439D01*
X158868Y126363*
G75*
G02X158867Y126365I4J5*
G01*
X155137Y130093*
X150671*
X154133Y126635*
G75*
G02X154707Y125250I-1384J-1385*
G01*
Y122376*
X160793*
G37*
X194543Y130093D02*
G36*
X160675D01*
X161633Y129135*
G75*
G02X161637Y129132I-8J-13*
G01*
X164132Y126637*
G75*
G02X164707Y125250I-1381J-1386*
G01*
Y125250*
Y122376*
X169234*
G75*
G02X168217Y125237I3516J2862*
G01*
G75*
G02X176839Y127195I4533*
G01*
X184749*
G75*
G02X185247Y127131I-1J-1973*
G01*
X185933Y126951*
Y128996*
X194543*
Y130093*
G37*
X185933Y122376D02*
G36*
Y122903D01*
X184497Y123280*
X176839*
G75*
G02X176266Y122376I-4089J1958*
G01*
X185933*
G37*
X700136Y130093D02*
G36*
X462165D01*
G75*
G02X453335I-4415*
G01*
X202207*
Y125710*
G75*
G02X209764Y122376I3043J-3335*
G01*
X660736*
G75*
G02X669764I4514*
G01*
X694234*
G75*
G02X693217Y125237I3517J2862*
G01*
G75*
G02X702043Y126696I4533*
G01*
Y128189*
X701369Y128863*
X701368Y128864*
X700136Y130093*
G37*
X702043Y122376D02*
G36*
Y123779D01*
G75*
G02X701266Y122376I-4293J1459*
G01*
X702043*
G37*
X705793Y130093D02*
G36*
X705624D01*
G75*
G02X705793Y129787I-1621J-1090*
G01*
Y130093*
G37*
X749543D02*
G36*
X709707D01*
Y122376*
X724234*
G75*
G02X723217Y125237I3516J2862*
G01*
G75*
G02X731839Y127195I4533*
G01*
X739749*
G75*
G02X740247Y127131I-1J-1973*
G01*
X740933Y126951*
Y128996*
X749543*
Y130093*
G37*
X740933Y122376D02*
G36*
Y122903D01*
X739497Y123280*
X731839*
G75*
G02X731266Y122376I-4089J1958*
G01*
X740933*
G37*
X764764D02*
G36*
X907500D01*
Y130093*
X757207*
Y125710*
G75*
G02X764764Y122376I3043J-3335*
G01*
G37*
X145131Y130093D02*
G36*
X144260Y130963D01*
G75*
G02X138217Y135237I-1510J4274*
G01*
X8000*
Y130093*
X145131*
G37*
X155137D02*
G36*
X149988Y135237D01*
X147283*
G75*
G02X147026Y133733I-4546J2*
G01*
X150671Y130093*
X155137*
G37*
X194543Y135237D02*
G36*
X177283D01*
G75*
G02X168217I-4533*
G01*
X155526*
X160675Y130093*
X194543*
Y135237*
G37*
X700136Y130093D02*
G36*
X699263Y130964D01*
G75*
G02X693217Y135237I-1513J4274*
G01*
X202207*
Y130093*
X453335*
G75*
G02X462165I4415*
G01*
X700136*
G37*
X704993Y135237D02*
G36*
X702283D01*
G75*
G02X702028Y133735I-4545J2*
G01*
X704132Y131636*
X704137Y131631*
X705382Y130387*
G75*
G02X705624Y130093I-1379J-1384*
G01*
X705793*
Y134439*
X704993Y135237*
G37*
X749543D02*
G36*
X732283D01*
G75*
G02X723217I-4533*
G01*
X709707*
Y130093*
X749543*
Y135237*
G37*
X757207D02*
G36*
Y130093D01*
X907500*
Y135237*
X757207*
G37*
X149988D02*
G36*
X144259Y140962D01*
G75*
G02X138217Y145237I-1509J4275*
G01*
X8000*
Y135237*
X138217*
G75*
G02X147283I4533*
G01*
X149988*
G37*
X194543Y145237D02*
G36*
X177283D01*
G75*
G02X168217I-4533*
G01*
X147283*
G75*
G02X147026Y143731I-4543J2*
G01*
X155526Y135237*
X168217*
G75*
G02X177283I4533*
G01*
X194543*
Y145237*
G37*
X704993Y135237D02*
G36*
X699260Y140963D01*
G75*
G02X693217Y145237I-1510J4274*
G01*
X202207*
Y135237*
X693217*
G75*
G02X702283I4533*
G01*
X704993*
G37*
X749543Y145237D02*
G36*
X732283D01*
G75*
G02X723217I-4533*
G01*
X702283*
G75*
G02X702026Y143733I-4546J2*
G01*
X709133Y136635*
G75*
G02X709707Y135250I-1384J-1385*
G01*
Y135237*
X723217*
G75*
G02X732283I4533*
G01*
X749543*
Y145237*
G37*
X757207D02*
G36*
Y135237D01*
X907500*
Y145237*
X757207*
G37*
X194543D02*
G36*
Y150689D01*
X189992Y155237*
X177283*
G75*
G02X168217I-4533*
G01*
X147283*
G75*
G02X138217I-4533*
G01*
X8000*
Y145237*
X138217*
G75*
G02X147283I4533*
G01*
X168217*
G75*
G02X177283I4533*
G01*
X194543*
G37*
X198293Y155237D02*
G36*
X195530D01*
X197884Y152885*
G75*
G02X198293Y152287I-1381J-1382*
G01*
Y155237*
G37*
X749543Y145237D02*
G36*
Y150689D01*
X744992Y155237*
X732283*
G75*
G02X723217I-4533*
G01*
X702283*
G75*
G02X693217I-4533*
G01*
X202207*
Y145237*
X693217*
G75*
G02X702283I4533*
G01*
X723217*
G75*
G02X732283I4533*
G01*
X749543*
G37*
X753293Y155237D02*
G36*
X750530D01*
X752884Y152885*
G75*
G02X753293Y152287I-1381J-1382*
G01*
Y155237*
G37*
X757207D02*
G36*
Y145237D01*
X907500*
Y155237*
X757207*
G37*
X189992D02*
G36*
X180348Y164876D01*
X177269*
G75*
G02X168231I-4519J361*
G01*
X147269*
G75*
G02X138231I-4519J361*
G01*
X93209*
G75*
G02X88301Y159969I-4907*
G01*
G75*
G02X83394Y164876J4907*
G01*
X33209*
G75*
G02X28301Y159969I-4907*
G01*
G75*
G02X23394Y164876J4907*
G01*
X8000*
Y155237*
X138217*
G75*
G02X147283I4533*
G01*
X168217*
G75*
G02X177283I4533*
G01*
X189992*
G37*
X198293D02*
G36*
Y156939D01*
X190356Y164876*
X185886*
X195530Y155237*
X198293*
G37*
X744992D02*
G36*
X735348Y164876D01*
X732269*
G75*
G02X723231I-4519J361*
G01*
X702269*
G75*
G02X693231I-4519J361*
G01*
X648209*
G75*
G02X643301Y159969I-4907*
G01*
G75*
G02X638394Y164876J4907*
G01*
X588209*
G75*
G02X583301Y159969I-4907*
G01*
G75*
G02X578394Y164876J4907*
G01*
X383209*
G75*
G02X378301Y159969I-4907*
G01*
G75*
G02X373394Y164876J4907*
G01*
X323209*
G75*
G02X318301Y159969I-4907*
G01*
G75*
G02X313394Y164876J4907*
G01*
X293209*
G75*
G02X288301Y159969I-4907*
G01*
G75*
G02X283394Y164876J4907*
G01*
X233209*
G75*
G02X228301Y159969I-4907*
G01*
G75*
G02X223394Y164876J4907*
G01*
X195893*
X201632Y159137*
G75*
G02X202207Y157750I-1381J-1386*
G01*
Y157750*
Y155237*
X693217*
G75*
G02X702283I4533*
G01*
X723217*
G75*
G02X732283I4533*
G01*
X744992*
G37*
X753293D02*
G36*
Y156939D01*
X745352Y164876*
X740886*
X750530Y155237*
X753293*
G37*
X757207D02*
G36*
X907500D01*
Y164876*
X848209*
G75*
G02X843301Y159969I-4907*
G01*
G75*
G02X838394Y164876J4907*
G01*
X788209*
G75*
G02X783301Y159969I-4907*
G01*
G75*
G02X778394Y164876J4907*
G01*
X750890*
X756634Y159135*
G75*
G02X757207Y157750I-1387J-1385*
G01*
Y155237*
G37*
X180348Y164876D02*
G36*
X174258Y170962D01*
G75*
G02X168231Y174876I-1508J4275*
G01*
X147269*
G75*
G02X138231I-4519J361*
G01*
X93209*
G75*
G02X88301Y169969I-4907*
G01*
G75*
G02X83394Y174876J4907*
G01*
X33209*
G75*
G02X28301Y169969I-4907*
G01*
G75*
G02X23394Y174876J4907*
G01*
X8000*
Y164876*
X23394*
G75*
G02X28301Y169783I4907*
G01*
G75*
G02X33209Y164876J-4907*
G01*
X83394*
G75*
G02X88301Y169783I4907*
G01*
G75*
G02X93209Y164876J-4907*
G01*
X138231*
G75*
G02X138217Y165237I4520J363*
G01*
G75*
G02X147283I4533*
G01*
G75*
G02X147269Y164876I-4534J2*
G01*
X168231*
G75*
G02X168217Y165237I4520J363*
G01*
G75*
G02X177283I4533*
G01*
G75*
G02X177269Y164876I-4534J2*
G01*
X180348*
G37*
X190356D02*
G36*
X180356Y174876D01*
X177269*
G75*
G02X177026Y173731I-4528J363*
G01*
X185886Y164876*
X190356*
G37*
X735348D02*
G36*
X729258Y170962D01*
G75*
G02X723231Y174876I-1508J4275*
G01*
X710144*
X709137Y173868*
G75*
G02X707750Y173293I-1386J1382*
G01*
X701845*
G75*
G02X693231Y174876I-4095J1944*
G01*
X648209*
G75*
G02X643301Y169969I-4907*
G01*
G75*
G02X638394Y174876J4907*
G01*
X588209*
G75*
G02X583301Y169969I-4907*
G01*
G75*
G02X578394Y174876J4907*
G01*
X473456*
G75*
G02X473839Y172751I-5704J-2125*
G01*
G75*
G02Y172750I-6445J0*
G01*
G75*
G02X461661I-6089*
G01*
G75*
G02Y172751I6445J0*
G01*
G75*
G02X462044Y174876I6087*
G01*
X453839*
Y166661*
X441661*
Y174876*
X383209*
G75*
G02X378301Y169969I-4907*
G01*
G75*
G02X373394Y174876J4907*
G01*
X323209*
G75*
G02X318301Y169969I-4907*
G01*
G75*
G02X313394Y174876J4907*
G01*
X293209*
G75*
G02X288301Y169969I-4907*
G01*
G75*
G02X283394Y174876J4907*
G01*
X233209*
G75*
G02X228301Y169969I-4907*
G01*
G75*
G02X223394Y174876J4907*
G01*
X185892*
X195893Y164876*
X223394*
G75*
G02X228301Y169783I4907*
G01*
G75*
G02X233209Y164876J-4907*
G01*
X283394*
G75*
G02X288301Y169783I4907*
G01*
G75*
G02X293209Y164876J-4907*
G01*
X313394*
G75*
G02X318301Y169783I4907*
G01*
G75*
G02X323209Y164876J-4907*
G01*
X373394*
G75*
G02X378301Y169783I4907*
G01*
G75*
G02X383209Y164876J-4907*
G01*
X578394*
G75*
G02X583301Y169783I4907*
G01*
G75*
G02X588209Y164876J-4907*
G01*
X638394*
G75*
G02X643301Y169783I4907*
G01*
G75*
G02X648209Y164876J-4907*
G01*
X693231*
G75*
G02X693217Y165237I4520J363*
G01*
G75*
G02X702283I4533*
G01*
G75*
G02X702269Y164876I-4534J2*
G01*
X723231*
G75*
G02X723217Y165237I4520J363*
G01*
G75*
G02X732283I4533*
G01*
G75*
G02X732269Y164876I-4534J2*
G01*
X735348*
G37*
X745352D02*
G36*
X735347Y174876D01*
X732269*
G75*
G02X732026Y173731I-4528J363*
G01*
X740886Y164876*
X745352*
G37*
X750890D02*
G36*
X778394D01*
G75*
G02X783301Y169783I4907*
G01*
G75*
G02X788209Y164876J-4907*
G01*
X838394*
G75*
G02X843301Y169783I4907*
G01*
G75*
G02X848209Y164876J-4907*
G01*
X907500*
Y174876*
X848209*
G75*
G02X843301Y169969I-4907*
G01*
G75*
G02X838394Y174876J4907*
G01*
X788209*
G75*
G02X783301Y169969I-4907*
G01*
G75*
G02X778394Y174876J4907*
G01*
X740885*
X750890Y164876*
G37*
X180356Y174876D02*
G36*
X174267Y180965D01*
G75*
G02X168231Y184876I-1516J4273*
G01*
X158680*
G75*
G02X152409Y183293I-3430J374*
G01*
X146845*
G75*
G02X138231Y184876I-4095J1945*
G01*
X33209*
G75*
G02X28301Y179969I-4907*
G01*
G75*
G02X23394Y184876J4907*
G01*
X8000*
Y174876*
X23394*
G75*
G02X28301Y179783I4907*
G01*
G75*
G02X33209Y174876J-4907*
G01*
X83394*
G75*
G02X88301Y179783I4907*
G01*
G75*
G02X93209Y174876J-4907*
G01*
X138231*
G75*
G02X138217Y175237I4520J363*
G01*
G75*
G02X147283I4533*
G01*
G75*
G02X147269Y174876I-4534J2*
G01*
X168231*
G75*
G02X168217Y175237I4520J363*
G01*
G75*
G02X177283I4533*
G01*
G75*
G02X177269Y174876I-4543J2*
G01*
X180356*
G37*
X441661D02*
G36*
Y178839D01*
X443084*
G75*
G02X441661Y182749I4665J3911*
G01*
G75*
G02Y182750I6445J0*
G01*
G75*
G02X442044Y184876I6089J0*
G01*
X323209*
G75*
G02X318301Y179969I-4907*
G01*
G75*
G02X313394Y184876J4907*
G01*
X233209*
G75*
G02X228301Y179969I-4907*
G01*
G75*
G02X223394Y184876J4907*
G01*
X177269*
G75*
G02X177029Y183739I-4520J361*
G01*
X185892Y174876*
X223394*
G75*
G02X228301Y179783I4907*
G01*
G75*
G02X233209Y174876J-4907*
G01*
X283394*
G75*
G02X288301Y179783I4907*
G01*
G75*
G02X293209Y174876J-4907*
G01*
X313394*
G75*
G02X318301Y179783I4907*
G01*
G75*
G02X323209Y174876J-4907*
G01*
X373394*
G75*
G02X378301Y179783I4907*
G01*
G75*
G02X383209Y174876J-4907*
G01*
X441661*
G37*
X461661Y184876D02*
G36*
X453456D01*
G75*
G02X453839Y182750I-5706J-2126*
G01*
G75*
G02Y182749I-6445J0*
G01*
G75*
G02X452416Y178839I-6087*
G01*
X453839*
Y174876*
X462044*
G75*
G02X463084Y176661I5704J-2125*
G01*
X461661*
Y184876*
G37*
X693231D02*
G36*
X588209D01*
G75*
G02X583301Y179969I-4907*
G01*
G75*
G02X578394Y184876J4907*
G01*
X473839*
Y176661*
X472416*
G75*
G02X473456Y174876I-4665J-3911*
G01*
X578394*
G75*
G02X583301Y179783I4907*
G01*
G75*
G02X588209Y174876J-4907*
G01*
X638394*
G75*
G02X643301Y179783I4907*
G01*
G75*
G02X648209Y174876J-4907*
G01*
X693231*
G75*
G02X693217Y175237I4519J363*
G01*
Y175237*
G75*
G02X701833Y177207I4533*
G01*
X706939*
X711857Y182125*
G75*
G02X711800Y182750I3396J625*
G01*
G75*
G02X712272Y184492I3452J0*
G01*
X711635Y183854*
G75*
G02X710249Y183280I-1384J1382*
G01*
X701839*
G75*
G02X693231Y184876I-4089J1957*
G01*
G37*
X735347Y174876D02*
G36*
X729258Y180962D01*
G75*
G02X723231Y184876I-1508J4275*
G01*
X717967*
G75*
G02X718700Y182750I-2717J-2126*
G01*
G75*
G02X714625Y179357I-3450J0*
G01*
X710144Y174876*
X723231*
G75*
G02X723217Y175237I4520J363*
G01*
G75*
G02X732283I4533*
G01*
G75*
G02X732269Y174876I-4543J2*
G01*
X735347*
G37*
X740885D02*
G36*
X778394D01*
G75*
G02X783301Y179783I4907*
G01*
G75*
G02X788209Y174876J-4907*
G01*
X838394*
G75*
G02X843301Y179783I4907*
G01*
G75*
G02X848209Y174876J-4907*
G01*
X907500*
Y184876*
X788209*
G75*
G02X783301Y179969I-4907*
G01*
G75*
G02X778394Y184876J4907*
G01*
X732269*
G75*
G02X732026Y183731I-4528J363*
G01*
X740885Y174876*
G37*
X788839Y210250D02*
G36*
G75*
G02X776661I-6089D01*
G01*
X733839*
Y210250*
G75*
G02X722750Y206776I-6089*
G01*
G75*
G02X712750I-5000J3474*
G01*
G75*
G02X702750I-5000J3474*
G01*
G75*
G02X691661Y210250I-5000J3474*
G01*
Y210250*
X654606*
G75*
G02X650250Y205894I-4356*
G01*
G75*
G02X645894Y210250J4356*
G01*
X624606*
G75*
G02X620250Y205894I-4356*
G01*
G75*
G02X615894Y210250J4356*
G01*
X588839*
G75*
G02X576661I-6089*
G01*
X389606*
G75*
G02X385250Y205894I-4356*
G01*
G75*
G02X380894Y210250J4356*
G01*
X359606*
G75*
G02X355250Y205894I-4356*
G01*
G75*
G02X350894Y210250J4356*
G01*
X323839*
G75*
G02X311661I-6089*
G01*
X299606*
G75*
G02X295250Y205894I-4356*
G01*
G75*
G02X290894Y210250J4356*
G01*
X269606*
G75*
G02X265250Y205894I-4356*
G01*
G75*
G02X260894Y210250J4356*
G01*
X233839*
G75*
G02X221661I-6089*
G01*
X178839*
Y210250*
G75*
G02X167750Y206776I-6089*
G01*
G75*
G02X157750I-5000J3474*
G01*
G75*
G02X147750I-5000J3474*
G01*
G75*
G02X136661Y210250I-5000J3474*
G01*
Y210250*
X99606*
G75*
G02X95250Y205894I-4356*
G01*
G75*
G02X90894Y210250J4356*
G01*
X69606*
G75*
G02X65250Y205894I-4356*
G01*
G75*
G02X60894Y210250J4356*
G01*
X33839*
G75*
G02X21661I-6089*
G01*
X8000*
Y184876*
X23394*
G75*
G02X28301Y189783I4907*
G01*
G75*
G02X33209Y184876J-4907*
G01*
X138231*
G75*
G02X138217Y185237I4520J363*
G01*
G75*
G02X146833Y187207I4533*
G01*
X152409*
G75*
G02X158700Y185250I2841J-1958*
G01*
G75*
G02X158680Y184876I-3450J1*
G01*
X168231*
G75*
G02X168217Y185237I4520J363*
G01*
G75*
G02X177283I4533*
G01*
G75*
G02X177269Y184876I-4535J2*
G01*
X223394*
G75*
G02X228301Y189783I4907*
G01*
G75*
G02X233209Y184876J-4907*
G01*
X313394*
G75*
G02X318301Y189783I4907*
G01*
G75*
G02X323209Y184876J-4907*
G01*
X442044*
G75*
G02X453456I5706J-2126*
G01*
X461661*
Y188839*
X473839*
Y184876*
X578394*
G75*
G02X583301Y189783I4907*
G01*
G75*
G02X588209Y184876J-4907*
G01*
X693231*
G75*
G02X693217Y185237I4520J363*
G01*
G75*
G02X701839Y187195I4533*
G01*
X709439*
X716857Y194623*
G75*
G02X716800Y195250I3431J631*
G01*
G75*
G02X723700I3450*
G01*
G75*
G02X719628Y191857I-3450*
G01*
X713504Y185726*
G75*
G02X717967Y184876I1746J-2976*
G01*
X723231*
G75*
G02X723217Y185237I4520J363*
G01*
G75*
G02X732283I4533*
G01*
G75*
G02X732269Y184876I-4543J2*
G01*
X778394*
G75*
G02X783301Y189783I4907*
G01*
G75*
G02X788209Y184876J-4907*
G01*
X907500*
Y210250*
X854606*
G75*
G02X850250Y205894I-4356*
G01*
G75*
G02X845894Y210250J4356*
G01*
X824606*
G75*
G02X820250Y205894I-4356*
G01*
G75*
G02X815894Y210250J4356*
G01*
X788839*
G37*
X21661Y215250D02*
G36*
X8000D01*
Y210250*
X21661*
G75*
G02Y210251I6445J0*
G01*
G75*
G02X23084Y214161I6087*
G01*
X21661*
Y215250*
G37*
X136661D02*
G36*
X33839D01*
Y214161*
X32416*
G75*
G02X33839Y210251I-4665J-3911*
G01*
G75*
G02Y210250I-6445J0*
G01*
X60894*
G75*
G02X65250Y214606I4356*
G01*
G75*
G02X69606Y210250J-4356*
G01*
X90894*
G75*
G02X95250Y214606I4356*
G01*
G75*
G02X99606Y210250J-4356*
G01*
X136661*
G75*
G02Y210251I6445J0*
G01*
G75*
G02X138084Y214161I6087*
G01*
X136661*
Y215250*
G37*
X221661D02*
G36*
X178839D01*
Y214161*
X177416*
G75*
G02X178839Y210251I-4665J-3911*
G01*
G75*
G02Y210250I-6445J0*
G01*
X221661*
G75*
G02Y210251I6445J0*
G01*
G75*
G02X223084Y214161I6087*
G01*
X221661*
Y215250*
G37*
X311661D02*
G36*
X233839D01*
Y214161*
X232416*
G75*
G02X233839Y210251I-4665J-3911*
G01*
G75*
G02Y210250I-6445J0*
G01*
X260894*
G75*
G02X265250Y214606I4356*
G01*
G75*
G02X269606Y210250J-4356*
G01*
X290894*
G75*
G02X295250Y214606I4356*
G01*
G75*
G02X299606Y210250J-4356*
G01*
X311661*
G75*
G02Y210251I6445J0*
G01*
G75*
G02X313084Y214161I6087*
G01*
X311661*
Y215250*
G37*
X576661D02*
G36*
X323839D01*
Y214161*
X322416*
G75*
G02X323839Y210251I-4665J-3911*
G01*
G75*
G02Y210250I-6445J0*
G01*
X350894*
G75*
G02X355250Y214606I4356*
G01*
G75*
G02X359606Y210250J-4356*
G01*
X380894*
G75*
G02X385250Y214606I4356*
G01*
G75*
G02X389606Y210250J-4356*
G01*
X576661*
G75*
G02Y210251I6445J0*
G01*
G75*
G02X578084Y214161I6087*
G01*
X576661*
Y215250*
G37*
X691661D02*
G36*
X588839D01*
Y214161*
X587416*
G75*
G02X588839Y210251I-4665J-3911*
G01*
G75*
G02Y210250I-6445J0*
G01*
X615894*
G75*
G02X620250Y214606I4356*
G01*
G75*
G02X624606Y210250J-4356*
G01*
X645894*
G75*
G02X650250Y214606I4356*
G01*
G75*
G02X654606Y210250J-4356*
G01*
X691661*
G75*
G02Y210251I6445J0*
G01*
G75*
G02X693084Y214161I6087*
G01*
X691661*
Y215250*
G37*
X776661D02*
G36*
X733839D01*
Y214161*
X732416*
G75*
G02X733839Y210251I-4665J-3911*
G01*
G75*
G02Y210250I-6445J0*
G01*
X776661*
G75*
G02Y210251I6445J0*
G01*
G75*
G02X778084Y214161I6087*
G01*
X776661*
Y215250*
G37*
X788839D02*
G36*
Y214161D01*
X787416*
G75*
G02X788839Y210251I-4665J-3911*
G01*
G75*
G02Y210250I-6445J0*
G01*
X815894*
G75*
G02X820250Y214606I4356*
G01*
G75*
G02X824606Y210250J-4356*
G01*
X845894*
G75*
G02X850250Y214606I4356*
G01*
G75*
G02X854606Y210250J-4356*
G01*
X907500*
Y215250*
X788839*
G37*
X21661Y220250D02*
G36*
X8000D01*
Y215250*
X21661*
Y220250*
G37*
X136661D02*
G36*
X99606D01*
G75*
G02X95250Y215894I-4356*
G01*
G75*
G02X90894Y220250J4356*
G01*
X69606*
Y215894*
X60894*
Y220250*
X33839*
Y215250*
X136661*
Y220250*
G37*
X221661D02*
G36*
X178839D01*
Y215250*
X221661*
Y220250*
G37*
X311661D02*
G36*
X299606D01*
G75*
G02X295250Y215894I-4356*
G01*
G75*
G02X290894Y220250J4356*
G01*
X269606*
Y215894*
X260894*
Y220250*
X233839*
Y215250*
X311661*
Y220250*
G37*
X576661D02*
G36*
X389606D01*
G75*
G02X385250Y215894I-4356*
G01*
G75*
G02X380894Y220250J4356*
G01*
X359606*
Y215894*
X350894*
Y220250*
X323839*
Y215250*
X576661*
Y220250*
G37*
X691661D02*
G36*
X655270D01*
X654546Y219525*
G75*
G02X645894Y220250I-4296J724*
G01*
Y220250*
X624606*
Y215894*
X615894*
Y220250*
X588839*
Y215250*
X691661*
Y220250*
G37*
X854606D02*
G36*
G75*
G02X850250Y215894I-4356D01*
G01*
G75*
G02X845954Y219525J4356*
G01*
X845230Y220250*
X824606*
Y215894*
X815894*
Y220250*
X788839*
Y215250*
X907500*
Y220250*
X854606*
G37*
X776661D02*
G36*
X733839D01*
Y215250*
X776661*
Y220250*
G37*
X97730Y242750D02*
G36*
X8000D01*
Y220250*
X21661*
Y226339*
X33839*
Y220250*
X60894*
Y224606*
X69606*
Y220250*
X90894*
G75*
G02X91700Y222775I4357*
G01*
Y235250*
G75*
G02X92742Y237762I3551J0*
G01*
X97730Y242750*
G37*
X290894Y220250D02*
G36*
G75*
G02X291700Y222775I4357D01*
G01*
Y239200*
X104220*
X98800Y233780*
Y222775*
G75*
G02X99606Y220250I-3550J-2525*
G01*
X136661*
Y226339*
X178839*
Y220250*
X221661*
Y226339*
X233839*
Y220250*
X260894*
Y224606*
X269606*
Y220250*
X290894*
G37*
X380894D02*
G36*
G75*
G02X381700Y222775I4357D01*
G01*
Y239200*
X298800*
Y222775*
G75*
G02X299606Y220250I-3550J-2525*
G01*
X311661*
Y226339*
X323839*
Y220250*
X350894*
Y224606*
X359606*
Y220250*
X380894*
G37*
X749200Y242750D02*
G36*
X388800D01*
Y222775*
G75*
G02X389606Y220250I-3550J-2525*
G01*
X576661*
Y226339*
X588839*
Y220250*
X615894*
Y224606*
X624606*
Y220250*
X645894*
G75*
G02X649525Y224546I4356*
G01*
X660238Y235258*
G75*
G02X662750Y236300I2513J-2509*
G01*
X749200*
Y242750*
G37*
X845230Y220250D02*
G36*
X836280Y229200D01*
X664220*
X655270Y220250*
X691661*
Y226339*
X733839*
Y220250*
X776661*
Y226339*
X788839*
Y220250*
X815894*
Y224606*
X824606*
Y220250*
X845230*
G37*
X890412Y242750D02*
G36*
X887831Y240169D01*
G75*
G02X885246Y239100I-2581J2582*
G01*
X884862*
G75*
G02X875750Y240463I-4112J3650*
G01*
G75*
G02X865252Y242750I-5000J2287*
G01*
X853839*
Y236661*
X841661*
Y238084*
G75*
G02X831661Y242750I-3911J4666*
G01*
X756300*
Y236300*
X837750*
G75*
G02X840262Y235258I0J-3551*
G01*
X850975Y224546*
G75*
G02X854606Y220250I-725J-4296*
G01*
X907500*
Y242750*
X890412*
G37*
X97730D02*
G36*
X92742Y247738D01*
G75*
G02X91700Y250250I2509J2513*
G01*
Y280250*
X57400*
G75*
G02X33100I-12150*
G01*
X8000*
Y242750*
X97730*
G37*
X381700Y280250D02*
G36*
X372400D01*
G75*
G02X348100I-12150*
G01*
X98800*
Y251720*
X104220Y246300*
X381700*
Y280250*
G37*
X749200D02*
G36*
X388800D01*
Y242750*
X749200*
Y280250*
G37*
X865252Y242750D02*
G36*
G75*
G02X868463Y247750I5498D01*
G01*
G75*
G02X865252Y252750I2287J5000*
G01*
G75*
G02X868463Y257750I5498*
G01*
G75*
G02X865252Y262750I2287J5000*
G01*
G75*
G02X867594Y267252I5498*
G01*
X865252*
Y278248*
X875231*
X874280Y279200*
X760250*
G75*
G02X757738Y280242I0J3551*
G01*
X757730Y280250*
X756300*
Y242750*
X831661*
G75*
G02X841661Y247416I6089*
G01*
Y248839*
X853839*
Y242750*
X865252*
G37*
X891600Y280250D02*
G36*
X883270D01*
G75*
G02X884300Y277750I-2522J-2500*
G01*
Y276948*
G75*
G02X886248Y272750I-3550J-4198*
G01*
G75*
G02X883037Y267750I-5498*
G01*
G75*
G02X886248Y262750I-2287J-5000*
G01*
G75*
G02X883037Y257750I-5498*
G01*
G75*
G02X886248Y252750I-2287J-5000*
G01*
G75*
G02X883037Y247750I-5498*
G01*
G75*
G02X884293Y246954I-2280J-4987*
G01*
X891600Y254262*
Y280250*
G37*
X898900D02*
G36*
Y252750D01*
G75*
G02Y252749I-3981J0*
G01*
G75*
G02X897831Y250169I-3648*
G01*
X890412Y242750*
X907500*
Y280250*
X898900*
G37*
X91700Y295250D02*
G36*
X8000D01*
Y280250*
X33100*
G75*
G02X57400I12150*
G01*
X91700*
Y295250*
G37*
X392730D02*
G36*
X98800D01*
Y280250*
X348100*
G75*
G02X372400I12150*
G01*
X381700*
Y282750*
G75*
G02X382742Y285262I3551J0*
G01*
X392730Y295250*
G37*
X597252D02*
G36*
X402770D01*
X388800Y281280*
Y280250*
X749200*
Y286052*
G75*
G02X747750Y287963I3549J4198*
G01*
G75*
G02X737750I-5000J2287*
G01*
G75*
G02X727750I-5000J2287*
G01*
G75*
G02X717750I-5000J2287*
G01*
G75*
G02X707750I-5000J2287*
G01*
G75*
G02X697750I-5000J2287*
G01*
G75*
G02X688248Y287094I-5000J2287*
G01*
Y284752*
X677252*
Y287094*
G75*
G02X667750Y287963I-4502J3156*
G01*
G75*
G02X657750I-5000J2287*
G01*
G75*
G02X647750I-5000J2287*
G01*
G75*
G02X637750I-5000J2287*
G01*
G75*
G02X627750I-5000J2287*
G01*
G75*
G02X617750I-5000J2287*
G01*
G75*
G02X608248Y287094I-5000J2287*
G01*
Y284752*
X597252*
Y295250*
G37*
X757730Y280250D02*
G36*
X756300Y281680D01*
Y280250*
X757730*
G37*
X891600Y295250D02*
G36*
X886248D01*
G75*
G02X875750Y292963I-5498*
G01*
G75*
G02X865252Y295250I-5000J2287*
G01*
X853839*
Y289161*
X841661*
Y290584*
G75*
G02X831661Y295250I-3911J4666*
G01*
X756300*
Y294448*
G75*
G02X758248Y290250I-3550J-4198*
G01*
Y290250*
G75*
G02Y290245I-5430J-2*
G01*
G75*
G02X758229Y289792I-5332*
G01*
X761720Y286300*
X875750*
G75*
G02X878262Y285258I0J-3551*
G01*
X883258Y280262*
G75*
G02X883270Y280250I-2519J-2531*
G01*
X891600*
Y295250*
G37*
X898900D02*
G36*
Y280250D01*
X907500*
Y295250*
X898900*
G37*
X91700Y310250D02*
G36*
X8000D01*
Y295250*
X91700*
Y310250*
G37*
X407730D02*
G36*
X98800D01*
Y295250*
X392730*
X407730Y310250*
G37*
X600950D02*
G36*
X430926D01*
G75*
G02X421385I-4770J2487*
G01*
X417770*
X402770Y295250*
X597252*
Y295748*
X600950*
Y310250*
G37*
X865252Y295250D02*
G36*
G75*
G02X868463Y300250I5498D01*
G01*
G75*
G02X865252Y305250I2287J5000*
G01*
G75*
G02X868463Y310250I5498*
G01*
X756300*
Y295250*
X831661*
G75*
G02X841661Y299916I6089*
G01*
Y301339*
X853839*
Y295250*
X865252*
G37*
X891600Y310250D02*
G36*
X883037D01*
G75*
G02X886248Y305250I-2287J-5000*
G01*
G75*
G02X883037Y300250I-5498*
G01*
G75*
G02X886248Y295250I-2287J-5000*
G01*
X891600*
Y310250*
G37*
X898900D02*
G36*
Y295250D01*
X907500*
Y310250*
X898900*
G37*
X91700Y342750D02*
G36*
X8000D01*
Y310250*
X91700*
Y342750*
G37*
X407730Y310250D02*
G36*
X416622Y319143D01*
G75*
G02X411427Y322750I-1345J3607*
G01*
G75*
G02X412793Y325691I3850J0*
G01*
Y342750*
X283700*
G75*
G02X277307Y340950I-3450*
G01*
X236943*
G75*
G02X230550Y342750I-2943J1800*
G01*
X98800*
Y310250*
X407730*
G37*
X421700Y342750D02*
G36*
X417707D01*
Y325736*
G75*
G02X419127Y322750I-2430J-2985*
G01*
G75*
G02X418885Y321405I-3849J0*
G01*
X422700Y325220*
Y339904*
G75*
G02X421700Y342750I3551J2846*
G01*
G37*
X421385Y310250D02*
G36*
G75*
G02X420776Y312737I4770J2487D01*
G01*
G75*
G02Y312745I5291J4*
G01*
G75*
G02X420803Y313283I5261*
G01*
X417770Y310250*
X421385*
G37*
X435950Y342750D02*
G36*
X430800D01*
G75*
G02X429800Y339904I-4551J0*
G01*
Y323750*
G75*
G02X428758Y321238I-3551J0*
G01*
X425610Y318090*
G75*
G02X428468Y317595I545J-5355*
G01*
X435950Y325078*
Y342750*
G37*
X600950D02*
G36*
X439550D01*
Y324332*
G75*
G02X439021Y323057I-1800*
G01*
X431013Y315050*
G75*
G02X431535Y312737I-4863J-2313*
G01*
G75*
G02X430926Y310250I-5380*
G01*
X600950*
Y342750*
G37*
X891600D02*
G36*
X782628D01*
G75*
G02X783700Y340250I-2378J-2500*
G01*
G75*
G02X782050Y337307I-3450*
G01*
Y328193*
G75*
G02X783700Y325250I-1800J-2943*
G01*
G75*
G02X776800I-3450*
G01*
G75*
G02X778450Y328193I3450*
G01*
Y337307*
G75*
G02X776800Y340250I1800J2943*
G01*
G75*
G02X777872Y342750I3450*
G01*
X756300*
Y310250*
X868463*
G75*
G02X865252Y315250I2287J5000*
G01*
G75*
G02X867594Y319752I5498*
G01*
X865252*
Y330748*
X876248*
Y328406*
G75*
G02X886248Y325250I4502J-3156*
G01*
G75*
G02X883037Y320250I-5498*
G01*
G75*
G02X886248Y315250I-2287J-5000*
G01*
G75*
G02X883037Y310250I-5498*
G01*
X891600*
Y342750*
G37*
X898900D02*
G36*
Y310250D01*
X907500*
Y342750*
X898900*
G37*
X91700Y360250D02*
G36*
X57400D01*
G75*
G02X33100I-12150*
G01*
X22800*
Y355000*
G75*
G02X21750Y353950I-1050*
G01*
X15250*
G75*
G02X14200Y355000J1050*
G01*
Y360250*
X8000*
Y342750*
X91700*
Y360250*
G37*
X412793D02*
G36*
X372400D01*
G75*
G02X348100I-12150*
G01*
X98800*
Y342750*
X230550*
G75*
G02X236943Y344550I3450*
G01*
X277307*
G75*
G02X283700Y342750I2943J-1800*
G01*
X412793*
Y360250*
G37*
X421700Y342750D02*
G36*
G75*
G02X422543Y345388I4551D01*
G01*
Y360250*
X417707*
Y342750*
X421700*
G37*
X434300Y360250D02*
G36*
X429957D01*
Y345388*
G75*
G02X430800Y342750I-3708J-2638*
G01*
X435950*
Y357307*
G75*
G02X434300Y360250I1800J2943*
G01*
G37*
X593450D02*
G36*
X441200D01*
G75*
G02X439550Y357307I-3450*
G01*
Y342750*
X600950*
Y345318*
G75*
G02X597500Y350250I1800J4932*
G01*
G75*
G02X597990Y352465I5251*
G01*
X593979Y356476*
G75*
G02X593450Y357750I1272J1274*
G01*
Y360250*
G37*
X891600D02*
G36*
X885932D01*
G75*
G02X875730Y358812I-5203J0*
G01*
G75*
G02X865527Y360250I-5000J1439*
G01*
X842972*
Y359457*
X834339*
Y360250*
X831161*
Y359457*
X822528*
Y360250*
X809498*
G75*
G02X801599Y355304I-5498J0*
G01*
X800274Y353979*
G75*
G02X799000Y353450I-1274J1272*
G01*
X762750*
G75*
G02X761476Y353979J1800*
G01*
X757481Y357974*
G75*
G02X754351Y355250I-4731J2276*
G01*
G75*
G02X758000Y350250I-1601J-5000*
G01*
G75*
G02X756300Y346382I-5250*
G01*
Y342750*
X777872*
G75*
G02X782628I2378J-2500*
G01*
X891600*
Y360250*
G37*
X898900D02*
G36*
Y342750D01*
X907500*
Y360250*
X898900*
G37*
X14200Y392750D02*
G36*
X8000D01*
Y360250*
X14200*
Y392750*
G37*
X91700Y360250D02*
G36*
Y368780D01*
X86280Y374200*
X42750*
G75*
G02X40238Y375242I0J3551*
G01*
X32742Y382738*
G75*
G02X31700Y385250I2509J2513*
G01*
Y390225*
G75*
G02X30894Y392750I3550J2525*
G01*
X22800*
Y360250*
X33100*
G75*
G02X57400I12150*
G01*
X91700*
G37*
X412793Y392750D02*
G36*
X178839D01*
Y386661*
X136661*
Y392750*
X108839*
Y386661*
X96661*
Y392750*
X69606*
Y388394*
X60894*
Y392750*
X39606*
G75*
G02X38800Y390225I-4357*
G01*
Y386720*
X44220Y381300*
X87750*
G75*
G02X90262Y380258I0J-3551*
G01*
X97758Y372762*
G75*
G02X98800Y370250I-2509J-2513*
G01*
Y360250*
X348100*
G75*
G02X372400I12150*
G01*
X412793*
Y392750*
G37*
X422543Y360250D02*
G36*
Y368764D01*
G75*
G02X420776Y372750I3614J3986*
G01*
G75*
G02X422606Y376793I5381*
G01*
Y392750*
X417707*
Y360250*
X422543*
G37*
X434300D02*
G36*
G75*
G02X435950Y363193I3450D01*
G01*
Y369871*
G75*
G02X434300Y372815I1800J2943*
G01*
G75*
G02X435950Y375758I3450*
G01*
Y387370*
G75*
G02X434300Y390314I1800J2943*
G01*
G75*
G02X435307Y392750I3450*
G01*
X429706*
Y376793*
G75*
G02X431535Y372750I-3550J-4043*
G01*
G75*
G02X429957Y368944I-5380*
G01*
Y360250*
X434300*
G37*
X593450Y392750D02*
G36*
X440193D01*
G75*
G02X441200Y390314I-2443J-2436*
G01*
G75*
G02X439550Y387370I-3450*
G01*
Y375758*
G75*
G02X441200Y372815I-1800J-2943*
G01*
G75*
G02X439550Y369871I-3450*
G01*
Y363193*
G75*
G02X441200Y360250I-1800J-2943*
G01*
X593450*
Y392750*
G37*
X822528Y360250D02*
G36*
Y363450D01*
X808471*
G75*
G02X809498Y360250I-4471J-3200*
G01*
Y360250*
X822528*
G37*
X834339Y392750D02*
G36*
X831161D01*
Y360250*
X834339*
Y392750*
G37*
X865527Y360250D02*
G36*
Y360250D01*
G75*
G02X866009Y362439I5202*
G01*
X865002Y363450*
X842972*
Y360250*
X865527*
G37*
X891600Y392750D02*
G36*
X885292D01*
G75*
G02X885932Y390250I-4563J-2500*
G01*
G75*
G02X882168Y385250I-5203*
G01*
G75*
G02X885932Y380250I-1438J-5000*
G01*
G75*
G02X882168Y375250I-5203*
G01*
G75*
G02X885932Y370250I-1438J-5000*
G01*
G75*
G02X882168Y365250I-5203*
G01*
G75*
G02X885932Y360250I-1438J-5000*
G01*
X891600*
Y392750*
G37*
X898900D02*
G36*
Y360250D01*
X907500*
Y392750*
X898900*
G37*
X14200Y402750D02*
G36*
X8000D01*
Y392750*
X14200*
Y402750*
G37*
X96661D02*
G36*
X69606D01*
G75*
G02X65250Y398394I-4356*
G01*
G75*
G02X60894Y402750J4356*
G01*
X39606*
G75*
G02X35250Y398394I-4356*
G01*
G75*
G02X30894Y402750J4356*
G01*
X22800*
Y392750*
X30894*
G75*
G02X35250Y397106I4356*
G01*
G75*
G02X39606Y392750J-4356*
G01*
X60894*
Y397106*
X69606*
Y392750*
X96661*
Y398839*
X98084*
G75*
G02X96661Y402749I4665J3911*
G01*
G75*
G02Y402750I6445J0*
G01*
G37*
X136661D02*
G36*
X108839D01*
G75*
G02Y402749I-6445J0*
G01*
G75*
G02X107416Y398839I-6087*
G01*
X108839*
Y392750*
X136661*
Y398839*
X138084*
G75*
G02X136661Y402749I4665J3911*
G01*
G75*
G02Y402750I6445J0*
G01*
G37*
X412793D02*
G36*
X178839D01*
G75*
G02Y402749I-6445J0*
G01*
G75*
G02X177416Y398839I-6087*
G01*
X178839*
Y392750*
X412793*
Y402750*
G37*
X422984D02*
G36*
X417707D01*
Y392750*
X422606*
Y401156*
G75*
G02X422984Y402750I3551J0*
G01*
G37*
X593450D02*
G36*
X432770D01*
X429706Y399685*
Y392750*
X435307*
G75*
G02X440193I2443J-2436*
G01*
X593450*
Y402750*
G37*
X834339D02*
G36*
X831161D01*
Y392750*
X834339*
Y402750*
G37*
X891600D02*
G36*
X885292D01*
G75*
G02X885932Y400250I-4563J-2500*
G01*
G75*
G02X882168Y395250I-5203*
G01*
G75*
G02X885292Y392750I-1438J-5000*
G01*
X891600*
Y402750*
G37*
X898900D02*
G36*
Y392750D01*
X907500*
Y402750*
X898900*
G37*
X14200Y410250D02*
G36*
X8000D01*
Y402750*
X14200*
Y410250*
G37*
X412793D02*
G36*
X22800D01*
Y402750*
X30894*
G75*
G02X35250Y407106I4356*
G01*
G75*
G02X39606Y402750J-4356*
G01*
X60894*
G75*
G02X65250Y407106I4356*
G01*
G75*
G02X69606Y402750J-4356*
G01*
X96661*
G75*
G02X108839I6089*
G01*
X136661*
Y402750*
G75*
G02X147750Y406224I6089*
G01*
G75*
G02X157750I5000J-3474*
G01*
G75*
G02X167750I5000J-3474*
G01*
G75*
G02X178839Y402750I5000J-3474*
G01*
Y402750*
X412793*
Y410250*
G37*
X430230D02*
G36*
X417707D01*
Y402750*
X422984*
G75*
G02X423647Y403668I3173J-1595*
G01*
X430230Y410250*
G37*
X593450D02*
G36*
X440270D01*
X432770Y402750*
X593450*
Y410250*
G37*
X834339D02*
G36*
X831161D01*
Y402750*
X834339*
Y410250*
G37*
X891600D02*
G36*
X885932D01*
G75*
G02X882168Y405250I-5203*
G01*
G75*
G02X885292Y402750I-1438J-5000*
G01*
X891600*
Y410250*
G37*
X898900D02*
G36*
Y402750D01*
X907500*
Y410250*
X898900*
G37*
X14200Y428124D02*
G36*
X8000D01*
Y410250*
X14200*
Y428124*
G37*
X412793Y410250D02*
G36*
Y414670D01*
G75*
G02X409675Y417793I2456J5569*
G01*
X321964*
G75*
G02X315150Y420250I-2964J2457*
G01*
G75*
G02X315191Y420807I3850J0*
G01*
X307873Y428124*
X177269*
G75*
G02X177283Y427763I-4520J-363*
G01*
G75*
G02X168667Y425793I-4533J0*
G01*
X163091*
G75*
G02X156800Y427750I-2841J1958*
G01*
G75*
G02X156820Y428124I3450J-1*
G01*
X153680*
G75*
G02X153700Y427750I-3430J-375*
G01*
G75*
G02X147074Y426402I-3450*
G01*
G75*
G02X138217Y427762I-4324J1361*
G01*
Y427763*
Y427763*
G75*
G02X138231Y428124I4533J-2*
G01*
X107106*
G75*
G02X102199Y423217I-4907*
G01*
G75*
G02X97291Y428124J4907*
G01*
X22800*
Y410250*
X412793*
G37*
X409161Y428124D02*
G36*
X361180D01*
G75*
G02X361200Y427750I-3430J-375*
G01*
G75*
G02X354300I-3450*
G01*
G75*
G02Y427752I3342J1*
G01*
G75*
G02X354320Y428124I3435J2*
G01*
X314379*
X318443Y424059*
G75*
G02X321964Y422707I557J-3809*
G01*
X409684*
G75*
G02X410584Y424152I5565J-2465*
G01*
X409161*
Y428124*
G37*
X482346D02*
G36*
X468964D01*
G75*
G02X466564I-1200J4617*
G01*
X458964*
G75*
G02X456563I-1200J4616*
G01*
X448964*
G75*
G02X446564I-1200J4617*
G01*
X435654*
X435262Y427732*
G75*
G02X432750Y426690I-2513J2509*
G01*
X421339*
Y424152*
X419916*
G75*
G02X421339Y420240I-4666J-3911*
G01*
G75*
G02X417707Y414670I-6089*
G01*
Y410250*
X430230*
X442728Y422748*
G75*
G02X445240Y423790I2513J-2509*
G01*
X494161*
Y426329*
X495584*
G75*
G02X495304Y426690I4462J3750*
G01*
X485250*
G75*
G02X482738Y427732I0J3551*
G01*
X482346Y428124*
G37*
X593450Y410250D02*
G36*
Y428124D01*
X540321*
G75*
G02X540335Y427750I-5071J-374*
G01*
G75*
G02X536174Y422750I-5085J0*
G01*
G75*
G02X540335Y417750I-924J-5000*
G01*
G75*
G02X530166Y417666I-5085*
G01*
G75*
G02X525165Y422750I84J5084*
G01*
G75*
G02X530166Y427834I5085*
G01*
G75*
G02X530179Y428124I5085J-82*
G01*
X505959*
G75*
G02X504916Y426329I-5707J2115*
G01*
X506339*
Y414152*
X494161*
Y416690*
X446711*
X440270Y410250*
X593450*
G37*
X769545Y428124D02*
G36*
X762422D01*
X763496Y427050*
X769504*
X769865Y427410*
G75*
G02X769545Y428124I5385J2839*
G01*
G37*
X788930D02*
G36*
X780955D01*
G75*
G02X780635Y427410I-5705J2125*
G01*
X780996Y427050*
X789529*
G75*
G02X788930Y428124I4471J3200*
G01*
G37*
X822528D02*
G36*
X809070D01*
G75*
G02X808471Y427050I-5071J2127*
G01*
X822528*
Y428124*
G37*
X834339Y410250D02*
G36*
Y428124D01*
X831161*
Y410250*
X834339*
G37*
X865981Y428124D02*
G36*
X842972D01*
Y427050*
X865750*
G75*
G02X867026Y426520I0J-1799*
G01*
X868560Y424979*
G75*
G02X869291Y425250I2151J-4683*
G01*
G75*
G02X865981Y428124I1438J5000*
G01*
G37*
X891600D02*
G36*
X885478D01*
G75*
G02X882168Y425250I-4748J2126*
G01*
G75*
G02X885932Y420250I-1438J-5000*
G01*
G75*
G02X882168Y415250I-5203*
G01*
G75*
G02X885932Y410250I-1438J-5000*
G01*
X891600*
Y428124*
G37*
X898900D02*
G36*
Y410250D01*
X907500*
Y428124*
X898900*
G37*
X14200Y432740D02*
G36*
X8000D01*
Y428124*
X14200*
Y432740*
G37*
X97291Y428124D02*
G36*
G75*
G02X100533Y432740I4907D01*
G01*
X22800*
Y428124*
X97291*
G37*
X138231D02*
G36*
G75*
G02X144260Y432037I4519J-361D01*
G01*
X144964Y432740*
X103865*
G75*
G02X107106Y428124I-1666J-4616*
G01*
X138231*
G37*
X152694Y432740D02*
G36*
X150504D01*
X148461Y430700*
G75*
G02X151058Y431104I1789J-2950*
G01*
X152694Y432740*
G37*
X307873Y428124D02*
G36*
X303257Y432740D01*
X157786*
X153604Y428558*
G75*
G02X153680Y428124I-3354J-807*
G01*
X156820*
G75*
G02X163091Y429707I3430J-374*
G01*
X168655*
G75*
G02X177269Y428124I4095J-1945*
G01*
X307873*
G37*
X354320D02*
G36*
G75*
G02X354396Y428558I3415J-374D01*
G01*
X350214Y432740*
X309763*
X314379Y428124*
X354320*
G37*
X409161Y432740D02*
G36*
X360117D01*
G75*
G02X355383I-2367J2510*
G01*
X355306*
X356942Y431104*
G75*
G02X361180Y428124I808J-3354*
G01*
X409161*
Y432740*
G37*
X446564Y428124D02*
G36*
G75*
G02X444578Y429190I1200J4617D01*
G01*
X436720*
X435654Y428124*
X446564*
G37*
X452994Y432740D02*
G36*
X452533D01*
G75*
G02X448964Y428124I-4770*
G01*
X456563*
G75*
G02X452994Y432740I1200J4616*
G01*
G37*
X462994D02*
G36*
X462533D01*
G75*
G02X458964Y428124I-4770*
G01*
X466564*
G75*
G02X462994Y432740I1200J4616*
G01*
G37*
X482346Y428124D02*
G36*
X481280Y429190D01*
X470949*
G75*
G02X468964Y428124I-3185J3550*
G01*
X482346*
G37*
X530179D02*
G36*
G75*
G02X534276Y432740I5071J-374D01*
G01*
X505802*
G75*
G02X506339Y430240I-5552J-2500*
G01*
G75*
G02Y430239I-6445J0*
G01*
G75*
G02X505959Y428124I-6087J0*
G01*
X530179*
G37*
X593450D02*
G36*
Y432740D01*
X536224*
G75*
G02X540321Y428124I-974J-4991*
G01*
X593450*
G37*
X769545D02*
G36*
G75*
G02X769161Y430250I5706J2127D01*
G01*
G75*
G02X769694Y432740I6088J0*
G01*
X768169*
G75*
G02X762331I-2919J2510*
G01*
X757786*
X757510Y432465*
G75*
G02X757682Y432050I-4881J-2264*
G01*
X757750*
G75*
G02X759024Y431521J-1800*
G01*
X762422Y428124*
X769545*
G37*
X788930D02*
G36*
G75*
G02X788502Y430250I5070J2126D01*
G01*
G75*
G02X789098Y432740I5498J0*
G01*
X780806*
G75*
G02X781339Y430250I-5556J-2489*
G01*
G75*
G02X780955Y428124I-6089J0*
G01*
X788930*
G37*
X865981D02*
G36*
G75*
G02X865527Y430250I4748J2126D01*
G01*
G75*
G02X866161Y432740I5203*
G01*
X808902*
G75*
G02X809498Y430250I-4902J-2491*
G01*
G75*
G02X809070Y428124I-5499*
G01*
X822528*
Y431043*
X831161*
Y428124*
X834339*
Y431043*
X842972*
Y428124*
X865981*
G37*
X891600Y432740D02*
G36*
X885298D01*
G75*
G02X885932Y430250I-4568J-2490*
G01*
G75*
G02X885478Y428124I-5203J0*
G01*
X891600*
Y432740*
G37*
X898900D02*
G36*
Y428124D01*
X907500*
Y432740*
X898900*
G37*
X14200Y438124D02*
G36*
X8000D01*
Y432740*
X14200*
Y438124*
G37*
X150355D02*
G36*
X147269D01*
G75*
G02X147283Y437763I-4521J-358*
G01*
G75*
G02X142750Y433229I-4533*
G01*
G75*
G02X138217Y437763J4533*
G01*
G75*
G02X138231Y438124I4534J-2*
G01*
X107106*
G75*
G02X102199Y433217I-4907*
G01*
G75*
G02X97291Y438124J4907*
G01*
X47106*
G75*
G02X42199Y433217I-4907*
G01*
G75*
G02X37291Y438124J4907*
G01*
X22800*
Y432740*
X100533*
G75*
G02X102199Y433031I1666J-4617*
G01*
G75*
G02X103865Y432740J-4908*
G01*
X144964*
X150355Y438124*
G37*
X158078D02*
G36*
X154707D01*
Y437750*
G75*
G02X154133Y436365I-1958*
G01*
X150504Y432740*
X152694*
X158078Y438124*
G37*
X303257Y432740D02*
G36*
X297873Y438124D01*
X177269*
G75*
G02X177283Y437763I-4520J-363*
G01*
G75*
G02X168217I-4533*
G01*
G75*
G02X168231Y438124I4534J-2*
G01*
X163170*
X157786Y432740*
X303257*
G37*
X350214D02*
G36*
X344830Y438124D01*
X304379*
X309763Y432740*
X350214*
G37*
X355383D02*
G36*
G75*
G02X354300Y435250I2367J2510D01*
G01*
G75*
G02Y435252I3342J1*
G01*
G75*
G02X354396Y436058I3435*
G01*
X352330Y438124*
X349922*
X355306Y432740*
X355383*
G37*
X593450Y438124D02*
G36*
X359658D01*
G75*
G02X361200Y435250I-1908J-2874*
G01*
G75*
G02X360117Y432740I-3450J0*
G01*
X409161*
Y436329*
X421339*
Y433790*
X431280*
X432738Y435248*
G75*
G02X435250Y436290I2513J-2509*
G01*
X444578*
G75*
G02X452533Y432740I3185J-3550*
G01*
X452994*
G75*
G02X462533I4770*
G01*
X462994*
G75*
G02X470949Y436290I4770J0*
G01*
X482750*
G75*
G02X485262Y435248I0J-3551*
G01*
X486720Y433790*
X495304*
G75*
G02X505802Y432740I4946J-3550*
G01*
X534276*
G75*
G02X536224I974J-4990*
G01*
X593450*
Y438124*
G37*
X762331Y432740D02*
G36*
G75*
G02X761400Y435250I2919J2510D01*
G01*
G75*
G02X761653Y436622I3854J0*
G01*
G75*
G02X761521Y436476I-1361J1090*
G01*
X757786Y432740*
X762331*
G37*
X769161Y438124D02*
G36*
X767812D01*
G75*
G02X769100Y435251I-2560J-2873*
G01*
G75*
G02Y435250I-5013J0*
G01*
G75*
G02X768169Y432740I-3850J0*
G01*
X769694*
G75*
G02X770584Y434161I5556J-2491*
G01*
X769161*
Y438124*
G37*
X788930D02*
G36*
X781339D01*
Y434161*
X779916*
G75*
G02X780806Y432740I-4666J-3912*
G01*
X789098*
G75*
G02X791713Y435250I4902J-2490*
G01*
G75*
G02X788930Y438124I2287J5000*
G01*
G37*
X865981D02*
G36*
X809070D01*
G75*
G02X806287Y435250I-5070J2126*
G01*
G75*
G02X808902Y432740I-2287J-5000*
G01*
X866161*
G75*
G02X869291Y435250I4568J-2490*
G01*
G75*
G02X865981Y438124I1439J5000*
G01*
G37*
X891600D02*
G36*
X885478D01*
G75*
G02X882168Y435250I-4748J2126*
G01*
G75*
G02X885298Y432740I-1438J-5000*
G01*
X891600*
Y438124*
G37*
X898900D02*
G36*
Y432740D01*
X907500*
Y438124*
X898900*
G37*
X14200Y448124D02*
G36*
X8000D01*
Y438124*
X14200*
Y448124*
G37*
X138231D02*
G36*
X107106D01*
G75*
G02X102199Y443217I-4907*
G01*
G75*
G02X97291Y448124J4907*
G01*
X47106*
G75*
G02X42199Y443217I-4907*
G01*
G75*
G02X37291Y448124J4907*
G01*
X22800*
Y438124*
X37291*
G75*
G02X42199Y443031I4907*
G01*
G75*
G02X47106Y438124J-4907*
G01*
X97291*
G75*
G02X102199Y443031I4907*
G01*
G75*
G02X107106Y438124J-4907*
G01*
X138231*
G75*
G02X142750Y442296I4519J-361*
G01*
G75*
G02X144265Y442035I-1J-4538*
G01*
X145117Y442885*
X145793Y443561*
Y444402*
G75*
G02X138217Y447763I-3043J3361*
G01*
Y447763*
G75*
G02X138231Y448124I4531J-2*
G01*
G37*
X150793D02*
G36*
X149707D01*
Y442750*
Y442750*
G75*
G02X149132Y441363I-1957*
G01*
X147884Y440116*
G75*
G02X147881Y440113I-10J9*
G01*
X147028Y439263*
G75*
G02X147269Y438124I-4278J-1500*
G01*
X150355*
X150793Y438561*
Y448124*
G37*
X168078D02*
G36*
X154707D01*
Y438124*
X158078*
X168078Y448124*
G37*
X344830Y438124D02*
G36*
X334830Y448124D01*
X294379*
X304379Y438124*
X344830*
G37*
X297873D02*
G36*
X287873Y448124D01*
X177269*
G75*
G02X177283Y447763I-4520J-363*
G01*
G75*
G02X169574Y444528I-4533*
G01*
X163170Y438124*
X168231*
G75*
G02X177269I4519J-361*
G01*
X297873*
G37*
X352330D02*
G36*
X342330Y448124D01*
X339922*
X349922Y438124*
X352330*
G37*
X593450D02*
G36*
Y448124D01*
X347422*
X356942Y438604*
G75*
G02X359658Y438124I808J-3354*
G01*
X593450*
G37*
X788930D02*
G36*
G75*
G02X788502Y440250I5071J2126D01*
G01*
G75*
G02X791713Y445250I5498*
G01*
G75*
G02X788930Y448124I2287J5000*
G01*
X787050*
Y445693*
G75*
G02X788700Y442750I-1800J-2943*
G01*
G75*
G02X781800I-3450*
G01*
G75*
G02X783450Y445693I3450*
G01*
Y448124*
X775960*
G75*
G02X769540I-3210J2126*
G01*
X767050*
Y438653*
G75*
G02X767812Y438124I-1799J-3402*
G01*
X769161*
Y446339*
X781339*
Y438124*
X788930*
G37*
X865981D02*
G36*
G75*
G02X865527Y440250I4748J2126D01*
G01*
G75*
G02X868716Y445047I5203*
G01*
X865526*
Y448124*
X809070*
G75*
G02X806287Y445250I-5070J2126*
G01*
G75*
G02X809498Y440250I-2287J-5000*
G01*
G75*
G02X809070Y438124I-5498J0*
G01*
X865981*
G37*
X891600Y448124D02*
G36*
X885478D01*
G75*
G02X882168Y445250I-4749J2127*
G01*
G75*
G02X885932Y440250I-1438J-5000*
G01*
G75*
G02X885478Y438124I-5203J0*
G01*
X891600*
Y448124*
G37*
X898900D02*
G36*
Y438124D01*
X907500*
Y448124*
X898900*
G37*
X14200Y457763D02*
G36*
X8000D01*
Y448124*
X14200*
Y457763*
G37*
X138217D02*
G36*
X22800D01*
Y448124*
X37291*
G75*
G02X42199Y453031I4907*
G01*
G75*
G02X47106Y448124J-4907*
G01*
X97291*
G75*
G02X102199Y453031I4907*
G01*
G75*
G02X107106Y448124J-4907*
G01*
X138231*
G75*
G02X145793Y451124I4519J-361*
G01*
Y454402*
G75*
G02X138217Y457763I-3043J3361*
G01*
G37*
X150793D02*
G36*
X149707D01*
Y448124*
X150793*
Y457763*
G37*
X334830Y448124D02*
G36*
X325192Y457763D01*
X177283*
G75*
G02X168217I-4533*
G01*
X154707*
Y448124*
X168078*
X168248Y448293*
G75*
G02X177269Y448124I4502J-531*
G01*
X287873*
X285709Y450288*
G75*
G02X278900Y452750I-2959J2462*
G01*
G75*
G02X285837Y455050I3850*
G01*
X286498*
G75*
G02X288126Y454376I2J-2302*
G01*
X294379Y448124*
X334830*
G37*
X339922D02*
G36*
X342330D01*
X332692Y457763*
X330283*
X339922Y448124*
G37*
X593450Y457763D02*
G36*
X468296D01*
G75*
G02X468839Y455250I-5546J-2513*
G01*
G75*
G02X458839Y450584I-6089J0*
G01*
Y449161*
X446661*
Y457763*
X337783*
X347422Y448124*
X593450*
Y457763*
G37*
X769200D02*
G36*
X767050D01*
Y448124*
X769540*
G75*
G02X768900Y450250I3210J2126*
G01*
G75*
G02Y450251I3981J1*
G01*
G75*
G02X769200Y451740I3845*
G01*
Y457763*
G37*
X782859D02*
G36*
X776300D01*
Y451740*
G75*
G02X776600Y450251I-3545J-1489*
G01*
G75*
G02Y450250I-3981J0*
G01*
G75*
G02X775960Y448124I-3850*
G01*
X783450*
Y457307*
G75*
G02X782859Y457763I1800J2944*
G01*
G37*
X891600D02*
G36*
X787641D01*
G75*
G02X787050Y457307I-2391J2488*
G01*
Y448124*
X788930*
G75*
G02X788502Y450250I5071J2126*
G01*
G75*
G02X799000Y452537I5498*
G01*
G75*
G02X809498Y450250I5000J-2287*
G01*
G75*
G02X809070Y448124I-5498J0*
G01*
X865526*
Y455453*
X875931*
Y452261*
G75*
G02X885932Y450250I4798J-2011*
G01*
G75*
G02X885478Y448124I-5204J0*
G01*
X891600*
Y457763*
G37*
X898900D02*
G36*
Y448124D01*
X907500*
Y457763*
X898900*
G37*
X138217Y477750D02*
G36*
X8000D01*
Y457763*
X14200*
Y465500*
G75*
G02X15250Y466550I1050*
G01*
X21750*
G75*
G02X22800Y465500J-1050*
G01*
Y457763*
X138217*
Y457763*
G75*
G02X145793Y461124I4533*
G01*
Y464402*
G75*
G02X138217Y467763I-3043J3361*
G01*
Y467763*
G75*
G02X145793Y471124I4533*
G01*
Y474402*
G75*
G02X138217Y477750I-3043J3361*
G01*
G37*
X150793D02*
G36*
X149707D01*
Y457763*
X150793*
Y477750*
G37*
X325192Y457763D02*
G36*
X311479Y471476D01*
G75*
G02X311317Y471661I1286J1287*
G01*
X306661*
Y477750*
X296339*
Y471661*
X284161*
Y477750*
X257106*
Y473394*
X248394*
Y477750*
X227106*
G75*
G02X222750Y473394I-4356*
G01*
G75*
G02X218394Y477750J4356*
G01*
X179550*
Y472750*
Y472750*
G75*
G02X179015Y471470I-1798*
G01*
X177769Y470237*
X176965Y469432*
G75*
G02X177283Y467763I-4215J-1669*
G01*
G75*
G02X172750Y463229I-4533*
G01*
G75*
G02X168217Y467763J4533*
G01*
G75*
G02X172750Y472296I4533*
G01*
G75*
G02X174419Y471978J-4533*
G01*
X175226Y472784*
G75*
G03X175234Y472792I-67J79*
G01*
X175950Y473501*
Y474551*
G75*
G02X168217Y477750I-3200J3211*
G01*
X154707*
Y457763*
X168217*
G75*
G02X177283I4533*
G01*
X325192*
G37*
X330283D02*
G36*
X332692D01*
X321479Y468976*
G75*
G02X320950Y470250I1272J1274*
G01*
Y471661*
X316384*
X330283Y457763*
G37*
X593450Y477750D02*
G36*
X328839D01*
Y471661*
X324550*
Y470996*
X337783Y457763*
X446661*
Y461339*
X458839*
Y459916*
G75*
G02X468296Y457763I3911J-4666*
G01*
X593450*
Y477750*
G37*
X769200D02*
G36*
X768178D01*
G75*
G02X769100Y475250I-2928J-2500*
G01*
G75*
G02X767050Y471847I-3850*
G01*
Y457763*
X769200*
Y477750*
G37*
X891600D02*
G36*
X821300D01*
Y474240*
G75*
G02X821600Y472751I-3545J-1489*
G01*
G75*
G02Y472750I-3981J0*
G01*
G75*
G02X813900I-3850*
G01*
G75*
G02Y472751I3981J1*
G01*
G75*
G02X814200Y474240I3845*
G01*
Y477750*
X776300*
Y457763*
X782859*
G75*
G02X781800Y460250I2391J2487*
G01*
G75*
G02X788700I3450*
G01*
G75*
G02X787641Y457763I-3450J0*
G01*
X891600*
Y477750*
G37*
X898900D02*
G36*
Y457763D01*
X907500*
Y477750*
X898900*
G37*
X120933Y487750D02*
G36*
X8000D01*
Y477750*
X138217*
G75*
G02Y477763I4540J6*
G01*
Y477763*
G75*
G02X145793Y481124I4533*
G01*
Y484402*
G75*
G02X138661Y485805I-3042J3361*
G01*
X129567*
Y484004*
X120933*
Y487750*
G37*
X150793D02*
G36*
X149707D01*
Y477750*
X150793*
Y487750*
G37*
X160793D02*
G36*
X154707D01*
Y477750*
X168217*
G75*
G02Y477763I4569J6*
G01*
G75*
G02X168471Y479261I4533J0*
G01*
X161366Y486366*
G75*
G02X160793Y487749I1383J1383*
G01*
G75*
G02Y487750I1735J0*
G01*
G37*
X284161D02*
G36*
X257106D01*
G75*
G02X252750Y483394I-4356*
G01*
G75*
G02X248394Y487750J4356*
G01*
X227106*
G75*
G02X222750Y483394I-4356*
G01*
G75*
G02X218394Y487750J4356*
G01*
X179550*
Y477750*
X218394*
G75*
G02X222750Y482106I4356*
G01*
G75*
G02X227106Y477750J-4356*
G01*
X248394*
Y482106*
X257106*
Y477750*
X284161*
Y483839*
X285584*
G75*
G02X284161Y487749I4665J3911*
G01*
G75*
G02Y487750I6445J0*
G01*
G37*
X306661D02*
G36*
X296339D01*
G75*
G02Y487749I-6445J0*
G01*
G75*
G02X294916Y483839I-6087*
G01*
X296339*
Y477750*
X306661*
Y483839*
X308084*
G75*
G02X306661Y487749I4665J3911*
G01*
G75*
G02Y487750I6445J0*
G01*
G37*
X593450Y477750D02*
G36*
Y487750D01*
X328839*
G75*
G02Y487749I-6445J0*
G01*
G75*
G02X327416Y483839I-6087*
G01*
X328839*
Y477750*
X593450*
G37*
X769200Y487750D02*
G36*
X767050D01*
Y478653*
G75*
G02X768178Y477750I-1800J-3404*
G01*
X769200*
Y481260*
G75*
G02X768900Y482750I3551J1490*
G01*
G75*
G02X769200Y484240I3851*
G01*
Y487750*
G37*
X814200D02*
G36*
X776300D01*
Y484240*
G75*
G02X776600Y482750I-3551J-1490*
G01*
G75*
G02X776300Y481260I-3851*
G01*
Y477750*
X814200*
Y487750*
G37*
X891600Y477750D02*
G36*
Y478738D01*
X888738Y481600*
X887750*
G75*
G02X886902Y481700I2J3665*
G01*
X884948*
G75*
G02X875750Y482963I-4198J3550*
G01*
G75*
G02X865252Y485250I-5000J2287*
G01*
G75*
G02X865853Y487750I5498*
G01*
X853839*
Y479161*
X841661*
Y480584*
G75*
G02X831661Y485250I-3911J4666*
G01*
G75*
G02X832198Y487750I6089J0*
G01*
X821300*
Y477750*
X891600*
G37*
X898900D02*
G36*
X907500D01*
Y487750*
X897770*
G75*
G02X897758Y487738I-2531J2519*
G01*
X895341Y485321*
X897831Y482831*
G75*
G02X898900Y480250I-2584J-2582*
G01*
Y477750*
G37*
X138217Y508124D02*
G36*
X107106D01*
G75*
G02X102199Y503217I-4907*
G01*
G75*
G02X97291Y508124J4907*
G01*
X47106*
G75*
G02X42199Y503217I-4907*
G01*
G75*
G02X37291Y508124J4907*
G01*
X22800*
Y495000*
G75*
G02X21750Y493950I-1050*
G01*
X15250*
G75*
G02X14200Y495000J1050*
G01*
Y508124*
X8000*
Y487750*
X120933*
Y501496*
X129567*
Y489720*
X138661*
G75*
G02X145793Y491124I4089J-1958*
G01*
Y494402*
G75*
G02X138217Y497763I-3043J3361*
G01*
Y497763*
G75*
G02X145793Y501124I4533*
G01*
Y503230*
X138217*
Y508124*
G37*
X150793D02*
G36*
X149707D01*
Y487750*
X150793*
Y508124*
G37*
X160793D02*
G36*
X154707D01*
Y487750*
X160793*
Y487751*
Y487753*
Y508124*
G37*
X593450D02*
G36*
X179550D01*
Y487750*
X218394*
G75*
G02X222750Y492106I4356*
G01*
G75*
G02X227106Y487750J-4356*
G01*
X248394*
G75*
G02X252750Y492106I4356*
G01*
G75*
G02X257106Y487750J-4356*
G01*
X284161*
G75*
G02X296339I6089*
G01*
X306661*
Y487750*
G75*
G02X317750Y491224I6089*
G01*
G75*
G02X328839Y487750I5000J-3474*
G01*
Y487750*
X593450*
Y508124*
G37*
X769200D02*
G36*
X767050D01*
Y487750*
X769200*
Y508124*
G37*
X785670D02*
G36*
X782050Y504504D01*
Y504039*
G75*
G02X786058Y506104I3200J-1289*
G01*
X788078Y508124*
X785670*
G37*
X813918D02*
G36*
X801180D01*
G75*
G02X801200Y507752I-3415J-371*
G01*
G75*
G02Y507750I-3342J-1*
G01*
G75*
G02X794300I-3450*
G01*
G75*
G02X794320Y508124I3450J-1*
G01*
X793170*
X788604Y503558*
G75*
G02X788700Y502750I-3354J-809*
G01*
G75*
G02X782050Y501461I-3450*
G01*
Y500693*
G75*
G02X783700Y497750I-1800J-2943*
G01*
G75*
G02X776800I-3450*
G01*
G75*
G02X778450Y500693I3450*
G01*
Y505250*
G75*
G02X778979Y506524I1800*
G01*
X780578Y508124*
X776300*
Y487750*
X814200*
Y506260*
G75*
G02X813900Y507749I3545J1489*
G01*
G75*
G02Y507750I3981J1*
G01*
G75*
G02X813918Y508124I3850J1*
G01*
G37*
X865853Y487750D02*
G36*
G75*
G02X868463Y490250I4897J-2500D01*
G01*
G75*
G02X865252Y495250I2287J5000*
G01*
G75*
G02X868463Y500250I5498*
G01*
G75*
G02X865252Y505250I2287J5000*
G01*
G75*
G02X866063Y508124I5498*
G01*
X821582*
G75*
G02X821600Y507750I-3832J-373*
G01*
G75*
G02Y507749I-3981J0*
G01*
G75*
G02X821300Y506260I-3845*
G01*
Y487750*
X832198*
G75*
G02X841661Y489916I5552J-2500*
G01*
Y491339*
X853839*
Y487750*
X865853*
G37*
X891700Y508124D02*
G36*
X885437D01*
G75*
G02X886248Y505250I-4687J-2874*
G01*
G75*
G02X883037Y500250I-5498*
G01*
G75*
G02X886248Y495250I-2287J-5000*
G01*
G75*
G02X883037Y490250I-5498*
G01*
G75*
G02X884948Y488800I-2286J-4999*
G01*
X886902*
G75*
G02X887750Y488900I850J-3565*
G01*
X888880*
X891700Y491720*
Y508124*
G37*
X898800D02*
G36*
Y490250D01*
G75*
G02X897770Y487750I-3551J0*
G01*
X907500*
Y508124*
X898800*
G37*
X14200Y528124D02*
G36*
X8000D01*
Y508124*
X14200*
Y528124*
G37*
X138217Y508124D02*
G36*
Y512297D01*
X145793*
Y516428*
X141366Y520854*
G75*
G02X140793Y522237I1383J1383*
G01*
G75*
G02Y522238I1735J0*
G01*
Y522239*
Y522241*
Y528124*
X107106*
G75*
G02X102199Y523217I-4907*
G01*
G75*
G02X97291Y528124J4907*
G01*
X47106*
G75*
G02X42199Y523217I-4907*
G01*
G75*
G02X37291Y528124J4907*
G01*
X22800*
Y508124*
X37291*
G75*
G02X42199Y513031I4907*
G01*
G75*
G02X47106Y508124J-4907*
G01*
X97291*
G75*
G02X102199Y513031I4907*
G01*
G75*
G02X107106Y508124J-4907*
G01*
X138217*
G37*
X150793Y528124D02*
G36*
X150694D01*
G75*
G02X144752I-2971J4626*
G01*
X144707*
Y523049*
X149134Y518622*
G75*
G02X149707Y517239I-1383J-1383*
G01*
G75*
G02Y517238I-1735J0*
G01*
Y517237*
Y517235*
Y508124*
X150793*
Y528124*
G37*
X160793Y508124D02*
G36*
Y528124D01*
X160694*
G75*
G02X154752I-2971J4626*
G01*
X154707*
Y508124*
X160793*
G37*
X593450D02*
G36*
Y525250D01*
G75*
G02X593979Y526524I1800*
G01*
X595578Y528124*
X303248*
Y524752*
X292252*
Y527094*
G75*
G02X282750Y527963I-4502J3156*
G01*
G75*
G02X272750I-5000J2287*
G01*
G75*
G02X262750I-5000J2287*
G01*
G75*
G02X252750I-5000J2287*
G01*
G75*
G02X242680Y528124I-5000J2287*
G01*
X174550*
Y515996*
X179021Y511524*
G75*
G02X179550Y510250I-1272J-1274*
G01*
Y508124*
X593450*
G37*
X735989Y528124D02*
G36*
X720670D01*
X719550Y527004*
Y524721*
G75*
G02X727750Y522537I3200J-4470*
G01*
G75*
G02X735950Y524721I5000J-2286*
G01*
Y527750*
G75*
G02X735989Y528124I1800J0*
G01*
G37*
X800578D02*
G36*
X762967D01*
G75*
G02X762050Y527307I-2717J2126*
G01*
Y522391*
G75*
G02X769100Y520250I3200J-2141*
G01*
G75*
G02X767050Y516847I-3850*
G01*
Y508124*
X769200*
Y512750*
G75*
G02X770242Y515262I3551J0*
G01*
X776686Y521707*
G75*
G02X784100Y520250I3564J-1457*
G01*
G75*
G02X781707Y516686I-3850*
G01*
X776300Y511280*
Y508124*
X780578*
X800578Y528124*
G37*
X805841D02*
G36*
X805670D01*
X785670Y508124*
X788078*
X804396Y524442*
G75*
G02X804300Y525248I3339J807*
G01*
G75*
G02Y525250I3342J1*
G01*
G75*
G02X805841Y528124I3450*
G01*
G37*
X891700D02*
G36*
X809659D01*
G75*
G02X811200Y525250I-1909J-2874*
G01*
G75*
G02X806942Y521896I-3450*
G01*
X793170Y508124*
X794320*
G75*
G02X798558Y511104I3430J-374*
G01*
X804396Y516942*
G75*
G02X804300Y517748I3339J807*
G01*
G75*
G02Y517750I3342J1*
G01*
G75*
G02X811200I3450*
G01*
G75*
G02X806942Y514396I-3450*
G01*
X801104Y508558*
G75*
G02X801180Y508124I-3339J-808*
G01*
X813918*
G75*
G02X821582I3832J-374*
G01*
X866063*
G75*
G02X867594Y509752I4687J-2874*
G01*
X865252*
Y520748*
X876248*
Y518406*
G75*
G02X886248Y515250I4502J-3156*
G01*
G75*
G02X883037Y510250I-5498*
G01*
G75*
G02X885437Y508124I-2287J-5000*
G01*
X891700*
Y528124*
G37*
X898800D02*
G36*
Y508124D01*
X907500*
Y528124*
X898800*
G37*
X14200Y537750D02*
G36*
X8000D01*
Y528124*
X14200*
Y537750*
G37*
X140793D02*
G36*
X22800D01*
Y528124*
X37291*
G75*
G02X42199Y533031I4907*
G01*
G75*
G02X47106Y528124J-4907*
G01*
X97291*
G75*
G02X102199Y533031I4907*
G01*
G75*
G02X107106Y528124J-4907*
G01*
X140793*
Y537750*
G37*
X144752Y528124D02*
G36*
G75*
G02X144707Y528153I2972J4608D01*
G01*
Y528124*
X144752*
G37*
X150793D02*
G36*
Y528189D01*
G75*
G02X150694Y528124I-3071J4556*
G01*
X150793*
G37*
X154752D02*
G36*
G75*
G02X154707Y528153I2972J4608D01*
G01*
Y528124*
X154752*
G37*
X160793D02*
G36*
Y528189D01*
G75*
G02X160694Y528124I-3071J4556*
G01*
X160793*
G37*
X596957Y537750D02*
G36*
X174550D01*
Y528124*
X242680*
G75*
G02X242252Y530250I5070J2126*
G01*
G75*
G02X252750Y532537I5498*
G01*
G75*
G02X262750I5000J-2287*
G01*
G75*
G02X272750I5000J-2287*
G01*
G75*
G02X282750I5000J-2287*
G01*
G75*
G02X292252Y533406I5000J-2287*
G01*
Y535748*
X303248*
Y528124*
X595578*
X599982Y532528*
X596957*
Y537750*
G37*
X735989Y528124D02*
G36*
G75*
G02X736479Y529024I1761J-374D01*
G01*
X739982Y532528*
X736957*
Y537750*
X728543*
Y532528*
X724536*
G75*
G02X724021Y531476I-1790J224*
G01*
X720670Y528124*
X735989*
G37*
X891700D02*
G36*
Y530780D01*
X888280Y534200*
X884948*
G75*
G02X875750Y535463I-4198J3550*
G01*
G75*
G02X865252Y537750I-5000J2287*
G01*
X853839*
Y531661*
X841661*
Y533084*
G75*
G02X831661Y537750I-3911J4666*
G01*
X758543*
Y533248*
G75*
G02X763700Y530250I1707J-2998*
G01*
G75*
G02X762967Y528124I-3450J0*
G01*
X800578*
X804396Y531942*
G75*
G02X804300Y532748I3339J807*
G01*
G75*
G02Y532750I3342J1*
G01*
G75*
G02X811200I3450*
G01*
G75*
G02X806942Y529396I-3450*
G01*
X805670Y528124*
X805841*
G75*
G02X809659I1909J-2874*
G01*
X891700*
G37*
X898800D02*
G36*
X907500D01*
Y537750*
X894770*
X897758Y534762*
G75*
G02X898800Y532250I-2509J-2513*
G01*
Y528124*
G37*
X14200Y545250D02*
G36*
X8000D01*
Y537750*
X14200*
Y545250*
G37*
X140793D02*
G36*
X22800D01*
Y537750*
X140793*
Y545250*
G37*
X865252Y537750D02*
G36*
G75*
G02X868463Y542750I5498D01*
G01*
G75*
G02X865853Y545250I2287J5000*
G01*
X758543*
Y544339*
X736957*
Y545250*
X728543*
Y544339*
X596957*
Y545250*
X174550*
Y537750*
X596957*
Y541161*
X728543*
Y537750*
X736957*
Y541161*
X758543*
Y537750*
X831661*
G75*
G02X841661Y542416I6089*
G01*
Y543839*
X853839*
Y537750*
X865252*
G37*
X894770D02*
G36*
X907500D01*
Y545250*
X885647*
G75*
G02X883037Y542750I-4897J2500*
G01*
G75*
G02X884948Y541300I-2286J-4999*
G01*
X889750*
G75*
G02X892262Y540258I0J-3551*
G01*
X894770Y537750*
G37*
X14200Y581750D02*
G36*
X8000D01*
Y545250*
X14200*
Y581750*
G37*
X160950D02*
G36*
X22800D01*
Y545250*
X140793*
Y554161*
X136661*
Y566339*
X138084*
G75*
G02X136661Y570249I4665J3911*
G01*
G75*
G02Y570250I6445J0*
G01*
Y570250*
G75*
G02X147750Y573724I6089*
G01*
G75*
G02X157750I5000J-3474*
G01*
G75*
G02X160950Y576067I4999J-3473*
G01*
Y581750*
G37*
X596957Y545250D02*
G36*
Y552972D01*
X600950*
Y576990*
X597990*
Y581750*
X174550*
Y576067*
G75*
G02X178839Y570250I-1800J-5817*
G01*
G75*
G02X177416Y566339I-6089J0*
G01*
X178839*
Y554161*
X174550*
Y545250*
X596957*
G37*
X607990Y581750D02*
G36*
X607510D01*
Y576990*
X604550*
Y552972*
X610950*
Y577344*
G75*
G02X607990Y581750I1800J4406*
G01*
G37*
X617990D02*
G36*
X617510D01*
G75*
G02X614550Y577344I-4760*
G01*
Y552972*
X620950*
Y577344*
G75*
G02X617990Y581750I1800J4406*
G01*
G37*
X627990D02*
G36*
X627510D01*
G75*
G02X624550Y577344I-4760*
G01*
Y552972*
X630950*
Y577344*
G75*
G02X627990Y581750I1800J4406*
G01*
G37*
X637990D02*
G36*
X637510D01*
G75*
G02X634550Y577344I-4760*
G01*
Y552972*
X640950*
Y577344*
G75*
G02X637990Y581750I1800J4406*
G01*
G37*
X647990D02*
G36*
X647510D01*
G75*
G02X644550Y577344I-4760*
G01*
Y552972*
X650950*
Y577344*
G75*
G02X647990Y581750I1800J4406*
G01*
G37*
X657990D02*
G36*
X657510D01*
G75*
G02X654550Y577344I-4760*
G01*
Y552972*
X660950*
Y577344*
G75*
G02X657990Y581750I1800J4406*
G01*
G37*
X667990D02*
G36*
X667510D01*
G75*
G02X664550Y577344I-4760*
G01*
Y552972*
X670950*
Y577344*
G75*
G02X667990Y581750I1800J4406*
G01*
G37*
X677990D02*
G36*
X677510D01*
G75*
G02X674550Y577344I-4760*
G01*
Y552972*
X680950*
Y577344*
G75*
G02X677990Y581750I1800J4406*
G01*
G37*
X687990D02*
G36*
X687510D01*
G75*
G02X684550Y577344I-4760*
G01*
Y552972*
X690950*
Y577344*
G75*
G02X687990Y581750I1800J4406*
G01*
G37*
X697990D02*
G36*
X697510D01*
G75*
G02X694550Y577344I-4760*
G01*
Y552972*
X700950*
Y577344*
G75*
G02X697990Y581750I1800J4406*
G01*
G37*
X707990D02*
G36*
X707510D01*
G75*
G02X704550Y577344I-4760*
G01*
Y552972*
X710950*
Y577344*
G75*
G02X707990Y581750I1800J4406*
G01*
G37*
X717990D02*
G36*
X717510D01*
G75*
G02X714550Y577344I-4760*
G01*
Y552972*
X720950*
Y577344*
G75*
G02X717990Y581750I1800J4406*
G01*
G37*
X736957Y545250D02*
G36*
Y552972D01*
X740950*
Y577344*
G75*
G02X737990Y581750I1800J4406*
G01*
X737510*
G75*
G02X727990I-4760*
G01*
X727510*
G75*
G02X724550Y577344I-4760*
G01*
Y552972*
X728543*
Y545250*
X736957*
G37*
X747990Y581750D02*
G36*
X747510D01*
G75*
G02X744550Y577344I-4760*
G01*
Y552972*
X750950*
Y577344*
G75*
G02X747990Y581750I1800J4406*
G01*
G37*
X885647Y545250D02*
G36*
X907500D01*
Y581750*
X797510*
G75*
G02X787990I-4760*
G01*
X787510*
G75*
G02X777990I-4760*
G01*
X777510*
G75*
G02X767990I-4760*
G01*
X767510*
G75*
G02X757990I-4760*
G01*
X757510*
G75*
G02X754550Y577344I-4760*
G01*
Y552972*
X758543*
Y545250*
X865853*
G75*
G02X865252Y547750I4897J2500*
G01*
G75*
G02X868463Y552750I5498*
G01*
G75*
G02X865252Y557750I2287J5000*
G01*
G75*
G02X867594Y562252I5498*
G01*
X865252*
Y573248*
X876248*
Y570906*
G75*
G02X886248Y567750I4502J-3156*
G01*
G75*
G02X883037Y562750I-5498*
G01*
G75*
G02X886248Y557750I-2287J-5000*
G01*
G75*
G02X883037Y552750I-5498*
G01*
G75*
G02X886248Y547750I-2287J-5000*
G01*
G75*
G02X885647Y545250I-5498*
G01*
G37*
X14200Y595250D02*
G36*
X8000D01*
Y581750*
X14200*
Y595250*
G37*
X132252D02*
G36*
X104687D01*
G75*
G02X95680I-4504J4932*
G01*
X86862*
Y593502*
X73504*
Y595250*
X57400*
G75*
G02X33100I-12150*
G01*
X22800*
Y581750*
X160950*
Y590779*
G75*
G02X152750Y592963I-3200J4470*
G01*
G75*
G02X142750I-5000J2287*
G01*
G75*
G02X132252Y595250I-5000J2287*
G01*
G37*
X757510Y581750D02*
G36*
X757990D01*
G75*
G02X767510I4760*
G01*
X767990*
G75*
G02X777510I4760*
G01*
X777990*
G75*
G02X787510I4760*
G01*
X787990*
G75*
G02X797510I4760*
G01*
X907500*
Y595250*
X882400*
G75*
G02X858100I-12150*
G01*
X795976*
G75*
G02X797510Y591750I-3226J-3500*
G01*
G75*
G02X787990I-4760*
G01*
G75*
G02X789524Y595250I4760*
G01*
X785976*
G75*
G02X787510Y591750I-3226J-3500*
G01*
G75*
G02X777990I-4760*
G01*
G75*
G02X779524Y595250I4760*
G01*
X775976*
G75*
G02X777510Y591750I-3226J-3500*
G01*
G75*
G02X767990I-4760*
G01*
G75*
G02X769524Y595250I4760*
G01*
X765976*
G75*
G02X767510Y591750I-3226J-3500*
G01*
G75*
G02X757990I-4760*
G01*
G75*
G02X759524Y595250I4760*
G01*
X755976*
G75*
G02X757510Y591750I-3226J-3500*
G01*
G75*
G02X747990I-4760*
G01*
G75*
G02X749524Y595250I4760*
G01*
X745976*
G75*
G02X747510Y591750I-3226J-3500*
G01*
G75*
G02X737990I-4760*
G01*
G75*
G02X739524Y595250I4760*
G01*
X735976*
G75*
G02X737510Y591750I-3226J-3500*
G01*
G75*
G02X727990I-4760*
G01*
G75*
G02X729524Y595250I4760*
G01*
X725976*
G75*
G02X727510Y591750I-3226J-3500*
G01*
G75*
G02X717990I-4760*
G01*
G75*
G02X719524Y595250I4760*
G01*
X715976*
G75*
G02X717510Y591750I-3226J-3500*
G01*
G75*
G02X707990I-4760*
G01*
G75*
G02X709524Y595250I4760*
G01*
X705976*
G75*
G02X707510Y591750I-3226J-3500*
G01*
G75*
G02X697990I-4760*
G01*
G75*
G02X699524Y595250I4760*
G01*
X695976*
G75*
G02X697510Y591750I-3226J-3500*
G01*
G75*
G02X687990I-4760*
G01*
G75*
G02X689524Y595250I4760*
G01*
X685976*
G75*
G02X687510Y591750I-3226J-3500*
G01*
G75*
G02X677990I-4760*
G01*
G75*
G02X679524Y595250I4760*
G01*
X675976*
G75*
G02X677510Y591750I-3226J-3500*
G01*
G75*
G02X667990I-4760*
G01*
G75*
G02X669524Y595250I4760*
G01*
X665976*
G75*
G02X667510Y591750I-3226J-3500*
G01*
G75*
G02X657990I-4760*
G01*
G75*
G02X659524Y595250I4760*
G01*
X655976*
G75*
G02X657510Y591750I-3226J-3500*
G01*
G75*
G02X647990I-4760*
G01*
G75*
G02X649524Y595250I4760*
G01*
X645976*
G75*
G02X647510Y591750I-3226J-3500*
G01*
G75*
G02X637990I-4760*
G01*
G75*
G02X639524Y595250I4760*
G01*
X635976*
G75*
G02X637510Y591750I-3226J-3500*
G01*
G75*
G02X627990I-4760*
G01*
G75*
G02X629524Y595250I4760*
G01*
X625976*
G75*
G02X627510Y591750I-3226J-3500*
G01*
G75*
G02X617990I-4760*
G01*
G75*
G02X619524Y595250I4760*
G01*
X615976*
G75*
G02X617510Y591750I-3226J-3500*
G01*
G75*
G02X607990I-4760*
G01*
G75*
G02X609524Y595250I4760*
G01*
X605976*
G75*
G02X607510Y591750I-3226J-3500*
G01*
G75*
G02X597990I-4760*
G01*
G75*
G02X599524Y595250I4760*
G01*
X567400*
G75*
G02X543100I-12150*
G01*
X372400*
G75*
G02X348100I-12150*
G01*
X322000*
G75*
G02X303500I-9250*
G01*
X242000*
G75*
G02X223500I-9250*
G01*
X183248*
G75*
G02X177750Y589752I-5498*
G01*
G75*
G02X174550Y590779I0J5497*
G01*
Y581750*
X597990*
Y586510*
X607510*
Y581750*
X607990*
G75*
G02X612750Y586510I4760*
G01*
G75*
G02X617510Y581750J-4760*
G01*
X617990*
G75*
G02X622750Y586510I4760*
G01*
G75*
G02X627510Y581750J-4760*
G01*
X627990*
G75*
G02X632750Y586510I4760*
G01*
G75*
G02X637510Y581750J-4760*
G01*
X637990*
G75*
G02X642750Y586510I4760*
G01*
G75*
G02X647510Y581750J-4760*
G01*
X647990*
G75*
G02X652750Y586510I4760*
G01*
G75*
G02X657510Y581750J-4760*
G01*
X657990*
G75*
G02X662750Y586510I4760*
G01*
G75*
G02X667510Y581750J-4760*
G01*
X667990*
G75*
G02X672750Y586510I4760*
G01*
G75*
G02X677510Y581750J-4760*
G01*
X677990*
G75*
G02X682750Y586510I4760*
G01*
G75*
G02X687510Y581750J-4760*
G01*
X687990*
G75*
G02X692750Y586510I4760*
G01*
G75*
G02X697510Y581750J-4760*
G01*
X697990*
G75*
G02X702750Y586510I4760*
G01*
G75*
G02X707510Y581750J-4760*
G01*
X707990*
G75*
G02X712750Y586510I4760*
G01*
G75*
G02X717510Y581750J-4760*
G01*
X717990*
G75*
G02X722750Y586510I4760*
G01*
G75*
G02X727510Y581750J-4760*
G01*
X727990*
G75*
G02X737510I4760*
G01*
X737990*
G75*
G02X742750Y586510I4760*
G01*
G75*
G02X747510Y581750J-4760*
G01*
X747990*
G75*
G02X752750Y586510I4760*
G01*
G75*
G02X757510Y581750J-4760*
G01*
G37*
X132252Y595250D02*
G36*
G75*
G02X135463Y600250I5498D01*
G01*
G75*
G02X132252Y605250I2287J5000*
G01*
G75*
G02X135463Y610250I5498*
G01*
X8000*
Y595250*
X14200*
Y595500*
G75*
G02X15250Y596550I1050*
G01*
X21750*
G75*
G02X22800Y595500J-1050*
G01*
Y595250*
X33100*
G75*
G02X57400I12150*
G01*
X73504*
Y606860*
X86862*
Y595250*
X95680*
G75*
G02X93504Y600182I4504J4933*
G01*
G75*
G02X106862I6679*
G01*
G75*
G02X104687Y595250I-6679J0*
G01*
X132252*
G37*
X145463Y610250D02*
G36*
X140037D01*
G75*
G02X142750Y607537I-2287J-5000*
G01*
G75*
G02X145463Y610250I5000J-2287*
G01*
G37*
X155463D02*
G36*
X150037D01*
G75*
G02X152750Y607537I-2287J-5000*
G01*
G75*
G02X155463Y610250I5000J-2287*
G01*
G37*
X165463D02*
G36*
X160037D01*
G75*
G02X162750Y607537I-2287J-5000*
G01*
G75*
G02X165463Y610250I5000J-2287*
G01*
G37*
X172252D02*
G36*
X170037D01*
G75*
G02X172252Y608406I-2287J-5000*
G01*
Y610250*
G37*
X303248D02*
G36*
Y604752D01*
X292252*
Y607094*
G75*
G02X282750Y607963I-4502J3156*
G01*
G75*
G02X272750I-5000J2287*
G01*
G75*
G02X262750I-5000J2287*
G01*
G75*
G02X252750I-5000J2287*
G01*
G75*
G02X242252Y610250I-5000J2287*
G01*
X183248*
Y599752*
X180906*
G75*
G02X183248Y595250I-3156J-4502*
G01*
X223500*
G75*
G02X242000I9250*
G01*
X303500*
G75*
G02X322000I9250*
G01*
X348100*
G75*
G02X372400I12150*
G01*
X543100*
G75*
G02X567400I12150*
G01*
X599524*
G75*
G02X605976I3226J-3500*
G01*
X609524*
G75*
G02X615976I3226J-3500*
G01*
X619524*
G75*
G02X625976I3226J-3500*
G01*
X629524*
G75*
G02X635976I3226J-3500*
G01*
X639524*
G75*
G02X645976I3226J-3500*
G01*
X649524*
G75*
G02X655976I3226J-3500*
G01*
X659524*
G75*
G02X665976I3226J-3500*
G01*
X669524*
G75*
G02X675976I3226J-3500*
G01*
X679524*
G75*
G02X685976I3226J-3500*
G01*
X689524*
G75*
G02X695976I3226J-3500*
G01*
X699524*
G75*
G02X705976I3226J-3500*
G01*
X709524*
G75*
G02X715976I3226J-3500*
G01*
X719524*
G75*
G02X725976I3226J-3500*
G01*
X729524*
G75*
G02X735976I3226J-3500*
G01*
X739524*
G75*
G02X745976I3226J-3500*
G01*
X749524*
G75*
G02X755976I3226J-3500*
G01*
X759524*
G75*
G02X765976I3226J-3500*
G01*
X769524*
G75*
G02X775976I3226J-3500*
G01*
X779524*
G75*
G02X785976I3226J-3500*
G01*
X789524*
G75*
G02X795976I3226J-3500*
G01*
X858100*
G75*
G02X882400I12150*
G01*
X907500*
Y610250*
X303248*
G37*
G36*
X907500*
Y632402*
X8000*
Y610250*
X135463*
G75*
G02X137750Y610748I2287J-5000*
G01*
G75*
G02X140037Y610250J-5499*
G01*
X145463*
G75*
G02X150037I2287J-5000*
G01*
X155463*
G75*
G02X160037I2287J-5000*
G01*
X165463*
G75*
G02X170037I2287J-5000*
G01*
X172252*
Y610748*
X183248*
Y610250*
X242252*
G75*
G02X252750Y612537I5498*
G01*
G75*
G02X262750I5000J-2287*
G01*
G75*
G02X272750I5000J-2287*
G01*
G75*
G02X282750I5000J-2287*
G01*
G75*
G02X292252Y613406I5000J-2287*
G01*
Y615748*
X303248*
Y610250*
G37*
X19313Y465250D02*
X18063D01*
X17437Y464937*
X17125Y464625*
X16813Y464000*
Y463375*
X17125Y462750*
X17437Y462437*
X18063Y462125*
X19313*
X19937Y462437*
X20250Y462750*
X20563Y463375*
Y464000*
X20250Y464625*
X19937Y464937*
X19313Y465250*
X19000Y458063D02*
Y457125D01*
X19313*
X19937Y457437*
X20250Y457750*
X20563Y458375*
Y459000*
X20250Y459625*
X19937Y459937*
X19313Y460250*
X18063*
X17437Y459937*
X17125Y459625*
X16813Y459000*
Y458375*
X17125Y457750*
X17437Y457437*
X18063Y457125*
X19625Y455250D02*
X20250Y454937D01*
X20563Y454313*
Y453063*
X20250Y452437*
X19625Y452125*
X19000Y452437*
X18687Y453063*
Y454313*
X18375Y454937*
X17750Y455250*
X17125Y454937*
X16813Y454313*
Y453063*
X17125Y452437*
X17750Y452125*
X19313Y450250D02*
Y447750D01*
Y445250D02*
X18063D01*
X17437Y444937*
X17125Y444625*
X16813Y444000*
Y443375*
X17125Y442750*
X17437Y442437*
X18063Y442125*
X19313*
X19937Y442437*
X20250Y442750*
X20563Y443375*
Y444000*
X20250Y444625*
X19937Y444937*
X19313Y445250*
X19937Y437125D02*
X20250Y437437D01*
X20563Y438063*
Y439000*
X20250Y439625*
X19937Y439937*
X19313Y440250*
X18063*
X17437Y439937*
X17125Y439625*
X16813Y439000*
Y438063*
X17125Y437437*
X17437Y437125*
X20563Y435250D02*
X16813D01*
Y432125*
X18687Y432750D02*
Y435250D01*
X20563D02*
Y432125D01*
Y423687D02*
X16813D01*
Y425250D02*
Y422125D01*
X20250Y417750D02*
X20563Y418063D01*
Y418687*
Y419313*
X20250Y419937*
X19625Y420250*
X18687*
X18375Y419937*
X18063Y419313*
Y418687*
X18375Y418063*
X18687Y417750*
X19000*
X19313Y418063*
X19625Y418687*
Y419313*
X19313Y419937*
X19000Y420250*
X18375Y412750D02*
X18063Y413375D01*
Y414313*
X18375Y414937*
X19000Y415250*
X19625*
X20250Y414937*
X20563Y414313*
Y413375*
X20250Y412750*
X20563Y410250D02*
X16813D01*
Y408375*
X17125Y407750*
X17437Y407437*
X18063Y407125*
X19313*
X19937Y407437*
X20250Y407750*
X20563Y408375*
Y410250*
X20250Y402750D02*
X20563Y403063D01*
Y403687*
Y404313*
X20250Y404937*
X19625Y405250*
X18687*
X18375Y404937*
X18063Y404313*
Y403687*
X18375Y403063*
X18687Y402750*
X19000*
X19313Y403063*
X19625Y403687*
Y404313*
X19313Y404937*
X19000Y405250*
X18063Y400250D02*
X20563Y399000D01*
X18063Y397750*
X20250Y389937D02*
X20563Y389313D01*
Y388687*
X20250Y388063*
X19625Y387750*
X17750*
X17125Y388063*
X16813Y388687*
Y389313*
X17125Y389937*
X17750Y390250*
X19625*
X20250Y389937*
X17125Y388063*
X20563Y385250D02*
X16813Y382750D01*
Y385250*
X20563Y379937D02*
X20250Y379625D01*
X19937Y379937*
X20250Y380250*
X20563Y379937*
Y372750D02*
Y375250D01*
X18375Y373063*
X17750Y372750*
X17125Y373063*
X16813Y373687*
Y374625*
X17125Y375250*
X20250Y369937D02*
X20563Y369313D01*
Y368687*
X20250Y368063*
X19625Y367750*
X17750*
X17125Y368063*
X16813Y368687*
Y369313*
X17125Y369937*
X17750Y370250*
X19625*
X20250Y369937*
X17125Y368063*
X20563Y364625D02*
Y363375D01*
Y364000D02*
X16813D01*
X17437Y364625*
X20563Y359313D02*
X20250Y358687D01*
X19625Y358063*
X18687Y357750*
X17750*
X17125Y358063*
X16813Y358687*
Y359313*
X17125Y359937*
X17750Y360250*
X18375Y359937*
X18687Y359313*
Y358687*
X18375Y358063*
X17750Y357750*
X18687Y593063D02*
X19000Y592437D01*
X19625Y592125*
X20250Y592437*
X20563Y593063*
Y595250*
X16813*
Y593063*
X17125Y592437*
X17750Y592125*
X18375Y592437*
X18687Y593063*
Y595250*
X18063Y590250D02*
X19625D01*
X20250Y589937*
X20563Y589313*
Y588687*
X20250Y588063*
X19625Y587750*
X18063D02*
X20563D01*
X19625Y585250D02*
X20250Y584937D01*
X20563Y584313*
Y583687*
X20250Y583063*
X19625Y582750*
X19000*
X18375Y583063*
X18063Y583687*
Y584313*
X18375Y584937*
X19000Y585250*
X19625*
X18063Y580250D02*
X19313Y579937D01*
X19937Y579313*
Y578687*
X19313Y578063*
X18063Y577750*
X19313Y578063D02*
X20563Y578375D01*
X21187Y578687*
X21500Y579313*
X21187Y579937*
X19937Y567125D02*
X20250Y567437D01*
X20563Y568063*
Y569000*
X20250Y569625*
X19937Y569937*
X19313Y570250*
X18063*
X17437Y569937*
X17125Y569625*
X16813Y569000*
Y568063*
X17125Y567437*
X17437Y567125*
X19625Y565250D02*
X20250Y564937D01*
X20563Y564313*
Y563687*
X20250Y563063*
X19625Y562750*
X19000*
X18375Y563063*
X18063Y563687*
Y564313*
X18375Y564937*
X19000Y565250*
X19625*
X20563Y560250D02*
X18063D01*
X19000D02*
X18375Y559937D01*
X18063Y559313*
Y558687*
X18375Y558063*
X19000Y557750*
X20563*
X18063Y554625D02*
Y553375D01*
X17437Y554000D02*
X20250D01*
X20563Y553687*
Y553375*
X20250Y553063*
X20563Y550250D02*
X18063D01*
X19000D02*
X18375Y549937D01*
X18063Y549313*
Y548687*
X18375Y548063*
X19625Y545250D02*
X20250Y544937D01*
X20563Y544313*
Y543687*
X20250Y543063*
X19625Y542750*
X19000*
X18375Y543063*
X18063Y543687*
Y544313*
X18375Y544937*
X19000Y545250*
X19625*
X20563Y538687D02*
Y539000D01*
X16813*
X20563Y533687D02*
Y534000D01*
X16813*
X20250Y527750D02*
X20563Y528063D01*
Y528687*
Y529313*
X20250Y529937*
X19625Y530250*
X18687*
X18375Y529937*
X18063Y529313*
Y528687*
X18375Y528063*
X18687Y527750*
X19000*
X19313Y528063*
X19625Y528687*
Y529313*
X19313Y529937*
X19000Y530250*
X20563Y525250D02*
X18063D01*
X19000D02*
X18375Y524937D01*
X18063Y524313*
Y523687*
X18375Y523063*
X18063Y515250D02*
X20563Y514000D01*
X18063Y512750*
X20563Y509625D02*
Y508375D01*
Y509000D02*
X16813D01*
X17437Y509625*
X20563Y504937D02*
X20250Y504625D01*
X19937Y504937*
X20250Y505250*
X20563Y504937*
Y499625D02*
Y498375D01*
Y499000D02*
X16813D01*
X17437Y499625*
X142750Y602963D02*
G75*
G02X140037Y600250I-5000J2287D01*
G01*
G75*
G02X142750Y597537I-2287J-5000*
G01*
G75*
G02X145463Y600250I5000J-2287*
G01*
G75*
G02X142750Y602963I2287J5000*
G01*
G36*
G75*
G02X140037Y600250I-5000J2287*
G01*
G75*
G02X142750Y597537I-2287J-5000*
G01*
G75*
G02X145463Y600250I5000J-2287*
G01*
G75*
G02X142750Y602963I2287J5000*
G01*
G37*
X147750Y37963D02*
G75*
G02X145037Y35250I-5000J2287D01*
G01*
G75*
G02X147750Y32537I-2287J-5000*
G01*
G75*
G02X150463Y35250I5000J-2287*
G01*
G75*
G02X147750Y37963I2287J5000*
G01*
G36*
G75*
G02X145037Y35250I-5000J2287*
G01*
G75*
G02X147750Y32537I-2287J-5000*
G01*
G75*
G02X150463Y35250I5000J-2287*
G01*
G75*
G02X147750Y37963I2287J5000*
G01*
G37*
X164707Y527252D02*
Y488561D01*
X171233Y482035*
G75*
G02X175950Y480974I1517J-4272*
G01*
Y484551*
G75*
G02X168217Y487763I-3200J3211*
G01*
G75*
G02X175950Y490974I4533*
G01*
Y494551*
G75*
G02X168217Y497763I-3200J3211*
G01*
G75*
G02X175950Y500974I4533*
G01*
Y504551*
G75*
G02X168217Y507763I-3200J3211*
G01*
G75*
G02X172750Y512296I4533*
G01*
G75*
G02X173179Y512276I-2J-4535*
G01*
X171479Y513976*
G75*
G02X170950Y515250I1272J1274*
G01*
Y527252*
X164707*
G36*
Y488561*
X171233Y482035*
G75*
G02X175950Y480974I1517J-4272*
G01*
Y484551*
G75*
G02X168217Y487763I-3200J3211*
G01*
G75*
G02X175950Y490974I4533*
G01*
Y494551*
G75*
G02X168217Y497763I-3200J3211*
G01*
G75*
G02X175950Y500974I4533*
G01*
Y504551*
G75*
G02X168217Y507763I-3200J3211*
G01*
G75*
G02X172750Y512296I4533*
G01*
G75*
G02X173179Y512276I-2J-4535*
G01*
X171479Y513976*
G75*
G02X170950Y515250I1272J1274*
G01*
Y527252*
X164707*
G37*
X237750Y37963D02*
G75*
G02X235037Y35250I-5000J2287D01*
G01*
G75*
G02X237750Y32537I-2287J-5000*
G01*
G75*
G02X240463Y35250I5000J-2287*
G01*
G75*
G02X237750Y37963I2287J5000*
G01*
G36*
G75*
G02X235037Y35250I-5000J2287*
G01*
G75*
G02X237750Y32537I-2287J-5000*
G01*
G75*
G02X240463Y35250I5000J-2287*
G01*
G75*
G02X237750Y37963I2287J5000*
G01*
G37*
X619550Y456088D02*
Y355996D01*
X620535Y355010*
G75*
G02X627750Y351851I2215J-4760*
G01*
G75*
G02X627990Y352465I5000J-1600*
G01*
X626479Y353976*
G75*
G02X625950Y355250I1272J1274*
G01*
Y456088*
G75*
G02X619550I-3200J4162*
G01*
G36*
Y355996*
X620535Y355010*
G75*
G02X627750Y351851I2215J-4760*
G01*
G75*
G02X627990Y352465I5000J-1600*
G01*
X626479Y353976*
G75*
G02X625950Y355250I1272J1274*
G01*
Y456088*
G75*
G02X619550I-3200J4162*
G01*
G37*
Y515779D02*
Y464412D01*
G75*
G02X625950I3200J-4162*
G01*
Y515779*
G75*
G02X619550I-3200J4471*
G01*
G36*
Y464412*
G75*
G02X625950I3200J-4162*
G01*
Y515779*
G75*
G02X619550I-3200J4471*
G01*
G37*
Y527004D02*
Y524721D01*
G75*
G02X625950I3200J-4471*
G01*
Y527750*
G75*
G02X626479Y529024I1800*
G01*
X629982Y532528*
X624536*
G75*
G02X624021Y531476I-1787J222*
G01*
X619550Y527004*
G36*
Y524721*
G75*
G02X625950I3200J-4471*
G01*
Y527750*
G75*
G02X626479Y529024I1800*
G01*
X629982Y532528*
X624536*
G75*
G02X624021Y531476I-1787J222*
G01*
X619550Y527004*
G37*
X634550Y409504D02*
Y400996D01*
X639021Y396524*
G75*
G02X639550Y395250I-1272J-1274*
G01*
Y355996*
X640535Y355010*
G75*
G02X647750Y351851I2215J-4760*
G01*
G75*
G02X647990Y352465I5000J-1600*
G01*
X646479Y353976*
G75*
G02X645950Y355250I1272J1274*
G01*
Y395250*
G75*
G02X646479Y396524I1800*
G01*
X650950Y400996*
Y409504*
X646479Y413976*
G75*
G02X645950Y415250I1272J1274*
G01*
Y456088*
G75*
G02X639550I-3200J4162*
G01*
Y415250*
G75*
G02X639021Y413976I-1800*
G01*
X634550Y409504*
X635461Y405250D02*
G75*
G02X649016I6778D01*
G01*
G75*
G02X635461I-6778*
G01*
X650700Y400746D02*
G36*
Y405250D01*
X649016*
G75*
G02X635461I-6778*
G01*
X634800*
Y400746*
X639021Y396524*
G75*
G02X639550Y395250I-1272J-1274*
G01*
Y355996*
X640535Y355010*
G75*
G02X647663Y352101I2214J-4761*
G01*
X647837*
G75*
G02X647990Y352465I4916J-1850*
G01*
X646479Y353976*
G75*
G02X645950Y355250I1272J1274*
G01*
Y395250*
G75*
G02X646479Y396524I1800*
G01*
X650700Y400746*
G37*
Y409754D02*
G36*
X646479Y413976D01*
G75*
G02X645950Y415250I1272J1274*
G01*
Y455838*
X645595*
G75*
G02X639905I-2845J4413*
G01*
X639550*
Y415250*
G75*
G02X639021Y413976I-1800*
G01*
X634800Y409754*
Y405250*
X635461*
G75*
G02X649016I6778*
G01*
X650700*
Y409754*
G37*
X647750Y42963D02*
G75*
G02X645037Y40250I-5000J2287D01*
G01*
G75*
G02X647750Y37537I-2287J-5000*
G01*
G75*
G02X650463Y40250I5000J-2287*
G01*
G75*
G02X647750Y42963I2287J5000*
G01*
G36*
G75*
G02X645037Y40250I-5000J2287*
G01*
G75*
G02X647750Y37537I-2287J-5000*
G01*
G75*
G02X650463Y40250I5000J-2287*
G01*
G75*
G02X647750Y42963I2287J5000*
G01*
G37*
X657750D02*
G75*
G02X655037Y40250I-5000J2287D01*
G01*
G75*
G02X657750Y37537I-2287J-5000*
G01*
G75*
G02X660463Y40250I5000J-2287*
G01*
G75*
G02X657750Y42963I2287J5000*
G01*
G36*
G75*
G02X655037Y40250I-5000J2287*
G01*
G75*
G02X657750Y37537I-2287J-5000*
G01*
G75*
G02X660463Y40250I5000J-2287*
G01*
G75*
G02X657750Y42963I2287J5000*
G01*
G37*
X714550Y452004D02*
Y360996D01*
X720535Y355010*
G75*
G02X727750Y351851I2215J-4760*
G01*
G75*
G02X737750I5000J-1601*
G01*
G75*
G02X741149Y355250I5000J-1601*
G01*
G75*
G02Y365250I1601J5000*
G01*
G75*
G02Y375250I1601J5000*
G01*
G75*
G02Y385250I1601J5000*
G01*
G75*
G02Y395250I1601J5000*
G01*
G75*
G02Y405250I1601J5000*
G01*
G75*
G02X738031Y407950I1601J5000*
G01*
X728967*
G75*
G02X722750Y398472I-6217J-2700*
G01*
G75*
G02Y412028J6778*
G01*
G75*
G02X725632Y411384I0J-6778*
G01*
X726124Y411876*
G75*
G02X727752Y412550I1626J-1626*
G01*
X738031*
G75*
G02X741149Y415250I4719J-2300*
G01*
G75*
G02Y425250I1601J5000*
G01*
G75*
G02Y435250I1601J5000*
G01*
G75*
G02X737750Y438649I1601J5000*
G01*
G75*
G02X727750I-5000J1601*
G01*
G75*
G02X717500Y440250I-5000J1601*
G01*
G75*
G02X721149Y445250I5250*
G01*
G75*
G02Y455250I1601J5000*
G01*
G75*
G02X719060Y456515I1600J5000*
G01*
G75*
G02X719021Y456476I-1309J1232*
G01*
X714550Y452004*
G36*
Y360996*
X720535Y355010*
G75*
G02X727750Y351851I2215J-4760*
G01*
G75*
G02X737750I5000J-1601*
G01*
G75*
G02X741149Y355250I5000J-1601*
G01*
G75*
G02Y365250I1601J5000*
G01*
G75*
G02Y375250I1601J5000*
G01*
G75*
G02Y385250I1601J5000*
G01*
G75*
G02Y395250I1601J5000*
G01*
G75*
G02Y405250I1601J5000*
G01*
G75*
G02X738031Y407950I1601J5000*
G01*
X728967*
G75*
G02X722750Y398472I-6217J-2700*
G01*
G75*
G02Y412028J6778*
G01*
G75*
G02X725632Y411384I0J-6778*
G01*
X726124Y411876*
G75*
G02X727752Y412550I1626J-1626*
G01*
X738031*
G75*
G02X741149Y415250I4719J-2300*
G01*
G75*
G02Y425250I1601J5000*
G01*
G75*
G02Y435250I1601J5000*
G01*
G75*
G02X737750Y438649I1601J5000*
G01*
G75*
G02X727750I-5000J1601*
G01*
G75*
G02X717500Y440250I-5000J1601*
G01*
G75*
G02X721149Y445250I5250*
G01*
G75*
G02Y455250I1601J5000*
G01*
G75*
G02X719060Y456515I1600J5000*
G01*
G75*
G02X719021Y456476I-1309J1232*
G01*
X714550Y452004*
G37*
X724550Y345318D02*
Y295445D01*
G75*
G02X727750Y292537I-1800J-5195*
G01*
G75*
G02X737750I5000J-2287*
G01*
G75*
G02X740450Y295244I5000J-2287*
G01*
Y345531*
G75*
G02X737750Y348649I2300J4719*
G01*
G75*
G02X727750I-5000J1601*
G01*
G75*
G02X724550Y345318I-5000J1601*
G01*
G36*
Y295445*
G75*
G02X727750Y292537I-1800J-5195*
G01*
G75*
G02X737750I5000J-2287*
G01*
G75*
G02X740450Y295244I5000J-2287*
G01*
Y345531*
G75*
G02X737750Y348649I2300J4719*
G01*
G75*
G02X727750I-5000J1601*
G01*
G75*
G02X724550Y345318I-5000J1601*
G01*
G37*
X727750Y448649D02*
G75*
G02X724351Y445250I-5000J1601D01*
G01*
G75*
G02X727750Y441851I-1601J-5000*
G01*
G75*
G02X731149Y445250I5000J-1601*
G01*
G75*
G02X727750Y448649I1601J5000*
G01*
G36*
G75*
G02X724351Y445250I-5000J1601*
G01*
G75*
G02X727750Y441851I-1601J-5000*
G01*
G75*
G02X731149Y445250I5000J-1601*
G01*
G75*
G02X727750Y448649I1601J5000*
G01*
G37*
X737750D02*
G75*
G02X734351Y445250I-5000J1601D01*
G01*
G75*
G02X737750Y441851I-1601J-5000*
G01*
G75*
G02X741149Y445250I5000J-1601*
G01*
G75*
G02X737750Y448649I1601J5000*
G01*
G36*
G75*
G02X734351Y445250I-5000J1601*
G01*
G75*
G02X737750Y441851I-1601J-5000*
G01*
G75*
G02X741149Y445250I5000J-1601*
G01*
G75*
G02X737750Y448649I1601J5000*
G01*
G37*
X747750Y438649D02*
G75*
G02X744351Y435250I-5000J1601D01*
G01*
G75*
G02X747750Y431851I-1601J-5000*
G01*
G75*
G02X751149Y435250I5000J-1601*
G01*
G75*
G02X747750Y438649I1601J5000*
G01*
G36*
G75*
G02X744351Y435250I-5000J1601*
G01*
G75*
G02X747750Y431851I-1601J-5000*
G01*
G75*
G02X751149Y435250I5000J-1601*
G01*
G75*
G02X747750Y438649I1601J5000*
G01*
G37*
Y448649D02*
G75*
G02X744351Y445250I-5000J1601D01*
G01*
G75*
G02X747750Y441851I-1601J-5000*
G01*
G75*
G02X751149Y445250I5000J-1601*
G01*
G75*
G02X747750Y448649I1601J5000*
G01*
G36*
G75*
G02X744351Y445250I-5000J1601*
G01*
G75*
G02X747750Y441851I-1601J-5000*
G01*
G75*
G02X751149Y445250I5000J-1601*
G01*
G75*
G02X747750Y448649I1601J5000*
G01*
G37*
X749550Y527004D02*
Y524721D01*
G75*
G02X758248Y520250I3200J-4471*
G01*
G75*
G02X754550Y515055I-5498*
G01*
Y465182*
G75*
G02X754351Y455250I-1800J-4932*
G01*
G75*
G02Y445250I-1601J-5000*
G01*
G75*
G02Y435250I-1601J-5000*
G01*
G75*
G02X754965Y435010I-1600J-5000*
G01*
X758450Y438496*
Y527307*
G75*
G02X757659Y532528I1800J2943*
G01*
X754536*
G75*
G02X754021Y531476I-1787J222*
G01*
X749550Y527004*
G36*
Y524721*
G75*
G02X758248Y520250I3200J-4471*
G01*
G75*
G02X754550Y515055I-5498*
G01*
Y465182*
G75*
G02X754351Y455250I-1800J-4932*
G01*
G75*
G02Y445250I-1601J-5000*
G01*
G75*
G02Y435250I-1601J-5000*
G01*
G75*
G02X754965Y435010I-1600J-5000*
G01*
X758450Y438496*
Y527307*
G75*
G02X757659Y532528I1800J2943*
G01*
X754536*
G75*
G02X754021Y531476I-1787J222*
G01*
X749550Y527004*
G37*
X757750Y42963D02*
G75*
G02X755037Y40250I-5000J2287D01*
G01*
G75*
G02X757750Y37537I-2287J-5000*
G01*
G75*
G02X760463Y40250I5000J-2287*
G01*
G75*
G02X757750Y42963I2287J5000*
G01*
G36*
G75*
G02X755037Y40250I-5000J2287*
G01*
G75*
G02X757750Y37537I-2287J-5000*
G01*
G75*
G02X760463Y40250I5000J-2287*
G01*
G75*
G02X757750Y42963I2287J5000*
G01*
G37*
X799000Y437963D02*
G75*
G02X796287Y435250I-5000J2287D01*
G01*
G75*
G02X799000Y432537I-2287J-5000*
G01*
G75*
G02X801713Y435250I5000J-2287*
G01*
G75*
G02X799000Y437963I2287J5000*
G01*
G36*
G75*
G02X796287Y435250I-5000J2287*
G01*
G75*
G02X799000Y432537I-2287J-5000*
G01*
G75*
G02X801713Y435250I5000J-2287*
G01*
G75*
G02X799000Y437963I2287J5000*
G01*
G37*
Y447963D02*
G75*
G02X796287Y445250I-5000J2287D01*
G01*
G75*
G02X799000Y442537I-2287J-5000*
G01*
G75*
G02X801713Y445250I5000J-2287*
G01*
G75*
G02X799000Y447963I2287J5000*
G01*
G36*
G75*
G02X796287Y445250I-5000J2287*
G01*
G75*
G02X799000Y442537I-2287J-5000*
G01*
G75*
G02X801713Y445250I5000J-2287*
G01*
G75*
G02X799000Y447963I2287J5000*
G01*
G37*
X875730Y428812D02*
G75*
G02X872168Y425250I-5000J1438D01*
G01*
G75*
G02X875730Y421688I-1438J-5000*
G01*
G75*
G02X879291Y425250I5000J-1438*
G01*
G75*
G02X875730Y428812I1438J5000*
G01*
G36*
G75*
G02X872168Y425250I-5000J1438*
G01*
G75*
G02X875730Y421688I-1438J-5000*
G01*
G75*
G02X879291Y425250I5000J-1438*
G01*
G75*
G02X875730Y428812I1438J5000*
G01*
G37*
Y438812D02*
G75*
G02X872168Y435250I-5000J1438D01*
G01*
G75*
G02X875730Y431688I-1438J-5000*
G01*
G75*
G02X879291Y435250I5000J-1438*
G01*
G75*
G02X875730Y438812I1438J5000*
G01*
G36*
G75*
G02X872168Y435250I-5000J1438*
G01*
G75*
G02X875730Y431688I-1438J-5000*
G01*
G75*
G02X879291Y435250I5000J-1438*
G01*
G75*
G02X875730Y438812I1438J5000*
G01*
G37*
X875750Y250463D02*
G75*
G02X873037Y247750I-5000J2287D01*
G01*
G75*
G02X875750Y245037I-2287J-5000*
G01*
G75*
G02X878463Y247750I5000J-2287*
G01*
G75*
G02X875750Y250463I2287J5000*
G01*
G36*
G75*
G02X873037Y247750I-5000J2287*
G01*
G75*
G02X875750Y245037I-2287J-5000*
G01*
G75*
G02X878463Y247750I5000J-2287*
G01*
G75*
G02X875750Y250463I2287J5000*
G01*
G37*
Y260463D02*
G75*
G02X873037Y257750I-5000J2287D01*
G01*
G75*
G02X875750Y255037I-2287J-5000*
G01*
G75*
G02X878463Y257750I5000J-2287*
G01*
G75*
G02X875750Y260463I2287J5000*
G01*
G36*
G75*
G02X873037Y257750I-5000J2287*
G01*
G75*
G02X875750Y255037I-2287J-5000*
G01*
G75*
G02X878463Y257750I5000J-2287*
G01*
G75*
G02X875750Y260463I2287J5000*
G01*
G37*
Y302963D02*
G75*
G02X873037Y300250I-5000J2287D01*
G01*
G75*
G02X875750Y297537I-2287J-5000*
G01*
G75*
G02X878463Y300250I5000J-2287*
G01*
G75*
G02X875750Y302963I2287J5000*
G01*
G36*
G75*
G02X873037Y300250I-5000J2287*
G01*
G75*
G02X875750Y297537I-2287J-5000*
G01*
G75*
G02X878463Y300250I5000J-2287*
G01*
G75*
G02X875750Y302963I2287J5000*
G01*
G37*
Y312963D02*
G75*
G02X873037Y310250I-5000J2287D01*
G01*
G75*
G02X875750Y307537I-2287J-5000*
G01*
G75*
G02X878463Y310250I5000J-2287*
G01*
G75*
G02X875750Y312963I2287J5000*
G01*
G36*
G75*
G02X873037Y310250I-5000J2287*
G01*
G75*
G02X875750Y307537I-2287J-5000*
G01*
G75*
G02X878463Y310250I5000J-2287*
G01*
G75*
G02X875750Y312963I2287J5000*
G01*
G37*
Y492963D02*
G75*
G02X873037Y490250I-5000J2287D01*
G01*
G75*
G02X875750Y487537I-2287J-5000*
G01*
G75*
G02X878463Y490250I5000J-2287*
G01*
G75*
G02X875750Y492963I2287J5000*
G01*
G36*
G75*
G02X873037Y490250I-5000J2287*
G01*
G75*
G02X875750Y487537I-2287J-5000*
G01*
G75*
G02X878463Y490250I5000J-2287*
G01*
G75*
G02X875750Y492963I2287J5000*
G01*
G37*
Y502963D02*
G75*
G02X873037Y500250I-5000J2287D01*
G01*
G75*
G02X875750Y497537I-2287J-5000*
G01*
G75*
G02X878463Y500250I5000J-2287*
G01*
G75*
G02X875750Y502963I2287J5000*
G01*
G36*
G75*
G02X873037Y500250I-5000J2287*
G01*
G75*
G02X875750Y497537I-2287J-5000*
G01*
G75*
G02X878463Y500250I5000J-2287*
G01*
G75*
G02X875750Y502963I2287J5000*
G01*
G37*
Y545463D02*
G75*
G02X873037Y542750I-5000J2287D01*
G01*
G75*
G02X875750Y540037I-2287J-5000*
G01*
G75*
G02X878463Y542750I5000J-2287*
G01*
G75*
G02X875750Y545463I2287J5000*
G01*
G36*
G75*
G02X873037Y542750I-5000J2287*
G01*
G75*
G02X875750Y540037I-2287J-5000*
G01*
G75*
G02X878463Y542750I5000J-2287*
G01*
G75*
G02X875750Y545463I2287J5000*
G01*
G37*
Y555463D02*
G75*
G02X873037Y552750I-5000J2287D01*
G01*
G75*
G02X875750Y550037I-2287J-5000*
G01*
G75*
G02X878463Y552750I5000J-2287*
G01*
G75*
G02X875750Y555463I2287J5000*
G01*
G36*
G75*
G02X873037Y552750I-5000J2287*
G01*
G75*
G02X875750Y550037I-2287J-5000*
G01*
G75*
G02X878463Y552750I5000J-2287*
G01*
G75*
G02X875750Y555463I2287J5000*
G01*
G37*
X875931Y445047D02*
X872743D01*
G75*
G02X875730Y441688I-2014J-4797*
G01*
G75*
G02X879291Y445250I5000J-1438*
G01*
G75*
G02X875931Y448239I1438J5000*
G01*
Y445047*
G36*
X872743*
G75*
G02X875730Y441688I-2014J-4797*
G01*
G75*
G02X879291Y445250I5000J-1438*
G01*
G75*
G02X875931Y448239I1438J5000*
G01*
Y445047*
G37*
D02*
D11*
X26776Y163350D02*
X24654Y161229D01*
X26776Y166402D02*
X24654Y168523D01*
X26776Y173350D02*
X24654Y171229D01*
X26776Y176402D02*
X24654Y178523D01*
X29827Y163350D02*
X31948Y161229D01*
X29827Y166402D02*
X31948Y168523D01*
X29827Y173350D02*
X31948Y171229D01*
X29827Y176402D02*
X31948Y178523D01*
X40041Y508124D02*
X37041D01*
X42199Y505967D02*
Y502967D01*
Y510281D02*
Y513281D01*
X44356Y508124D02*
X47356D01*
X63644Y210250D02*
X60644D01*
X63644Y402750D02*
X60644D01*
X65250Y208644D02*
Y205644D01*
Y211856D02*
Y214856D01*
Y401144D02*
Y398144D01*
Y404356D02*
Y407356D01*
X66856Y210250D02*
X69856D01*
X66856Y402750D02*
X69856D01*
X86144Y104876D02*
X83144D01*
X88301Y102719D02*
Y99719D01*
Y107033D02*
Y110033D01*
X90459Y104876D02*
X93459D01*
X96254Y600182D02*
X93254D01*
X100183Y596253D02*
Y593253D01*
Y604111D02*
Y607111D01*
X100673Y436598D02*
X98552Y434477D01*
X100673Y439650D02*
X98552Y441771D01*
X100673Y446598D02*
X98552Y444477D01*
X100673Y449650D02*
X98552Y451771D01*
X103724Y436598D02*
X105846Y434477D01*
X103724Y439650D02*
X105846Y441771D01*
X103724Y446598D02*
X105846Y444477D01*
X103724Y449650D02*
X105846Y451771D01*
X104112Y600182D02*
X107112D01*
X123683Y496293D02*
X120683D01*
X125250Y498746D02*
Y501746D01*
X126817Y496293D02*
X129817D01*
X135807Y603307D02*
X133685Y601185D01*
X135807Y607193D02*
X133685Y609315D01*
X139693Y603307D02*
X141815Y601185D01*
X139693Y607193D02*
X141815Y609315D01*
X140967Y125237D02*
X137967D01*
X140967Y507763D02*
X137967D01*
X142750Y123454D02*
Y120454D01*
Y127021D02*
Y130021D01*
Y505979D02*
Y502978D01*
Y509546D02*
Y512545D01*
X144533Y125237D02*
X147533D01*
X150807Y28307D02*
X148685Y26185D01*
X150807Y32193D02*
X148685Y34315D01*
X154693Y28307D02*
X156815Y26185D01*
X170967Y105237D02*
X167967D01*
X170967Y487763D02*
X167967D01*
X172750Y103454D02*
Y100455D01*
Y107021D02*
Y110022D01*
Y485979D02*
Y482979D01*
Y489546D02*
Y492546D01*
X174533Y105237D02*
X177533D01*
X188683Y116707D02*
X185683D01*
X190250Y114254D02*
Y111254D01*
X226776Y163350D02*
X224654Y161229D01*
X226776Y166402D02*
X224654Y168523D01*
X226776Y173350D02*
X224654Y171229D01*
X226776Y176402D02*
X224654Y178523D01*
X229827Y163350D02*
X231948Y161229D01*
X229827Y166402D02*
X231948Y168523D01*
X229827Y173350D02*
X231948Y171229D01*
X229827Y176402D02*
X231948Y178523D01*
X240807Y28307D02*
X238685Y26185D01*
X240807Y32193D02*
X238685Y34315D01*
X244693Y28307D02*
X246815Y26185D01*
X251144Y487750D02*
X248144D01*
X252750Y486144D02*
Y483144D01*
Y489356D02*
Y492356D01*
X254356Y487750D02*
X257356D01*
X263644Y210250D02*
X260644D01*
X265250Y208644D02*
Y205644D01*
Y211856D02*
Y214856D01*
X266856Y210250D02*
X269856D01*
X275807Y608307D02*
X273685Y606185D01*
X275807Y612193D02*
X273685Y614315D01*
X279693Y608307D02*
X281815Y606185D01*
X279693Y612193D02*
X281815Y614315D01*
X286144Y104876D02*
X283144D01*
X288301Y102719D02*
Y99719D01*
Y107033D02*
Y110033D01*
X290459Y104876D02*
X293459D01*
X316776Y163350D02*
X314654Y161229D01*
X316776Y166402D02*
X314654Y168523D01*
X316776Y173350D02*
X314654Y171229D01*
X316776Y176402D02*
X314654Y178523D01*
X319827Y163350D02*
X321948Y161229D01*
X319827Y166402D02*
X321948Y168523D01*
X319827Y173350D02*
X321948Y171229D01*
X319827Y176402D02*
X321948Y178523D01*
X353644Y210250D02*
X350644D01*
X355250Y208644D02*
Y205644D01*
Y211856D02*
Y214856D01*
X356856Y210250D02*
X359856D01*
X376144Y104876D02*
X373144D01*
X378301Y102719D02*
Y99719D01*
Y107033D02*
Y110033D01*
X380459Y104876D02*
X383459D01*
X443888Y40318D02*
X440888D01*
X447817Y36389D02*
Y33389D01*
Y44247D02*
Y47247D01*
X451746Y40318D02*
X454746D01*
X456336Y431312D02*
X454214Y429191D01*
X456336Y434168D02*
X454214Y436290D01*
X459192Y431312D02*
X461313Y429191D01*
X459192Y434168D02*
X461313Y436290D01*
X464265Y179265D02*
X461411Y176411D01*
X464265Y186235D02*
X461411Y189089D01*
X464411Y172750D02*
X461411D01*
X467750Y169411D02*
Y166411D01*
X471089Y172750D02*
X474089D01*
X471235Y179265D02*
X474089Y176411D01*
X471235Y186235D02*
X474089Y189089D01*
X581776Y163350D02*
X579654Y161229D01*
X581776Y166402D02*
X579654Y168523D01*
X581776Y173350D02*
X579654Y171229D01*
X581776Y176402D02*
X579654Y178523D01*
X584827Y163350D02*
X586948Y161229D01*
X584827Y166402D02*
X586948Y168523D01*
X584827Y173350D02*
X586948Y171229D01*
X584827Y176402D02*
X586948Y178523D01*
X618644Y210250D02*
X615644D01*
X620250Y208644D02*
Y205644D01*
Y211856D02*
Y214856D01*
X621329Y590329D02*
X619207Y588207D01*
X621329Y593171D02*
X619207Y595293D01*
X621856Y210250D02*
X624856D01*
X622750Y457750D02*
Y454750D01*
Y462750D02*
Y465750D01*
Y517502D02*
Y514502D01*
Y522998D02*
Y525998D01*
X624171Y590329D02*
X626293Y588207D01*
X624171Y593171D02*
X626293Y595293D01*
X638211Y405250D02*
X635211D01*
X641144Y104876D02*
X638144D01*
X642238Y401222D02*
Y398222D01*
Y409278D02*
Y412278D01*
X643301Y102719D02*
Y99719D01*
Y107033D02*
Y110033D01*
X645459Y104876D02*
X648459D01*
X646266Y405250D02*
X649266D01*
X650807Y33307D02*
X648685Y31185D01*
X650807Y37193D02*
X648685Y39315D01*
X654693Y33307D02*
X656815Y31185D01*
X654693Y37193D02*
X656815Y39315D01*
X696489Y123976D02*
X694368Y121855D01*
X696489Y126498D02*
X694368Y128620D01*
X699011Y123976D02*
X701132Y121855D01*
X699011Y126498D02*
X701132Y128620D01*
X720982Y438482D02*
X718861Y436361D01*
X720982Y442018D02*
X718861Y444139D01*
X724518Y438482D02*
X726639Y436361D01*
X724518Y442018D02*
X726639Y444139D01*
X725967Y105237D02*
X722967D01*
X727750Y103454D02*
Y100455D01*
Y107021D02*
Y110022D01*
X729533Y105237D02*
X732533D01*
X730807Y288307D02*
X728685Y286185D01*
X730807Y292193D02*
X728685Y294315D01*
X730982Y348482D02*
X728861Y346361D01*
X730982Y352018D02*
X728861Y354139D01*
X730982Y438482D02*
X728861Y436361D01*
X730982Y442018D02*
X728861Y444139D01*
X731329Y580329D02*
X729207Y578207D01*
X731329Y583171D02*
X729207Y585293D01*
X734171Y580329D02*
X736293Y578207D01*
X734171Y583171D02*
X736293Y585293D01*
X734518Y348482D02*
X736639Y346361D01*
X734518Y352018D02*
X736639Y354139D01*
X734518Y438482D02*
X736639Y436361D01*
X734518Y442018D02*
X736639Y444139D01*
X734693Y288307D02*
X736815Y286185D01*
X734693Y292193D02*
X736815Y294315D01*
X740982Y428482D02*
X738861Y426361D01*
X740982Y432018D02*
X738861Y434139D01*
X740982Y438482D02*
X738861Y436361D01*
X740982Y442018D02*
X738861Y444139D01*
X743683Y116707D02*
X740683D01*
X744518Y432018D02*
X746639Y434139D01*
X744518Y438482D02*
X746639Y436361D01*
X744518Y442018D02*
X746639Y444139D01*
X745250Y114254D02*
Y111254D01*
X750982Y438482D02*
X748861Y436361D01*
X750982Y442018D02*
X748861Y444139D01*
X754518Y442018D02*
X756639Y444139D01*
X760807Y33307D02*
X758685Y31185D01*
X760807Y37193D02*
X758685Y39315D01*
X764693Y33307D02*
X766815Y31185D01*
X771911Y440250D02*
X768911D01*
X775250Y443589D02*
Y446589D01*
X778589Y440250D02*
X781589D01*
X781329Y580329D02*
X779207Y578207D01*
X781329Y583171D02*
X779207Y585293D01*
X781329Y590329D02*
X779207Y588207D01*
X781329Y593171D02*
X779207Y595293D01*
X781776Y163350D02*
X779654Y161229D01*
X781776Y166402D02*
X779654Y168523D01*
X781776Y173350D02*
X779654Y171229D01*
X781776Y176402D02*
X779654Y178523D01*
X784171Y580329D02*
X786293Y578207D01*
X784171Y583171D02*
X786293Y585293D01*
X784171Y590329D02*
X786293Y588207D01*
X784171Y593171D02*
X786293Y595293D01*
X784827Y163350D02*
X786948Y161229D01*
X784827Y166402D02*
X786948Y168523D01*
X784827Y173350D02*
X786948Y171229D01*
X784827Y176402D02*
X786948Y178523D01*
X792057Y432193D02*
X789935Y434315D01*
X792057Y438307D02*
X789935Y436185D01*
X792057Y442193D02*
X789935Y444315D01*
X794000Y390250D02*
X785250D01*
X795943Y432193D02*
X798065Y434315D01*
X795943Y438307D02*
X798065Y436185D01*
X795943Y442193D02*
X798065Y444315D01*
X802057Y438307D02*
X799935Y436185D01*
X802057Y442193D02*
X799935Y444315D01*
X805943Y438307D02*
X808065Y436185D01*
X805943Y442193D02*
X808065Y444315D01*
X818644Y210250D02*
X815644D01*
X820250Y208644D02*
Y205644D01*
Y211856D02*
Y214856D01*
X821856Y210250D02*
X824856D01*
X841144Y104876D02*
X838144D01*
X843301Y102719D02*
Y99719D01*
Y107033D02*
Y110033D01*
X845459Y104876D02*
X848459D01*
X868995Y431984D02*
X866874Y434106D01*
X868995Y438516D02*
X866874Y436394D01*
X868995Y441984D02*
X866874Y444106D01*
X872464Y428516D02*
X874585Y426394D01*
X872464Y431984D02*
X874585Y434106D01*
X872464Y438516D02*
X874585Y436394D01*
X872464Y441984D02*
X874585Y444106D01*
X878807Y250807D02*
X876685Y248685D01*
X878807Y254693D02*
X876685Y256815D01*
X878807Y303307D02*
X876685Y301185D01*
X878807Y307193D02*
X876685Y309315D01*
X878807Y493307D02*
X876685Y491185D01*
X878807Y497193D02*
X876685Y499315D01*
X878807Y545807D02*
X876685Y543685D01*
X878807Y549693D02*
X876685Y551815D01*
X882693Y250807D02*
X884815Y248685D01*
X882693Y254693D02*
X884815Y256815D01*
X882693Y303307D02*
X884815Y301185D01*
X882693Y307193D02*
X884815Y309315D01*
X882693Y493307D02*
X884815Y491185D01*
X882693Y497193D02*
X884815Y499315D01*
X882693Y545807D02*
X884815Y543685D01*
X882693Y549693D02*
X884815Y551815D01*
D02*
D12*
X45250Y45250D03*
Y280250D03*
Y360250D03*
Y595250D03*
X360250Y45250D03*
Y280250D03*
Y360250D03*
Y595250D03*
X555250Y45250D03*
Y595250D03*
X870250Y45250D03*
Y595250D03*
D02*
D13*
X150250Y427750D03*
X155250Y185250D03*
X160250Y427750D03*
X234000Y342750D03*
X280250D03*
X357750Y427750D03*
Y435250D03*
X437750Y360250D03*
Y372815D03*
D03*
Y390314D03*
X637750Y507750D03*
X642750Y502750D03*
X652750Y497750D03*
X657750Y510250D03*
X662750Y492750D03*
X672750Y487750D03*
X705250Y360250D03*
X715250Y182750D03*
X720250Y195250D03*
X760250Y530250D03*
X780250Y325250D03*
Y340250D03*
Y497750D03*
X785250Y390250D03*
Y442750D03*
Y460250D03*
Y502750D03*
X797750Y507750D03*
X807750Y517750D03*
Y525250D03*
Y532750D03*
D02*
D14*
X602750Y350250D03*
Y460250D03*
X612750Y350250D03*
Y460250D03*
X622750Y350250D03*
Y460250D03*
X632750Y350250D03*
Y460250D03*
X642750Y350250D03*
Y460250D03*
X652750Y350250D03*
Y460250D03*
X662750Y350250D03*
Y460250D03*
X672750Y350250D03*
Y460250D03*
X682750Y350250D03*
Y460250D03*
X692750Y350250D03*
Y460250D03*
X702750Y350250D03*
Y460250D03*
X712750Y350250D03*
Y460250D03*
X722750Y350250D03*
Y440250D03*
Y450250D03*
Y460250D03*
X732750Y350250D03*
Y440250D03*
Y450250D03*
Y460250D03*
X742750Y350250D03*
Y360250D03*
Y370250D03*
Y380250D03*
Y390250D03*
Y400250D03*
Y410250D03*
Y420250D03*
Y430250D03*
Y440250D03*
Y450250D03*
Y460250D03*
X752750Y350250D03*
Y360250D03*
Y370250D03*
Y380250D03*
Y390250D03*
Y400250D03*
Y410250D03*
Y420250D03*
Y430250D03*
Y440250D03*
Y450250D03*
Y460250D03*
D02*
D15*
X147777Y80250D03*
X167723Y532750D03*
X172750Y40250D03*
X177750Y605250D03*
X262750Y40250D03*
X297750Y530250D03*
Y610250D03*
X602750Y290250D03*
Y520250D03*
X672750Y45250D03*
X682750Y290250D03*
Y520250D03*
X702777Y81500D03*
X782750Y45250D03*
X794000Y360250D03*
X870750Y272750D03*
Y325250D03*
Y515250D03*
Y567750D03*
D02*
D16*
X137750Y595250D03*
Y605250D03*
X142750Y30250D03*
Y40250D03*
X147723Y532750D03*
X147750Y595250D03*
Y605250D03*
X152750Y30250D03*
Y40250D03*
X157723Y532750D03*
X157750Y595250D03*
Y605250D03*
X157777Y80250D03*
X162750Y30250D03*
Y40250D03*
X167750Y595250D03*
Y605250D03*
X167777Y80250D03*
X172750Y30250D03*
X177750Y595250D03*
X232750Y30250D03*
Y40250D03*
X242750Y30250D03*
Y40250D03*
X247750Y530250D03*
Y610250D03*
X252750Y30250D03*
Y40250D03*
X257750Y530250D03*
Y610250D03*
X262750Y30250D03*
X267750Y530250D03*
Y610250D03*
X277750Y530250D03*
Y610250D03*
X287750Y530250D03*
Y610250D03*
X612750Y290250D03*
Y520250D03*
X622750Y290250D03*
Y520250D03*
X632750Y290250D03*
Y520250D03*
X642750Y35250D03*
Y45250D03*
Y290250D03*
Y520250D03*
X652750Y35250D03*
Y45250D03*
Y290250D03*
Y520250D03*
X662750Y35250D03*
Y45250D03*
Y290250D03*
Y520250D03*
X672750Y35250D03*
Y290250D03*
Y520250D03*
X692750Y290250D03*
Y520250D03*
X702750Y290250D03*
Y520250D03*
X712750Y290250D03*
Y520250D03*
X712777Y81500D03*
X722750Y290250D03*
Y520250D03*
X722777Y81500D03*
X732750Y290250D03*
Y520250D03*
X742750Y290250D03*
Y520250D03*
X752750Y35250D03*
Y45250D03*
Y290250D03*
Y520250D03*
X762750Y35250D03*
Y45250D03*
X772750Y35250D03*
Y45250D03*
X782750Y35250D03*
X794000Y370250D03*
Y380250D03*
Y390250D03*
Y400250D03*
Y410250D03*
Y420250D03*
Y430250D03*
Y440250D03*
Y450250D03*
X804000Y360250D03*
Y370250D03*
Y380250D03*
Y390250D03*
Y400250D03*
Y410250D03*
Y420250D03*
Y430250D03*
Y440250D03*
Y450250D03*
X870750Y242750D03*
Y252750D03*
Y262750D03*
Y295250D03*
Y305250D03*
Y315250D03*
Y485250D03*
Y495250D03*
Y505250D03*
Y537750D03*
Y547750D03*
Y557750D03*
X880750Y242750D03*
Y252750D03*
Y262750D03*
Y272750D03*
Y295250D03*
Y305250D03*
Y315250D03*
Y325250D03*
Y485250D03*
Y495250D03*
Y505250D03*
Y515250D03*
Y537750D03*
Y547750D03*
Y557750D03*
Y567750D03*
D02*
D17*
X642238Y405250D03*
X722750D03*
D02*
D18*
X27750Y220250D03*
X102750Y392750D03*
X142750Y220250D03*
Y392750D03*
Y560250D03*
X152750Y220250D03*
Y392750D03*
Y560250D03*
X162750Y220250D03*
Y392750D03*
Y560250D03*
X172750Y220250D03*
Y392750D03*
Y560250D03*
X227750Y220250D03*
X290250Y477750D03*
X312750D03*
X317750Y220250D03*
X322750Y477750D03*
X415250Y430240D03*
X447750Y172750D03*
X452750Y455250D03*
X467750Y182750D03*
X500250Y420240D03*
X582750Y220250D03*
X697750D03*
X707750D03*
X717750D03*
X727750D03*
X775250Y440250D03*
X782750Y220250D03*
X847750Y242750D03*
Y295250D03*
Y485250D03*
Y537750D03*
D02*
D19*
X27750Y210250D03*
X102750Y402750D03*
X142750Y210250D03*
Y402750D03*
Y570250D03*
X152750Y210250D03*
Y402750D03*
Y570250D03*
X162750Y210250D03*
Y402750D03*
Y570250D03*
X172750Y210250D03*
Y402750D03*
Y570250D03*
X227750Y210250D03*
X290250Y487750D03*
X312750D03*
X317750Y210250D03*
X322750Y487750D03*
X415250Y420240D03*
X447750Y182750D03*
X462750Y455250D03*
X467750Y172750D03*
X500250Y430240D03*
X582750Y210250D03*
X697750D03*
X707750D03*
X717750D03*
X727750D03*
X775250Y430250D03*
X782750Y210250D03*
X837750Y242750D03*
Y295250D03*
Y485250D03*
Y537750D03*
D02*
D70*
X80183Y600182D03*
X467817Y40318D03*
D02*
D71*
X100183Y600182D03*
X447817Y40318D03*
D02*
D20*
X426156Y312737D03*
Y372750D03*
D02*
D21*
X447764Y432740D03*
X457764D03*
X467764D03*
D02*
D22*
X65250Y220250D03*
Y392750D03*
X252750Y477750D03*
X265250Y220250D03*
X355250D03*
X620250D03*
X820250D03*
D02*
D23*
X35250Y392750D03*
Y402750D03*
X65250Y210250D03*
Y402750D03*
X95250Y210250D03*
Y220250D03*
X222750Y477750D03*
Y487750D03*
X252750D03*
X265250Y210250D03*
X295250D03*
Y220250D03*
X355250Y210250D03*
X385250D03*
Y220250D03*
X620250Y210250D03*
X650250D03*
Y220250D03*
X820250Y210250D03*
X850250D03*
Y220250D03*
D02*
D24*
X28301Y84876D03*
Y104876D03*
Y164876D03*
Y174876D03*
Y184876D03*
X42199Y438124D03*
Y448124D03*
Y508124D03*
Y528124D03*
X88301Y84876D03*
Y104876D03*
Y164876D03*
Y174876D03*
X102199Y428124D03*
Y438124D03*
Y448124D03*
Y508124D03*
Y528124D03*
X228301Y84876D03*
Y104876D03*
Y164876D03*
Y174876D03*
Y184876D03*
X288301Y84876D03*
Y104876D03*
Y164876D03*
Y174876D03*
X318301Y84876D03*
Y104876D03*
Y164876D03*
Y174876D03*
Y184876D03*
X378301Y84876D03*
Y104876D03*
Y164876D03*
Y174876D03*
X583301Y84876D03*
Y104876D03*
Y164876D03*
Y174876D03*
Y184876D03*
X643301Y84876D03*
Y104876D03*
Y164876D03*
Y174876D03*
X783301Y84876D03*
Y104876D03*
Y164876D03*
Y174876D03*
Y184876D03*
X843301Y84876D03*
Y104876D03*
Y164876D03*
Y174876D03*
D02*
D25*
X142750Y507763D03*
X172750Y105237D03*
X727750D03*
D02*
D26*
X142750D03*
Y115237D03*
Y125237D03*
Y135237D03*
Y145237D03*
Y155237D03*
Y165237D03*
Y175237D03*
Y185237D03*
Y427763D03*
Y437763D03*
Y447763D03*
Y457763D03*
Y467763D03*
Y477763D03*
Y487763D03*
Y497763D03*
X172750Y115237D03*
Y125237D03*
Y135237D03*
Y145237D03*
Y155237D03*
Y165237D03*
Y175237D03*
Y185237D03*
Y427763D03*
Y437763D03*
Y447763D03*
Y457763D03*
Y467763D03*
Y477763D03*
Y487763D03*
Y497763D03*
Y507763D03*
X697750Y105237D03*
Y115237D03*
Y125237D03*
Y135237D03*
Y145237D03*
Y155237D03*
Y165237D03*
Y175237D03*
Y185237D03*
X727750Y115237D03*
Y125237D03*
Y135237D03*
Y145237D03*
Y155237D03*
Y165237D03*
Y175237D03*
Y185237D03*
D02*
D27*
X125250Y489207D03*
Y496293D03*
X190250Y116707D03*
Y123793D03*
X745250Y116707D03*
Y123793D03*
D02*
D28*
X110250Y80250D03*
X205250D03*
X665250D03*
X760250D03*
D02*
D29*
X110250Y122376D03*
X205250D03*
X665250D03*
X760250D03*
D02*
D72*
X870730Y450250D03*
D02*
D73*
Y360250D03*
Y370250D03*
Y380250D03*
Y390250D03*
Y400250D03*
Y410250D03*
Y420250D03*
Y430250D03*
Y440250D03*
X880730Y360250D03*
Y370250D03*
Y380250D03*
Y390250D03*
Y400250D03*
Y410250D03*
Y420250D03*
Y430250D03*
Y440250D03*
Y450250D03*
D02*
D74*
X602750Y581750D03*
D02*
D75*
Y591750D03*
X612750Y581750D03*
Y591750D03*
X622750Y581750D03*
Y591750D03*
X632750Y581750D03*
Y591750D03*
X642750Y581750D03*
Y591750D03*
X652750Y581750D03*
Y591750D03*
X662750Y581750D03*
Y591750D03*
X672750Y581750D03*
Y591750D03*
X682750Y581750D03*
Y591750D03*
X692750Y581750D03*
Y591750D03*
X702750Y581750D03*
Y591750D03*
X712750Y581750D03*
Y591750D03*
X722750Y581750D03*
Y591750D03*
X732750Y581750D03*
Y591750D03*
X742750Y581750D03*
Y591750D03*
X752750Y581750D03*
Y591750D03*
X762750Y581750D03*
Y591750D03*
X772750Y581750D03*
Y591750D03*
X782750Y581750D03*
Y591750D03*
X792750Y581750D03*
Y591750D03*
D02*
D76*
X602750Y536844D03*
Y548656D03*
X612750Y536844D03*
Y548656D03*
X622750Y536844D03*
Y548656D03*
X632750Y536844D03*
Y548656D03*
X642750Y536844D03*
Y548656D03*
X652750Y536844D03*
Y548656D03*
X662750Y536844D03*
Y548656D03*
X672750Y536844D03*
Y548656D03*
X682750Y536844D03*
Y548656D03*
X692750Y536844D03*
Y548656D03*
X702750Y536844D03*
Y548656D03*
X712750Y536844D03*
Y548656D03*
X722750Y536844D03*
Y548656D03*
X742750Y536844D03*
Y548656D03*
X752750Y536844D03*
Y548656D03*
D02*
D77*
X826844Y365250D03*
Y375250D03*
Y385250D03*
Y395250D03*
Y405250D03*
Y415250D03*
Y425250D03*
X838656Y365250D03*
Y375250D03*
Y385250D03*
Y395250D03*
Y405250D03*
Y415250D03*
Y425250D03*
D02*
D78*
X530250Y422750D03*
X535250Y417750D03*
Y427750D03*
D02*
D79*
X457750Y110250D03*
Y130093D03*
D02*
D80*
X142750Y135237D02*
Y135250D01*
X152750Y125250*
Y49000*
X157750Y44000*
Y35250*
X162750Y30250*
X142750Y145237D02*
X160250Y127750D01*
X162750Y125250*
Y50250*
X172750Y40250*
X142750Y427763D02*
X152750Y437750D01*
Y560250*
X142750Y487763D02*
X125750Y487750D01*
X125250Y489207*
X142750Y560250D02*
Y522238D01*
X147750Y517238*
Y442750*
X146500Y441500*
X142750Y437763*
X150250Y427750D02*
X170263Y447763D01*
X172750*
X155250Y185250D02*
X142750Y185237D01*
X160250Y427750D02*
X172750Y427763D01*
X162750Y560250D02*
Y487750D01*
X172750Y477750*
Y477763*
X162750Y570250D02*
Y600250D01*
X157750Y605250*
X172750Y125237D02*
X184750Y125250D01*
X190250Y123793*
X172750Y175237D02*
Y175250D01*
X196500Y151500*
Y74000*
X222750Y47750*
X245250*
X247750Y45250*
Y35120*
X252750Y30250*
X172750Y560250D02*
Y515250D01*
X177750Y510250*
Y472750*
X176500Y471513*
X172750Y467763*
Y570250D02*
Y600250D01*
X167750Y605250*
X234000Y342750D02*
X280250D01*
X262750Y40250D02*
Y41500D01*
X261500*
X251500Y51500*
X225250*
X200250Y76500*
Y157750*
X172750Y185250*
Y185237*
X312750Y477750D02*
Y472750D01*
X357750Y427750*
Y435250D02*
X322750Y470250D01*
Y477750*
X437750Y360250D02*
Y324332D01*
X426156Y312737*
X437750Y372815D02*
Y360250D01*
Y390314D02*
Y372815D01*
X602750Y290250D02*
Y350250D01*
Y536844D02*
Y532750D01*
X595250Y525250*
Y357750*
X602750Y350250*
Y548656D02*
Y581750D01*
X612750Y290250D02*
Y350250D01*
Y536844D02*
Y532750D01*
X607750Y527750*
Y355250*
X612750Y350250*
Y548656D02*
Y581750D01*
X622750Y350250D02*
Y290250D01*
Y536844D02*
Y532750D01*
X617750Y527750*
Y355250*
X622750Y350250*
Y548656D02*
Y581750D01*
X632750Y350250D02*
Y290250D01*
Y520250D02*
Y460250D01*
Y536844D02*
Y532750D01*
X627750Y527750*
Y355250*
X632750Y350250*
Y548656D02*
Y581750D01*
X637750Y507750D02*
Y527750D01*
X642750Y532750*
Y536844*
Y290250D02*
Y350250D01*
X637750Y355250*
Y395250*
X632750Y400250*
Y410250*
X637750Y415250*
Y507750*
X642750Y502750D02*
Y460250D01*
Y520250D02*
Y502750D01*
Y548656D02*
Y581750D01*
X652750Y350250D02*
Y290250D01*
Y350250D02*
X647750Y355250D01*
Y395250*
X652750Y400250*
Y410250*
X647750Y415250*
Y527750*
X652750Y532750*
Y536844*
Y497750D02*
Y460250D01*
Y520250D02*
Y497750D01*
Y548656D02*
Y581750D01*
X657750Y510250D02*
Y527750D01*
X662750Y532750*
Y536844*
Y290250D02*
Y352750D01*
X657750Y357750*
Y510250*
X662750Y492750D02*
Y460250D01*
Y520250D02*
Y492750D01*
Y548656D02*
Y581750D01*
X672750Y350250D02*
Y290250D01*
Y487750D02*
Y460250D01*
Y520250D02*
Y487750D01*
Y536844D02*
Y532750D01*
X667750Y527750*
Y355250*
X672750Y350250*
Y548656D02*
Y581750D01*
X682750Y290250D02*
Y350250D01*
Y520250D02*
Y460250D01*
Y536844D02*
Y532750D01*
X677750Y527750*
Y355250*
X682750Y350250*
Y548656D02*
Y581750D01*
X692750Y350250D02*
Y290250D01*
Y520250D02*
Y460250D01*
Y536844D02*
Y532750D01*
X687750Y527750*
Y355250*
X692750Y350250*
Y548656D02*
Y581750D01*
X697750Y135237D02*
X702750Y130250D01*
X704000Y129000*
Y99000*
X667750Y62750*
Y40250*
X662750Y35250*
X697750Y145237D02*
X707750Y135250D01*
Y97750*
X672750Y62750*
Y45250*
X697750Y185237D02*
X710250Y185250D01*
X720250Y195250*
X702750Y350250D02*
Y290250D01*
Y520250D02*
Y460250D01*
Y536844D02*
Y532750D01*
X697750Y527750*
Y355250*
X702750Y350250*
Y548656D02*
Y581750D01*
X705250Y360250D02*
X712750Y352750D01*
Y350250*
Y290250*
Y520250D02*
Y460250D01*
Y536844D02*
Y532750D01*
X707750Y527750*
Y455250*
X705250Y452750*
Y360250*
X712750Y548656D02*
Y581750D01*
X715250Y182750D02*
X707750Y175250D01*
X697750Y175237*
X722750Y350250D02*
Y290250D01*
Y350250D02*
X712750Y360250D01*
Y452750*
X717750Y457750*
Y527750*
X722750Y532750*
Y536844*
Y520250D02*
Y460250D01*
Y548656D02*
Y581750D01*
X727750Y125237D02*
X739750Y125250D01*
X745250Y123793*
X732750Y520250D02*
Y460250D01*
X742750Y360250D02*
X747750Y365250D01*
X757750*
X762750Y360250*
X794000*
X742750Y370250D02*
X747750Y375250D01*
X757750*
X762750Y370250*
X794000*
X742750Y380250D02*
X747750Y385250D01*
X757750*
X762750Y380250*
X794000*
X742750Y400250D02*
X747750Y405250D01*
X757750*
X762750Y400250*
X794000*
X742750Y410250D02*
X747750Y415250D01*
X757750*
X762750Y410250*
X794000*
X742750Y420250D02*
X747750Y425250D01*
X757750*
X762750Y420250*
X794000*
X742750Y520250D02*
Y460250D01*
Y536844D02*
Y532750D01*
X737750Y527750*
Y482750*
X742750Y548656D02*
Y581750D01*
X752750Y360250D02*
X757750D01*
X762750Y355250*
X799000*
X804000Y360250*
X752750Y370250D02*
X757750D01*
X762750Y365250*
X796500*
X801500Y370250*
X804000*
X752750Y380250D02*
X757750D01*
X762750Y375250*
X796500*
X801500Y380250*
X804000*
X752750Y390250D02*
X757750D01*
X762750Y385250*
X796500*
X801500Y390250*
X804000*
X752750Y400250D02*
X757750D01*
X762750Y395250*
X796500*
X801500Y400250*
X804000*
X752750Y410250D02*
X757750D01*
X762750Y405250*
X796500*
X801500Y410250*
X804000*
X752750Y420250D02*
X757750D01*
X762750Y415250*
X796500*
X801500Y420250*
X804000*
X752750Y430250D02*
X760250Y437750D01*
Y530250*
X752750Y430250D02*
X757750D01*
X762750Y425250*
X770250*
X775250Y430250*
X752750Y520250D02*
Y460250D01*
Y536844D02*
Y532750D01*
X747750Y527750*
Y482750*
X752750Y548656D02*
Y581750D01*
X765250Y475250D02*
Y435250D01*
Y520250D02*
Y475250D01*
X772750Y35250D02*
X767750Y40250D01*
Y52750*
X751500Y69000*
Y151500*
X751487*
X727750Y175237*
X780250Y325250D02*
Y340250D01*
X782750Y45250D02*
X755250Y72750D01*
Y157750*
X755237*
X727750Y185237*
X785250Y390250D02*
X762750D01*
X757750Y395250*
X747750*
X742750Y390250*
X785250Y460250D02*
Y442750D01*
X794000Y370250D02*
X795250D01*
X800250Y375250*
X826844*
X794000Y380250D02*
X795250D01*
X800250Y385250*
X826844*
X794000Y400250D02*
X795250D01*
X800250Y405250*
X826844*
X794000Y410250D02*
X795250D01*
X800250Y415250*
X826844*
X794000Y420250D02*
X796500D01*
X801500Y425250*
X826844*
X804000Y430250D02*
X801500D01*
X796500Y425250*
X780250*
X775250Y430250*
X807750Y517750D02*
X797750Y507750D01*
X807750Y525250D02*
X785250Y502750D01*
X807750Y532750D02*
X780250Y505250D01*
Y497750*
X826844Y365250D02*
X800250D01*
X795250Y360250*
X794000*
X826844Y395250D02*
X800250D01*
X795250Y390250*
X794000*
X838656Y375250D02*
X865750D01*
X870730Y370250*
X838656Y385250D02*
X865750D01*
X870730Y380250*
X838656Y395250D02*
X865750D01*
X870730Y390250*
X838656Y405250D02*
X865750D01*
X870730Y400250*
X838656Y415250D02*
X865750D01*
X870730Y410250*
Y360250D02*
X865750Y365250D01*
X838656*
X870730Y420250D02*
X865750Y425250D01*
X838656*
D02*
D81*
X282750Y452750D03*
X319000Y420250D03*
X415277Y322750D03*
X612750Y367750D03*
Y442750D03*
X737750Y482750D03*
X747750D03*
X765250Y435250D03*
Y475250D03*
Y520250D03*
X772750Y450250D03*
Y482750D03*
X780250Y520250D03*
X817750Y472750D03*
Y507750D03*
D02*
D82*
X282750Y452750D02*
X286500D01*
X319000Y420250*
X405250*
X405260Y420240*
X415250*
Y350250*
X415277Y350223*
Y322750*
X602750Y520250D02*
Y460250D01*
X612750Y367750D02*
Y460250D01*
Y520250D02*
Y460250D01*
X722750Y405250D02*
X727750Y410250D01*
X742750*
Y350250D02*
Y290250D01*
D02*
D83*
X426250Y342750D03*
D02*
D84*
X35250Y392750D02*
Y385250D01*
X42750Y377750*
X87750*
X95250Y370250*
Y250250*
X102750Y242750*
X95250Y235250*
Y220250*
X102750Y242750D02*
X295250D01*
Y220250D02*
Y242750D01*
X385250*
Y220250D02*
Y242750D01*
Y282750*
X426250Y323750*
Y342750*
X415250Y430240D02*
X432750D01*
X435250Y432740*
X447764*
X426250Y342750D02*
Y372656D01*
X426156Y372750*
X500250Y420240D02*
X445240D01*
X426156Y401156*
Y372750*
X500250Y430240D02*
X485250D01*
X482750Y432740*
X467764*
X752750Y232750D02*
Y290250D01*
Y232750D02*
X837750D01*
X850250Y220250*
X752750Y232750D02*
X662750D01*
X650250Y220250*
X752750Y290250D02*
Y350250D01*
X772750Y482750D02*
Y450250D01*
X780250Y520250D02*
X772750Y512750D01*
Y482750*
X817750Y507750D02*
Y472750D01*
X880750Y272750D02*
Y277750D01*
X875750Y282750*
X760250*
X752750Y290250*
X880750Y537750D02*
X889750D01*
X895250Y532250*
Y490250*
X890250Y485250*
X887750*
X880750*
X887750D02*
X890250D01*
X895250Y480250*
Y252750*
X885250Y242750*
X880750*
X0Y0D02*
M02*
